<?xml version="1.0" encoding="UTF-8"?>
<svg id="Layer_1" xmlns="http://www.w3.org/2000/svg" version="1.1" viewBox="0 0 410 228">
  <!-- Generator: Adobe Illustrator 29.5.0, SVG Export Plug-In . SVG Version: 2.1.0 Build 137)  -->
  <defs>
    <style>
      .st0 {
        fill: #5000ff;
      }

      .st1 {
        fill: #fff;
      }
    </style>
  </defs>
  <path class="st0" d="M8,38.5h5.5v15.2h.3c.6-2.3,1.6-4.5,3-6.6,1.5-2.1,3.2-3.9,5.3-5.4,2.1-1.5,4.4-2.8,7-3.6,2.5-.9,5.2-1.3,8.1-1.3s6.7.4,9.3,1.4c2.6.9,4.9,2.1,6.7,3.6,1.8,1.5,3.3,3.2,4.4,5.1,1.1,1.9,1.8,3.8,2.2,5.7h.3c2.3-5.2,5.2-9.1,8.9-11.8,3.7-2.7,8.6-4,14.7-4s6.5.5,9.4,1.5,5.3,2.5,7.4,4.6c2.1,2.1,3.7,4.7,4.9,7.9,1.2,3.2,1.7,7,1.7,11.3v51h-5.5v-51.1c0-4.7-.7-8.5-2.2-11.2-1.5-2.7-3.2-4.8-5.2-6.2-2-1.4-4-2.3-6-2.6-2-.4-3.5-.5-4.6-.5-3.4,0-6.5.6-9.4,1.7-2.8,1.2-5.3,2.9-7.4,5.2-2.1,2.3-3.7,5.2-4.9,8.6-1.2,3.4-1.7,7.4-1.7,11.8v44.1h-5.5v-51.1c0-4.6-.7-8.3-2.1-11.1-1.4-2.8-3-4.8-4.9-6.2-1.9-1.4-3.8-2.3-5.8-2.6-2-.4-3.6-.6-4.7-.6-2.6,0-5.3.5-8.1,1.6-2.8,1.1-5.4,2.7-7.7,4.9-2.3,2.3-4.2,5.1-5.7,8.6-1.5,3.5-2.2,7.6-2.2,12.3v44.1h-5.5V38.5Z"/>
  <path class="st0" d="M172.9,98.3h-.3c-.9,2.3-2.1,4.4-3.8,6.3-1.7,2-3.6,3.8-6,5.3-2.4,1.5-5.1,2.8-8.1,3.6-3,.9-6.3,1.3-9.9,1.3-7.9,0-14.1-1.7-18.4-5.2-4.4-3.4-6.5-8.7-6.5-15.9s.9-7.9,2.6-10.7c1.7-2.8,3.9-4.9,6.6-6.5,2.7-1.6,5.6-2.8,8.9-3.4,3.3-.7,6.4-1.2,9.4-1.5l8.6-.7c4-.3,7.1-.7,9.4-1.4,2.3-.7,4-1.5,5.2-2.6,1.2-1.1,1.9-2.5,2.2-4.3.3-1.7.4-3.9.4-6.5s-.4-3.9-1.2-5.7c-.8-1.7-2-3.3-3.6-4.6-1.7-1.4-3.8-2.4-6.4-3.2-2.6-.8-5.8-1.2-9.6-1.2-6.7,0-12.1,1.7-16.2,4.9-4.1,3.3-6.4,8.3-6.8,15h-5.5c.4-8.2,3-14.4,7.9-18.5,4.9-4.1,11.8-6.2,20.8-6.2s15.5,1.7,19.7,5.3,6.2,8.1,6.2,13.9v43.4c0,1.1,0,2.1,0,3.2,0,1.1.2,2,.5,2.9.3.9.8,1.6,1.5,2.1.7.5,1.7.8,2.9.8s2.3-.1,4.1-.4v4.6c-1.5.4-3,.6-4.5.6-2.2,0-4-.3-5.3-.9-1.3-.6-2.3-1.4-3-2.3-.7-.9-1.2-2.1-1.4-3.4-.2-1.3-.4-2.8-.4-4.3v-3.9ZM172.9,70.7c-1.4,1.7-3.4,2.8-6.2,3.3-2.8.6-5.8,1-9.2,1.3l-9.3.9c-2.7.3-5.4.7-8.1,1.2-2.7.5-5.2,1.5-7.3,2.7-2.2,1.2-3.9,3-5.3,5.2-1.4,2.2-2,5-2,8.5,0,5.5,1.7,9.6,5.2,12.3,3.5,2.7,8.3,4,14.4,4s11.3-1.2,15-3.4c3.7-2.3,6.5-4.9,8.4-7.8,2-3,3.2-5.8,3.7-8.6s.8-4.6.8-5.6v-13.9Z"/>
  <path class="st0" d="M201.5,55h.4c.7-2.4,1.9-4.7,3.7-6.8,1.8-2.1,4-4,6.5-5.5,2.5-1.5,5.4-2.8,8.6-3.6,3.1-.8,6.4-1.2,9.8-1.1v5.5c-2.9-.4-6.2,0-9.9.9-3.7.9-7.3,3.1-10.7,6.4-1.4,1.5-2.5,2.8-3.6,4.2-1,1.4-1.9,2.8-2.5,4.5-.7,1.7-1.2,3.5-1.6,5.5-.4,2-.7,4.4-.7,7.3v40.8h-5.5V38.5h5.5v16.6Z"/>
  <path class="st0" d="M236.6,9.4h5.5v68.7l46-39.6h8l-32.7,27.9,35,46.7h-7.5l-31.8-42.5-17,14.4v28.2h-5.5V9.4Z"/>
  <path class="st1" d="M15.8,192.1c.2,3.5.9,6.5,2.3,9.2,1.4,2.7,3.1,4.9,5.3,6.8,2.2,1.9,4.7,3.3,7.6,4.3,2.9.9,6,1.5,9.4,1.5s5-.2,7.8-.7c2.8-.4,5.3-1.2,7.7-2.4,2.4-1.2,4.4-2.8,5.9-4.9,1.5-2.1,2.3-4.7,2.3-7.9s-1.2-7.3-3.8-9.4c-2.5-2.1-5.7-3.8-9.5-4.9-3.8-1.2-7.9-2.1-12.3-2.8-4.4-.7-8.5-1.8-12.3-3.3-3.8-1.5-7-3.5-9.5-6.2-2.5-2.7-3.8-6.5-3.8-11.7s.8-6.8,2.5-9.2c1.7-2.5,3.8-4.4,6.3-5.9,2.5-1.5,5.4-2.5,8.6-3.1,3.2-.7,6.4-.9,9.6-.9s7.5.4,10.9,1.3,6.3,2.2,8.8,4.2c2.5,2,4.4,4.4,5.8,7.4,1.4,3,2.1,6.6,2.1,10.9h-5.5c0-3.4-.6-6.3-1.7-8.7-1.1-2.4-2.7-4.4-4.6-5.9-2-1.5-4.4-2.6-7-3.3-2.7-.7-5.6-1.1-8.7-1.1s-5.1.2-7.6.7c-2.5.5-4.9,1.3-6.9,2.5-2,1.2-3.7,2.7-5,4.5-1.3,1.8-2,4.1-2,6.7s.7,5.4,2.2,7.3c1.5,1.8,3.3,3.3,5.7,4.4s5,2,8,2.7c3,.7,6,1.4,8.9,2,3.7.7,7.1,1.5,10.4,2.4,3.3.9,6,2.2,8.4,3.8s4.2,3.6,5.6,6.2c1.4,2.5,2,5.7,2,9.6s-.9,7.4-2.8,10c-1.8,2.6-4.1,4.7-7,6.3-2.8,1.6-6,2.7-9.4,3.3-3.4.7-6.8.9-10.1.9s-8.2-.6-11.8-1.7c-3.6-1.1-6.8-2.8-9.5-5.1-2.7-2.2-4.9-5.1-6.4-8.3-1.5-3.3-2.4-7.1-2.5-11.5h5.5Z"/>
  <path class="st1" d="M85,180.3v.9c0,4.4.6,8.5,1.7,12.5,1.2,4,2.9,7.5,5.2,10.5,2.3,3,5.2,5.4,8.6,7.1,3.4,1.7,7.5,2.6,12,2.6,7.5,0,13.4-2,17.8-5.9,4.4-3.9,7.4-9.4,9-16.3h5.5c-1.7,8.7-5.2,15.4-10.7,20-5.4,4.6-12.7,7-21.7,7s-10.3-1-14.4-3c-4.1-2-7.5-4.7-10.3-8.1s-4.8-7.5-6.2-12.2c-1.4-4.7-2-9.7-2-15.2s.7-10.2,2.1-15c1.4-4.8,3.5-9,6.3-12.6,2.8-3.6,6.3-6.5,10.5-8.7,4.2-2.2,9.1-3.3,14.9-3.3s9.9.9,13.9,2.9c4,2,7.4,4.6,10.1,7.9,2.7,3.3,4.8,7.2,6.2,11.6,1.4,4.4,2.1,9.1,2.1,14.2s0,1,0,1.7v1.5h-60.4ZM139.9,175.5c-.2-4.1-.9-7.9-2-11.5-1.2-3.6-2.9-6.8-5.2-9.6-2.2-2.8-5.1-4.9-8.3-6.6-3.3-1.7-7-2.5-11.1-2.5s-8.4.9-11.8,2.5c-3.4,1.7-6.2,3.9-8.6,6.7-2.3,2.8-4.1,6-5.4,9.7-1.2,3.7-2,7.5-2.3,11.3h54.7-.1Z"/>
  <path class="st1" d="M176.9,177.7l-27.3-35.4h7.7l23.4,31.2,23.5-31.2h7.1l-27,35.4,29.5,39.2h-7.6l-25.6-35-26.1,35h-7l29.3-39.2Z"/>
  <path class="st1" d="M248.5,147.1h-16.3v52.1c0,3,.4,5.4,1,7.1.7,1.7,1.7,3,3.1,4,1.4.9,3.1,1.5,5.1,1.7,2,.2,4.3.2,6.9.1v4.8c-2.8.2-5.5.1-8.2,0-2.7-.2-5-.9-7-2.2-2-1.2-3.6-3-4.9-5.4-1.2-2.4-1.7-5.7-1.5-10v-52.1h-13.8v-4.8h13.8v-23.2h5.5v23.2h16.3v4.8Z"/>
  <path class="st1" d="M253.1,179.6c0-5.3.7-10.3,2.3-15,1.5-4.7,3.7-8.9,6.6-12.4,2.9-3.6,6.5-6.4,10.7-8.5,4.3-2.1,9.1-3.1,14.7-3.1s10.4,1,14.7,3.1c4.3,2.1,7.8,4.9,10.7,8.5,2.9,3.6,5.1,7.7,6.6,12.4,1.5,4.7,2.2,9.7,2.2,15s-.7,10.4-2.2,15.1c-1.5,4.7-3.7,8.9-6.6,12.4-2.9,3.6-6.5,6.3-10.7,8.4-4.3,2.1-9.1,3.1-14.7,3.1s-10.4-1-14.7-3.1-7.8-4.9-10.7-8.4c-2.9-3.6-5.1-7.7-6.6-12.4-1.5-4.7-2.3-9.8-2.3-15.1ZM258.6,179.6c0,4.4.7,8.7,1.9,12.8,1.2,4.1,3.1,7.8,5.5,11,2.4,3.2,5.4,5.7,9,7.6,3.6,1.9,7.7,2.8,12.3,2.8s8.8-.9,12.3-2.8c3.6-1.9,6.6-4.4,9-7.6,2.4-3.2,4.3-6.8,5.5-11,1.2-4.1,1.9-8.4,1.9-12.8s-.7-8.7-1.9-12.8c-1.2-4.1-3.1-7.8-5.5-11-2.4-3.2-5.4-5.7-9-7.6-3.6-1.9-7.7-2.8-12.3-2.8s-8.8.9-12.3,2.8c-3.6,1.9-6.6,4.4-9,7.6-2.4,3.2-4.3,6.8-5.5,11-1.2,4.1-1.9,8.4-1.9,12.8Z"/>
  <path class="st1" d="M334.6,142.3h5.5v16h.3c.9-2.8,2.3-5.3,4.1-7.5,1.8-2.2,3.8-4.1,6.2-5.6,2.4-1.5,4.9-2.7,7.8-3.5,2.8-.8,5.7-1.2,8.6-1.2,4.4,0,8.1.5,11.1,1.6,3,1.1,5.5,2.5,7.5,4.2,2,1.7,3.5,3.7,4.6,5.9,1.1,2.2,1.9,4.4,2.4,6.6.5,2.3.8,4.4.9,6.5,0,2.1.1,3.9.1,5.4v46.2h-5.5v-47.2c0-1.8-.1-4.1-.4-7-.3-2.8-1.2-5.5-2.5-8.1-1.4-2.5-3.6-4.8-6.4-6.6s-6.8-2.8-11.8-2.8-8.1.8-11.3,2.3c-3.3,1.5-6.1,3.7-8.4,6.5-2.3,2.8-4.1,6-5.3,9.9-1.2,3.8-1.8,8-1.8,12.6v40.4h-5.5v-74.6Z"/>
</svg>