<?xml version="1.0" encoding="UTF-8"?>
<svg id="Layer_1" xmlns="http://www.w3.org/2000/svg" version="1.1" viewBox="0 0 495 676.3">
  <!-- Generator: Adobe Illustrator 29.5.1, SVG Export Plug-In . SVG Version: 2.1.0 Build 141)  -->
  <defs>
    <style>
      .st0 {
        fill: #fff;
      }
    </style>
  </defs>
  <path class="st0" d="M239.7,657.2c-5.1,0-10.2-1-15-3.1-13.7-6-22.5-19.5-22.5-34.4V59.7c0-20.7,16.8-37.5,37.5-37.5s37.5,16.8,37.5,37.5v474.1l130-120.4c15.2-14.1,38.9-13.2,53,2s13.2,38.9-2,53l-192.9,178.8c-7.1,6.6-16.2,10-25.5,10h-.1Z"/>
  <path class="st0" d="M239.7,657.2c-9.3,0-18.7-3.5-25.9-10.4L24.3,465.7c-15-14.3-15.5-38.1-1.2-53,14.3-15,38.1-15.5,53-1.2l189.4,181.2c15,14.3,15.5,38.1,1.2,53-7.4,7.7-17.2,11.6-27.1,11.6h0Z"/>
</svg>