<?xml version="1.0" encoding="UTF-8"?>
<svg id="Layer_1" xmlns="http://www.w3.org/2000/svg" version="1.1" viewBox="0 0 1350 240">
  <!-- Generator: Adobe Illustrator 29.5.0, SVG Export Plug-In . SVG Version: 2.1.0 Build 137)  -->
  <defs>
    <style>
      .st0 {
        fill: #5000ff;
      }

      .st1 {
        fill: #fff;
      }
    </style>
  </defs>
  <path class="st0" d="M73.3,72h10.3v28.3h.5c1.1-4.3,3-8.4,5.7-12.3,2.7-3.9,5.9-7.3,9.9-10.1,3.9-2.8,8.2-5.1,13-6.8,4.7-1.6,9.7-2.4,15-2.4s12.4.8,17.3,2.6c4.9,1.8,9,3.9,12.4,6.8s6.1,5.9,8.1,9.5c2,3.5,3.4,7,4.1,10.7h.5c4.2-9.7,9.7-17,16.6-22,6.9-5,16.1-7.4,27.4-7.4s12.1.9,17.4,2.8,9.9,4.7,13.8,8.6c3.9,3.9,6.9,8.8,9,14.7,2.2,5.9,3.2,13,3.2,21.1v94.8h-10.3v-95c0-8.8-1.3-15.8-4.1-20.8-2.7-5-5.9-8.9-9.6-11.5s-7.4-4.2-11.1-4.9c-3.6-.7-6.5-.9-8.5-.9-6.3,0-12.2,1.1-17.4,3.2-5.3,2.2-9.9,5.4-13.8,9.7-3.9,4.3-6.9,9.7-9,16.1-2.2,6.3-3.2,13.8-3.2,22v82.1h-10.3v-95c0-8.6-1.3-15.5-3.9-20.7s-5.7-8.9-9.2-11.5c-3.5-2.6-7.2-4.2-10.8-4.9-3.6-.7-6.6-1.1-8.8-1.1-4.9,0-9.9.9-15.1,3s-10,5-14.3,9.2c-4.3,4.2-7.8,9.4-10.5,15.9-2.7,6.5-4,14.2-4,22.9v82.1h-10.3V72Z"/>
  <path class="st0" d="M380,183.2h-.5c-1.6,4.2-3.9,8.1-7,11.7s-6.8,7-11.2,9.9c-4.5,2.8-9.5,5.1-15,6.8s-11.7,2.4-18.4,2.4c-14.7,0-26.2-3.2-34.3-9.6s-12.1-16.2-12.1-29.6,1.6-14.7,4.9-19.8c3.2-5.1,7.3-9.2,12.3-12.1s10.4-5.1,16.5-6.3c6.1-1.2,11.9-2.2,17.4-2.7l15.9-1.4c7.4-.5,13.2-1.3,17.4-2.6,4.2-1.2,7.4-2.8,9.6-4.9s3.5-4.7,4-8c.5-3.2.8-7.3.8-12.2s-.7-7.3-2.2-10.5c-1.5-3.2-3.6-6.1-6.8-8.6-3.1-2.6-7-4.5-11.9-5.9-4.9-1.5-10.8-2.2-17.8-2.2-12.4,0-22.4,3.1-30.1,9.2-7.7,6.1-11.9,15.4-12.6,27.8h-10.3c.7-15.3,5.7-26.7,14.7-34.4,9-7.7,22-11.5,38.7-11.5s28.9,3.2,36.6,9.9,11.5,15.1,11.5,25.8v80.7c0,2,0,3.9.1,5.9,0,2,.4,3.8.9,5.4.5,1.6,1.5,3,2.7,3.9,1.2.9,3.1,1.5,5.4,1.5s4.3-.3,7.6-.8v8.6c-2.7.7-5.5,1.1-8.4,1.1-4.2,0-7.4-.5-9.9-1.6-2.4-1.1-4.3-2.6-5.5-4.3-1.2-1.8-2.2-3.9-2.6-6.3-.4-2.4-.7-5.1-.7-8v-7.3ZM380,131.9c-2.6,3.1-6.3,5.1-11.5,6.2-5.1,1.1-10.8,1.9-17.1,2.4l-17.3,1.6c-5,.5-10.1,1.4-15.1,2.3-5,.9-9.6,2.7-13.6,5-4,2.3-7.3,5.5-9.9,9.6-2.6,4.1-3.8,9.3-3.8,15.8,0,10.3,3.2,17.8,9.7,22.8,6.5,5,15.4,7.4,26.7,7.4s20.9-2.2,27.8-6.3,12-9,15.7-14.6,5.9-10.8,6.9-15.9c.9-5.1,1.5-8.6,1.5-10.4v-25.9Z"/>
  <path class="st0" d="M433.2,102.7h.8c1.2-4.5,3.5-8.8,6.9-12.7s7.4-7.4,12.1-10.3c4.7-2.8,10.1-5.1,15.9-6.6,5.8-1.5,11.9-2.2,18.2-2v10.3c-5.4-.7-11.6-.1-18.5,1.6-6.9,1.8-13.5,5.8-19.8,11.9-2.6,2.7-4.7,5.3-6.6,7.8-1.9,2.6-3.5,5.3-4.7,8.4-1.2,3.1-2.3,6.5-3,10.3s-1.2,8.2-1.4,13.5v75.9h-10.3V72h10.3v30.8Z"/>
  <path class="st0" d="M498.6,18h10.3v127.7l85.6-73.7h14.8l-60.8,51.8,65.1,86.9h-14l-59.1-79.1-31.6,26.7v52.4h-10.3V18Z"/>
  <path class="st1" d="M627.9,164.6c.4,6.5,1.8,12.1,4.3,17.1,2.6,5,5.8,9.2,9.9,12.7,4,3.5,8.8,6.2,14.2,8,5.4,1.8,11.2,2.7,17.5,2.7s9.3-.4,14.4-1.2c5.1-.8,9.9-2.3,14.3-4.5,4.5-2.2,8.1-5.1,10.9-9,2.8-3.9,4.3-8.8,4.3-14.7s-2.3-13.6-7-17.5c-4.7-3.9-10.5-7-17.7-9.2-7.2-2.2-14.7-3.9-23-5.3s-15.8-3.4-23-6.1c-7.2-2.7-13-6.5-17.7-11.5-4.7-5-7-12.1-7-21.7s1.5-12.6,4.6-17.1c3.1-4.6,7-8.2,11.7-10.9,4.7-2.7,10.1-4.6,16.1-5.8,5.9-1.2,11.9-1.8,17.8-1.8s13.9.8,20.2,2.4c6.3,1.6,11.7,4.2,16.3,7.8,4.6,3.6,8.2,8.2,10.8,13.8,2.6,5.5,3.9,12.3,3.9,20.2h-10.3c0-6.3-1.1-11.7-3.1-16.2-2-4.5-5-8.1-8.6-10.9s-8.1-4.9-13.1-6.2c-5-1.3-10.4-2-16.2-2s-9.5.4-14.2,1.3c-4.7.9-9,2.4-12.8,4.6-3.8,2.2-6.9,5-9.3,8.4s-3.6,7.6-3.6,12.4,1.3,10.1,4,13.5,6.2,6.2,10.7,8.2c4.5,2,9.3,3.8,14.8,5,5.5,1.2,11.1,2.6,16.6,3.8,6.9,1.2,13.2,2.7,19.3,4.5,6.1,1.8,11.2,4,15.7,7s7.8,6.8,10.4,11.5c2.6,4.7,3.8,10.7,3.8,17.8s-1.8,13.8-5.1,18.6-7.7,8.8-13,11.7c-5.3,3-11.1,5-17.4,6.2-6.3,1.2-12.7,1.8-18.8,1.8s-15.3-1.1-22-3.1c-6.8-2-12.7-5.3-17.7-9.4-5-4.2-9-9.4-11.9-15.5-2.8-6.1-4.5-13.2-4.6-21.3h10.3Z"/>
  <path class="st1" d="M756.7,142.7v1.6c0,8.1,1.1,15.8,3.2,23.2,2.2,7.4,5.4,13.9,9.6,19.4,4.2,5.5,9.6,10,15.9,13.2,6.3,3.2,13.9,4.9,22.3,4.9,13.9,0,24.8-3.6,33.1-10.9,8.1-7.3,13.8-17.4,16.7-30.4h10.3c-3.1,16.2-9.7,28.6-19.8,37.3s-23.6,13-40.4,13-19.2-1.9-26.9-5.5-14-8.8-19.2-15.1c-5.1-6.3-8.9-13.9-11.5-22.7s-3.8-18.1-3.8-28.2,1.3-19,3.9-27.9c2.6-8.9,6.5-16.7,11.7-23.5s11.7-12.2,19.6-16.2c7.8-4.1,17-6.1,27.7-6.1s18.4,1.8,25.8,5.4c7.4,3.6,13.8,8.5,18.8,14.7s8.9,13.4,11.5,21.6,3.9,17,3.9,26.3,0,1.9-.1,3.1v2.8h-112.3ZM858.7,133.8c-.4-7.6-1.6-14.7-3.8-21.5-2.2-6.8-5.4-12.7-9.6-17.8s-9.5-9.2-15.4-12.3c-6.1-3.1-13-4.6-20.7-4.6s-15.7,1.6-21.9,4.7c-6.3,3.1-11.6,7.3-15.9,12.4-4.3,5.1-7.7,11.1-10,18-2.3,6.9-3.8,13.9-4.3,21.1h101.8-.3Z"/>
  <path class="st1" d="M927.6,137.8l-50.8-65.9h14.3l43.5,58.1,43.7-58.1h13.2l-50.2,65.9,54.8,72.9h-14l-47.5-65.1-48.6,65.1h-13l54.5-72.9Z"/>
  <path class="st1" d="M1060.7,80.9h-30.2v96.9c0,5.5.7,10,1.9,13.2,1.2,3.2,3.2,5.7,5.8,7.4,2.6,1.8,5.8,2.7,9.4,3.1,3.6.4,8,.4,12.8.3v8.9c-5.3.4-10.3.3-15.2-.1-5-.4-9.3-1.8-13.1-4.1-3.8-2.3-6.8-5.7-9-10.1-2.3-4.5-3.2-10.7-2.8-18.6v-96.9h-25.6v-8.9h25.6V28.8h10.3v43.2h30.2v8.9Z"/>
  <path class="st1" d="M1069.2,141.3c0-9.9,1.4-19.2,4.2-27.9,2.8-8.8,6.9-16.5,12.3-23.1,5.4-6.6,12-11.9,20-15.8,8-3.9,17-5.8,27.3-5.8s19.3,1.9,27.3,5.8c8,3.9,14.6,9.2,20,15.8,5.4,6.6,9.4,14.3,12.3,23.1,2.8,8.8,4.2,18.1,4.2,27.9s-1.3,19.3-4.2,28.1c-2.8,8.8-6.9,16.5-12.3,23.1-5.4,6.6-12,11.7-20,15.7-8,3.9-17,5.8-27.3,5.8s-19.3-1.9-27.3-5.8c-8-3.9-14.6-9-20-15.7-5.4-6.6-9.5-14.3-12.3-23.1-2.8-8.8-4.2-18.2-4.2-28.1ZM1079.5,141.3c0,8.2,1.2,16.2,3.5,23.9,2.3,7.7,5.8,14.4,10.3,20.4,4.5,5.9,10.1,10.7,16.7,14.2,6.6,3.5,14.3,5.3,23,5.3s16.3-1.8,22.9-5.3c6.6-3.5,12.3-8.2,16.7-14.2,4.5-5.9,8-12.7,10.3-20.4,2.3-7.7,3.5-15.7,3.5-23.9s-1.2-16.2-3.5-23.9c-2.3-7.7-5.8-14.4-10.3-20.4-4.4-5.9-10.1-10.7-16.7-14.2-6.6-3.5-14.3-5.3-22.9-5.3s-16.3,1.8-23,5.3c-6.6,3.5-12.3,8.2-16.7,14.2-4.4,5.9-8,12.7-10.3,20.4-2.3,7.7-3.5,15.7-3.5,23.9Z"/>
  <path class="st1" d="M1220.7,72h10.3v29.7h.5c1.8-5.3,4.3-9.9,7.7-13.9,3.4-4.1,7.2-7.6,11.6-10.4,4.5-2.8,9.2-5,14.4-6.5,5.3-1.5,10.5-2.2,15.9-2.2,8.1,0,15,.9,20.7,3,5.7,2,10.3,4.6,13.9,7.8,3.6,3.2,6.5,6.9,8.5,10.9,2,4.1,3.5,8.1,4.5,12.3.9,4.2,1.5,8.1,1.6,12,.1,3.9.3,7.3.3,10.1v85.9h-10.3v-87.8c0-3.4-.3-7.7-.8-13s-2.2-10.3-4.7-15c-2.6-4.7-6.6-8.9-11.9-12.3-5.3-3.4-12.7-5.1-22-5.1s-15,1.5-21.1,4.3c-6.1,2.8-11.3,6.9-15.7,12-4.3,5.1-7.6,11.2-9.9,18.4-2.3,7.2-3.4,14.8-3.4,23.4v75.1h-10.3V72Z"/>
</svg>