<?xml version="1.0" encoding="UTF-8"?>
<svg id="Layer_1" xmlns="http://www.w3.org/2000/svg" version="1.1" viewBox="0 0 1000 1000">
  <!-- Generator: Adobe Illustrator 29.5.0, SVG Export Plug-In . SVG Version: 2.1.0 Build 137)  -->
  <defs>
    <style>
      .st0 {
        fill: #231f20;
      }
    </style>
  </defs>
  <path class="st0" d="M498.6,923c-.9,0-1.7,0-2.4-.3-.7-.2-1.4-.6-1.9-1.1-.5-.5-.9-1.1-1.2-1.8-.3-.7-.4-1.5-.5-2.4,0-.9.1-1.7.4-2.4.3-.7.7-1.3,1.2-1.8.5-.5,1.1-.9,1.9-1.2.7-.3,1.5-.4,2.4-.4h7c0-.1-.1-8.7-.1-8.7h1.9s.3,20,.3,20h-8.9ZM498.8,913.2c-1.3,0-2.4.4-3.2,1.1-.8.7-1.2,1.7-1.2,3.1,0,1.4.4,2.4,1.3,3.1.8.7,1.9,1,3.2,1h6.6c0-.1-.1-8.3-.1-8.3h-6.6Z"/>
  <path class="st0" d="M471,922c-.8,0-1.6-.2-2.3-.5-.7-.3-1.3-.6-1.9-1.1-.5-.5-.9-1-1.2-1.7-.3-.7-.4-1.5-.3-2.4,0-1.3.5-2.3,1.2-3.2.7-.9,1.7-1.4,3-1.6h0c-.6-.2-1.2-.4-1.6-.7-.4-.3-.7-.6-1-1-.2-.4-.4-.9-.5-1.4,0-.5-.1-1.1-.1-1.7,0-.3,0-.7,0-1.2,0-.5,0-1,0-1.5,0-.5,0-1-.2-1.4,0-.4-.2-.8-.4-1.1h2.1c.1.3.2.6.2.8,0,.3,0,.6,0,.8,0,.3,0,.6,0,.9,0,.3,0,.5,0,.7,0,.7,0,1.4,0,2.1s.2,1.3.4,1.9c.2.6.6,1,1.1,1.4s1.2.6,2.1.6l7.2.5.6-8.9h1.9c0,.1-1.3,20.1-1.3,20.1l-9.1-.6ZM471.7,912.5c-.6,0-1.1,0-1.7.2-.5.1-1,.4-1.4.7-.4.3-.8.7-1,1.2-.3.5-.4,1-.5,1.6,0,1.2.2,2.2.9,3,.7.8,1.7,1.2,3.2,1.3l7.1.5.5-7.9-7.1-.5Z"/>
  <path class="st0" d="M450.3,920.1l2.3-19.9,1.9.2-2.3,19.9-1.9-.2Z"/>
  <path class="st0" d="M435,918l-8.7-18.6h0s-2.8,16.7-2.8,16.7l-1.9-.3,3.3-19.7,2.1.4,8.7,18.6h0s2.8-16.7,2.8-16.7l1.9.3-3.3,19.7-2.1-.4Z"/>
  <path class="st0" d="M395.1,909.9l.4-1.6,6.8,1.6,4.2-17.9,1.9.4-4.2,17.9,6.8,1.6-.4,1.6-15.4-3.6Z"/>
  <path class="st0" d="M370.5,894.3c-.4.5-.9.9-1.5,1.2-.6.3-1.2.4-1.8.5-.7,0-1.3,0-2-.3-.7-.2-1.2-.6-1.7-1-.5-.4-.9-1-1.2-1.5s-.5-1.2-.5-1.8c0-.7,0-1.3.3-2,.2-.7.6-1.2,1-1.7.4-.5,1-.9,1.5-1.2.6-.3,1.2-.5,1.9-.5.7,0,1.3,0,2,.3.7.2,1.2.6,1.7,1,.5.4.9,1,1.1,1.5.3.6.4,1.2.5,1.9,0,.7,0,1.3-.3,2s-.6,1.2-1,1.7Z"/>
  <path class="st0" d="M328.2,886.7l1.4-18.7-13.6,13-2.5-1.2,8.4-18.1,1.7.8-7.3,15.7h0s13.5-12.8,13.5-12.8l1.6.8-1.3,18.4h0s7.3-15.6,7.3-15.6l1.7.8-8.4,18.1-2.5-1.2Z"/>
  <path class="st0" d="M304.8,868.6c-1,.9-2,1.6-3.2,2-1.2.5-2.4.6-3.7.6s-2.7-.5-4-1.3c-1.4-.8-2.4-1.7-3.2-2.8-.7-1.1-1.2-2.2-1.4-3.4-.2-1.2-.2-2.5,0-3.8s.7-2.5,1.4-3.7c.7-1.2,1.5-2.3,2.4-3.2,1-.9,2-1.6,3.2-2s2.4-.6,3.7-.6,2.6.5,4,1.3c1.4.8,2.4,1.7,3.2,2.8.8,1.1,1.2,2.2,1.5,3.4s.2,2.5,0,3.7c-.3,1.3-.7,2.5-1.4,3.7-.7,1.2-1.5,2.3-2.4,3.2ZM306.8,861.5c.3-1.1.3-2.1.2-3.1-.1-1-.5-2-1.1-2.9-.6-.9-1.5-1.7-2.6-2.3-1.2-.6-2.3-1-3.3-1-1.1,0-2.1.2-3,.6-.9.4-1.8,1-2.6,1.8s-1.4,1.6-1.9,2.6c-.5,1-.9,2-1.2,3-.3,1.1-.3,2.1-.2,3.1.1,1,.5,2,1.1,2.9.6.9,1.4,1.7,2.6,2.3,1.2.6,2.3,1,3.4,1,1.1,0,2.1-.2,3-.6.9-.4,1.8-1,2.5-1.8s1.4-1.6,1.9-2.6c.5-.9.9-1.9,1.2-3Z"/>
  <path class="st0" d="M263.9,851.1l.9-1.4,5.9,3.8,10-15.4,1.6,1-10,15.4,5.8,3.8-.9,1.4-13.3-8.6Z"/>
  <path class="st0" d="M253.3,843.6l11.6-16.3,1.5,1.1-11.6,16.3-1.5-1.1Z"/>
  <path class="st0" d="M246.6,831.2c-1.1.7-2.2,1.2-3.5,1.5-1.2.3-2.5.2-3.7,0-1.3-.3-2.5-.9-3.8-1.9-1.2-1-2.1-2.1-2.7-3.2-.6-1.2-.8-2.4-.9-3.6,0-1.2.2-2.5.7-3.7s1.1-2.4,2-3.4c.9-1.1,1.8-2,2.9-2.7s2.2-1.2,3.4-1.5,2.4-.2,3.7,0c1.3.3,2.5.9,3.7,1.9,1.2,1,2.1,2.1,2.7,3.2.6,1.2.9,2.4.9,3.6,0,1.2-.2,2.5-.7,3.7-.5,1.2-1.1,2.4-2,3.5-.9,1.1-1.8,2-2.9,2.7ZM249.7,824.5c.4-1,.7-2,.7-3,0-1-.1-2-.6-3-.4-1-1.2-1.9-2.2-2.7-1-.8-2.1-1.3-3.1-1.5s-2.1-.2-3.1.1-1.9.7-2.8,1.4c-.9.6-1.7,1.4-2.3,2.2-.7.9-1.2,1.8-1.7,2.8s-.7,2-.7,3c0,1,.1,2,.6,3,.4,1,1.1,1.9,2.2,2.7,1,.8,2.1,1.3,3.1,1.5,1.1.2,2.1.2,3.1-.1,1-.3,1.9-.7,2.8-1.4.9-.6,1.7-1.4,2.4-2.2.7-.8,1.2-1.8,1.7-2.8Z"/>
  <path class="st0" d="M217.6,815l2.9-20.3h0s-11.5,12.4-11.5,12.4l-1.4-1.3,13.5-14.7,1.6,1.4-2.9,20.3h0s11.5-12.4,11.5-12.4l1.4,1.3-13.5,14.7-1.6-1.4Z"/>
  <path class="st0" d="M181.3,778.1l9.8-19.1,1.3,1.5-3.1,5.9,6,6.8,6.3-2.3,1.3,1.5-20.3,7.2-1.4-1.6ZM188.7,768.1l-5.1,9.7,10.3-3.8-5.2-5.9Z"/>
  <path class="st0" d="M167.8,761.9l6.3-19.5h0s-13.4,10.3-13.4,10.3l-1.2-1.5,15.9-12.2,1.3,1.7-6.3,19.5h0s13.4-10.3,13.4-10.3l1.2,1.5-15.9,12.2-1.3-1.7Z"/>
  <path class="st0" d="M147.9,734.4c-1.6-2.6-2.2-5-1.7-7.1.5-2.2,2.1-4.2,4.9-6,2.8-1.8,5.3-2.6,7.5-2.2,2.2.4,4.2,1.8,5.9,4.3l3.8,5.8-16.7,11.1-3.8-5.8ZM163.7,725c-.8-1.2-1.6-2.1-2.4-2.8-.8-.7-1.7-1.1-2.6-1.3-.9-.2-1.9-.1-3,.2-1.1.3-2.2.9-3.5,1.7s-2.2,1.7-2.9,2.5c-.7.9-1.2,1.7-1.3,2.7-.2.9-.1,1.9.2,2.9s.9,2.1,1.7,3.3l2.2,3.4,13.9-9.3-2.2-3.4Z"/>
  <path class="st0" d="M124.3,694.4l14.1-16.2.9,1.8-4.4,5,4.2,8.1,6.6-.7.9,1.8-21.4,2.1-1-1.9ZM133.8,686.4l-7.3,8.2,10.9-1.2-3.6-7Z"/>
  <path class="st0" d="M115,675.4l10.8-17.5h0c0,0-15.5,6.8-15.5,6.8l-.8-1.7,18.3-8,.9,1.9-10.8,17.5h0c0,0,15.5-6.8,15.5-6.8l.8,1.7-18.3,8-.9-1.9Z"/>
  <path class="st0" d="M103.9,648.7l18.7-7.1.7,1.8-18.7,7.1-.7-1.8Z"/>
  <path class="st0" d="M98.5,633.5l14.7-11.6-18.8-1.3-.8-2.7,19.1-6,.6,1.8-16.5,5.2h0c0,0,18.5,1.4,18.5,1.4l.5,1.7-14.5,11.5h0c0,0,16.5-5.1,16.5-5.1l.6,1.8-19.1,6-.8-2.7Z"/>
  <path class="st0" d="M88.3,597.2l17.6-12.3.5,2-5.5,3.8,2.1,8.9,6.6.9.5,2-21.3-3.2-.5-2.1ZM99.5,591.8l-9.1,6.1,10.9,1.5-1.8-7.7Z"/>
  <path class="st0" d="M82.3,567.1l1.6-.3,1.2,6.9,18.1-3.2.3,1.9-18.1,3.2,1.2,6.8-1.6.3-2.8-15.6Z"/>
  <path class="st0" d="M80.5,554.2l19.8-2.6.2,1.9-19.8,2.6-.2-1.9Z"/>
  <path class="st0" d="M85,540.9c-1.3-.3-2.4-.8-3.4-1.5-1-.7-1.9-1.6-2.5-2.8-.7-1.1-1-2.5-1.2-4.1s0-3,.5-4.2c.5-1.2,1.2-2.3,2.1-3.1s2-1.5,3.2-2c1.2-.5,2.5-.8,3.9-.9,1.4-.1,2.7,0,4,.3,1.3.3,2.4.8,3.4,1.5,1,.7,1.8,1.6,2.5,2.8.7,1.1,1,2.5,1.2,4s0,3-.5,4.2c-.5,1.2-1.2,2.3-2.1,3.1-.9.9-1.9,1.5-3.2,2-1.2.5-2.5.8-3.9.9-1.4.1-2.7,0-4-.3ZM92,538.6c1-.4,1.9-.9,2.7-1.6.8-.7,1.4-1.5,1.8-2.5s.6-2.1.5-3.5c-.1-1.3-.4-2.4-1-3.3-.6-.9-1.3-1.6-2.2-2.2-.9-.5-1.8-.9-2.9-1.1-1.1-.2-2.1-.3-3.2-.2-1.1,0-2.2.3-3.2.7s-1.9.9-2.7,1.6c-.8.7-1.4,1.5-1.8,2.5-.4,1-.6,2.1-.5,3.4.1,1.3.4,2.4,1,3.3.6.9,1.3,1.6,2.2,2.2.9.5,1.8.9,2.9,1.1,1.1.2,2.1.3,3.2.2,1.1,0,2.1-.3,3.2-.7Z"/>
  <path class="st0" d="M77.1,508.8l16.7-11.9h0c0,0-16.9.2-16.9.2v-1.9s20-.3,20-.3v2.1s-16.7,11.9-16.7,11.9h0c0,0,16.9-.2,16.9-.2v1.9s-20,.3-20,.3v-2.1Z"/>
  <path class="st0" d="M86.5,465.3c-.6-.3-1.1-.7-1.5-1.2-.4-.5-.7-1-.9-1.7-.2-.6-.3-1.3-.2-2,0-.7.3-1.3.6-1.9.3-.6.7-1.1,1.2-1.5.5-.4,1-.7,1.7-.9.6-.2,1.3-.3,2-.2.7,0,1.3.3,1.9.6.6.3,1.1.7,1.5,1.2.4.5.7,1.1.9,1.7s.3,1.3.2,2c0,.7-.3,1.3-.6,1.9s-.7,1.1-1.2,1.5c-.5.4-1.1.7-1.7.9s-1.3.3-2,.2c-.7,0-1.3-.3-1.9-.6Z"/>
  <path class="st0" d="M106.2,413.7l-3.6-.5h0c.6.5,1.1,1,1.6,1.6.4.6.7,1.2.9,1.9.2.6.3,1.3.3,2,0,.7,0,1.4-.2,2.1-.3,1.5-.9,2.8-1.6,3.9-.8,1.1-1.7,1.9-2.8,2.5-1.1.6-2.3.9-3.6,1.1-1.3.1-2.6,0-4-.2-1.4-.3-2.6-.7-3.8-1.3-1.1-.6-2.1-1.4-2.9-2.4s-1.3-2.1-1.7-3.3c-.3-1.3-.3-2.7,0-4.2.2-1,.5-2,1-2.8.5-.9,1-1.6,1.7-2.2.7-.6,1.5-1.1,2.4-1.4.9-.3,1.9-.5,3-.5l-.4,1.9c-.6,0-1.2,0-1.8.2-.6.2-1.3.5-1.8,1s-1.1,1-1.6,1.7-.8,1.5-1,2.4c-.3,1.3-.2,2.5,0,3.5.3,1,.8,1.9,1.5,2.7.7.8,1.5,1.4,2.5,1.9,1,.5,2,.8,3.1,1.1,1.1.2,2.1.3,3.2.2,1.1,0,2.1-.3,3-.8.9-.4,1.7-1.1,2.4-1.9.7-.8,1.1-1.9,1.4-3.2.2-1.1.2-2.1,0-3s-.5-1.7-1.1-2.5c-.5-.7-1.2-1.3-2-1.8-.8-.5-1.8-.8-2.8-1l-1.3,6.7-1.6-.3,1.7-8.3,10,2-.3,1.3Z"/>
  <path class="st0" d="M93.5,382.3l1.6.4-3.1,11.5,7,1.9,2.9-10.8,1.6.4-2.9,10.8,7.6,2.1,3.1-11.6,1.6.4-3.6,13.5-19.3-5.2,3.6-13.3Z"/>
  <path class="st0" d="M97.8,368.7l19.8-5.6h0c0,0-16-5.5-16-5.5l.6-1.8,18.9,6.5-.7,2-19.8,5.6h0c0,0,16,5.5,16,5.5l-.6,1.8-18.9-6.5.7-2Z"/>
  <path class="st0" d="M116.9,320.6l21.4,1.3-.9,1.9-6.7-.4-3.8,8.2,4.6,4.8-.9,1.8-14.7-15.7.9-1.9ZM129,323.2l-10.9-.8,7.6,8,3.3-7.1Z"/>
  <path class="st0" d="M126.2,301.9l17.7,9.3-.9,1.7-17.7-9.3.9-1.7Z"/>
  <path class="st0" d="M148.2,279.9c-.4-.5-.6-1.1-.8-1.8s-.1-1.3,0-1.9c.1-.7.3-1.3.7-1.8.4-.6.8-1.1,1.4-1.4.5-.4,1.1-.6,1.8-.8.6-.1,1.3-.2,1.9,0,.7.1,1.3.3,1.8.7.6.4,1.1.8,1.4,1.4.4.5.6,1.1.8,1.8.1.6.2,1.3,0,1.9-.1.7-.3,1.3-.7,1.8-.4.6-.8,1.1-1.4,1.4-.5.4-1.1.6-1.8.7-.6.1-1.3.1-1.9,0s-1.3-.3-1.8-.7c-.6-.4-1.1-.8-1.4-1.4Z"/>
  <path class="st0" d="M163.9,243.1l18.1,6h0s-10-16.2-10-16.2l1.2-1.6,11.1,18.2-1.4,1.7-20.3-6.6,1.2-1.6Z"/>
  <path class="st0" d="M181.7,221.5l15.1,13.1-1.3,1.4-15.1-13.1,1.3-1.4Z"/>
  <path class="st0" d="M195.4,206.6c2.2-2.1,4.4-3.2,6.6-3.2,2.2,0,4.6,1.2,7,3.5,2.4,2.3,3.6,4.6,3.7,6.8.1,2.2-.9,4.5-2.9,6.7l-4.8,5-14.4-13.9,4.8-5ZM207.9,220c1-1,1.7-2,2.2-3s.7-1.9.7-2.9c0-1-.3-1.9-.8-2.9-.5-1-1.4-2-2.4-3-1.1-1-2.1-1.8-3.1-2.3-1-.5-2-.8-2.9-.7-1,0-1.9.3-2.8.8-.9.5-1.9,1.3-2.9,2.3l-2.8,2.9,12,11.6,2.8-2.9Z"/>
  <path class="st0" d="M220.9,182.1l1.1,1.2-8.8,8,4.9,5.3,8.2-7.5,1.1,1.2-8.2,7.5,5.3,5.8,8.9-8.1,1.1,1.2-10.3,9.4-13.5-14.8,10.2-9.3Z"/>
  <path class="st0" d="M233.6,179.1c-.5-1.2-.7-2.5-.7-3.7,0-1.2.3-2.5.9-3.6.6-1.2,1.5-2.3,2.7-3.2,1.2-1,2.5-1.6,3.8-1.9,1.3-.3,2.5-.3,3.7,0,1.2.3,2.4.8,3.4,1.5s2.1,1.6,2.9,2.7c.9,1.1,1.5,2.2,2,3.5s.7,2.5.7,3.7c0,1.2-.3,2.4-.9,3.6-.6,1.2-1.5,2.3-2.7,3.2-1.2,1-2.5,1.6-3.8,1.9-1.3.3-2.5.3-3.7,0-1.2-.3-2.4-.8-3.4-1.5-1.1-.7-2.1-1.6-2.9-2.7-.9-1.1-1.5-2.2-2-3.5ZM239.4,183.6c.9.6,1.8,1.1,2.8,1.4,1,.3,2,.3,3.1.1,1.1-.2,2.1-.7,3.1-1.5,1-.8,1.8-1.7,2.2-2.7.4-1,.6-2,.6-3,0-1-.3-2-.7-3-.4-1-1-1.9-1.7-2.8-.7-.9-1.5-1.6-2.3-2.2-.9-.6-1.8-1.1-2.8-1.4-1-.3-2-.3-3.1-.1-1.1.2-2.1.7-3.1,1.5-1,.8-1.8,1.7-2.2,2.7-.4,1-.6,2-.6,3,0,1,.3,2,.7,3,.4,1,1,1.9,1.7,2.8.7.8,1.5,1.6,2.3,2.2Z"/>
  <path class="st0" d="M279.6,138.8l.9,1.4-10,6.4,3.9,6.1,9.4-6,.9,1.4-9.4,6,4.2,6.7,10.2-6.5.9,1.4-11.8,7.5-10.7-16.9,11.6-7.4Z"/>
  <path class="st0" d="M296.1,129.3c2.7-1.4,5.1-1.8,7.3-1.1,2.1.7,4,2.5,5.6,5.4,1.6,2.9,2.1,5.5,1.6,7.6-.6,2.2-2.2,4-4.8,5.6l-6.1,3.3-9.6-17.5,6.1-3.3ZM304.2,145.9c1.3-.7,2.3-1.4,3-2.2.8-.8,1.3-1.6,1.5-2.5.3-.9.3-1.9,0-3-.2-1.1-.7-2.3-1.4-3.6-.7-1.3-1.5-2.4-2.3-3.1-.8-.8-1.6-1.3-2.6-1.6-.9-.3-1.9-.3-3,0-1.1.2-2.2.7-3.5,1.4l-3.6,2,8.1,14.7,3.6-2Z"/>
  <path class="st0" d="M317,118.5l8.7,18-1.7.8-8.7-18,1.7-.8Z"/>
  <path class="st0" d="M341.7,107.6l.6,1.5-6.4,2.7,7.2,16.9-1.8.7-7.2-16.9-6.4,2.7-.6-1.5,14.6-6.2Z"/>
  <path class="st0" d="M353.9,102.9l6.9,18.7-1.8.7-6.9-18.7,1.8-.7Z"/>
  <path class="st0" d="M368.5,97.8l16.2,12.7h0s-5-16.2-5-16.2l1.8-.6,5.9,19.1-2,.6-16.2-12.7h0s5,16.2,5,16.2l-1.8.6-5.9-19.1,2-.6Z"/>
  <path class="st0" d="M414.4,106.1l-1.1-3.5h0c-.2.8-.4,1.5-.8,2.1-.4.6-.8,1.1-1.3,1.6s-1.1.8-1.7,1.1-1.3.5-2,.7c-1.5.4-2.9.4-4.2.1-1.3-.3-2.4-.8-3.4-1.5-1-.7-1.8-1.7-2.5-2.8-.7-1.1-1.2-2.4-1.5-3.7-.3-1.3-.4-2.7-.3-4,0-1.3.4-2.5,1-3.6.5-1.1,1.3-2.1,2.3-2.9,1-.8,2.3-1.4,3.8-1.8,1-.2,2-.3,3-.3,1,0,1.9.3,2.7.7s1.6.9,2.3,1.6c.7.7,1.2,1.5,1.7,2.6l-1.9.4c-.2-.6-.5-1.1-1-1.6-.5-.5-1-.9-1.7-1.3-.6-.3-1.4-.6-2.2-.7-.8-.1-1.7,0-2.6.1-1.3.3-2.3.8-3.2,1.5s-1.4,1.5-1.8,2.5c-.4.9-.6,2-.7,3,0,1.1,0,2.2.3,3.2.2,1.1.6,2.1,1.2,3,.5,1,1.2,1.8,2,2.4s1.7,1.1,2.7,1.4c1,.3,2.2.3,3.5,0,1.1-.3,2-.7,2.8-1.2s1.4-1.2,1.8-2,.7-1.6.8-2.6c0-.9,0-1.9-.3-3l-6.6,1.6-.4-1.6,8.3-1.9,2.3,9.9-1.3.3Z"/>
  <path class="st0" d="M441.9,89.1c.2-.6.5-1.2.9-1.7.4-.5.9-.9,1.4-1.3.6-.3,1.2-.5,1.9-.6.7,0,1.3,0,2,.1.6.2,1.2.5,1.7.9.5.4.9.9,1.3,1.4.3.6.5,1.2.6,1.9,0,.7,0,1.3-.1,2-.2.6-.5,1.2-.9,1.7-.4.5-.9.9-1.4,1.3-.6.3-1.2.5-1.9.6-.7,0-1.3,0-2-.1-.6-.2-1.2-.5-1.7-.9s-.9-.9-1.3-1.4c-.3-.6-.5-1.2-.6-1.9,0-.7,0-1.3.1-2Z"/>
  <path class="st0" d="M482.1,77.4l.3,12.4c0,1.2.2,2.1.5,2.9.3.8.7,1.5,1.2,2,.5.5,1.1.9,1.9,1.1.7.2,1.6.3,2.5.3.9,0,1.8-.2,2.5-.4.7-.3,1.3-.6,1.8-1.2.5-.5.9-1.2,1.1-2s.3-1.8.3-3l-.3-12.4h1.9c0,0,.4,12.7.4,12.7,0,1,0,2-.4,2.9s-.7,1.8-1.3,2.5c-.6.7-1.4,1.3-2.4,1.7-1,.4-2.2.7-3.6.7-1.4,0-2.6-.1-3.6-.5-1-.4-1.8-.9-2.5-1.6-.6-.7-1.1-1.5-1.4-2.4s-.5-1.9-.5-2.9l-.4-12.8h1.9Z"/>
  <path class="st0" d="M509.2,77.1l5.4,8.6,6.1-8.2h2.1c0,0-7.2,9.6-7.2,9.6l6.9,10.5h-2.3c0,0-5.8-9.1-5.8-9.1l-6.5,8.6h-2.1c0,0,7.5-10.1,7.5-10.1l-6.4-9.9h2.2Z"/>
  <path class="st0" d="M540.4,78.5h1.4c0,.1-10.3,20.1-10.3,20.1h-1.5c0-.1,10.4-20.1,10.4-20.1Z"/>
  <path class="st0" d="M554.3,80.4l-1.7,12.3c-.2,1.1-.2,2.1,0,3,.1.8.4,1.6.9,2.1.4.6,1,1,1.7,1.4.7.3,1.5.6,2.4.7.9.1,1.8.1,2.5,0,.8-.1,1.4-.4,2-.8.6-.4,1-1,1.4-1.8s.6-1.7.8-2.9l1.7-12.3,1.9.3-1.8,12.7c-.1,1-.4,2-.8,2.8-.4.9-1,1.6-1.7,2.2-.7.6-1.6,1-2.6,1.3-1,.3-2.2.3-3.6,0-1.4-.2-2.5-.6-3.4-1.1-.9-.5-1.6-1.2-2.2-2-.5-.8-.9-1.6-1-2.6s-.2-1.9,0-3l1.8-12.7,1.9.3Z"/>
  <path class="st0" d="M582.6,85.1l-3.8,19.6-1.9-.4,3.8-19.6,1.9.4Z"/>
  <path class="st0" d="M618.6,93.9c2.9.9,4.9,2.4,5.9,4.4,1,2,1.1,4.6.1,7.8-.9,3.2-2.4,5.3-4.3,6.5s-4.4,1.3-7.3.5l-6.6-1.9,5.6-19.2,6.6,1.9ZM612.6,111.3c1.4.4,2.6.6,3.7.6s2-.2,2.9-.7c.8-.5,1.6-1.1,2.2-2.1.6-.9,1.1-2.1,1.5-3.5.4-1.4.6-2.7.6-3.8s-.2-2.1-.7-2.9c-.5-.8-1.1-1.5-2-2.1-.9-.6-2.1-1.1-3.4-1.5l-3.9-1.1-4.7,16.1,3.9,1.1Z"/>
  <path class="st0" d="M652.2,105.2l-.6,1.5-11.2-4.1-2.5,6.8,10.5,3.8-.6,1.5-10.5-3.8-2.7,7.4,11.3,4.1-.6,1.5-13.1-4.8,6.9-18.8,13,4.7Z"/>
  <path class="st0" d="M658.3,124.9c0,.8.2,1.5.6,2.1.4.6.9,1.2,1.6,1.6.7.5,1.4.9,2.3,1.3.5.2,1,.4,1.7.5.6.1,1.2.1,1.9,0s1.2-.3,1.7-.6c.5-.3.9-.8,1.2-1.5.2-.5.3-1,.2-1.5,0-.5-.2-.9-.5-1.3s-.6-.8-.9-1.2c-.4-.4-.8-.7-1.1-1l-3.6-2.8c-.5-.4-.9-.8-1.3-1.2s-.7-.9-1-1.4c-.2-.5-.3-1.1-.4-1.7,0-.6.1-1.3.5-2,.2-.4.5-.9.9-1.5.4-.5,1-.9,1.7-1.3.7-.3,1.5-.5,2.5-.5,1,0,2.1.3,3.4.8.9.4,1.7.9,2.4,1.5.7.6,1.3,1.3,1.7,2,.4.7.6,1.6.7,2.4s-.1,1.8-.5,2.7l-1.7-.8c.3-.7.4-1.4.3-2,0-.6-.2-1.2-.5-1.8-.3-.5-.7-1-1.2-1.5-.5-.4-1.1-.8-1.7-1.1-.6-.3-1.2-.5-1.8-.6-.6-.1-1.2-.1-1.7,0-.5,0-1,.3-1.5.7s-.8.9-1.1,1.5c-.2.4-.3.8-.3,1.2,0,.4,0,.7.2,1.1.2.3.4.6.6.9.3.3.6.5.9.8l4,3.1c.6.5,1.1.9,1.6,1.4.5.5.8,1,1.1,1.6.3.6.4,1.2.4,1.8,0,.6-.1,1.3-.5,2.1,0,.2-.2.5-.4.8s-.5.6-.8,1c-.3.3-.7.6-1.2.9-.5.3-1,.4-1.7.5-.7,0-1.4,0-2.3,0-.9-.1-1.8-.4-2.9-.9-1.1-.5-2-1-2.8-1.7-.8-.7-1.4-1.4-1.9-2.2-.4-.8-.6-1.7-.6-2.6,0-1,.3-2,.8-3.1l1.7.8c-.4.9-.6,1.8-.6,2.6Z"/>
  <path class="st0" d="M689.7,121.9l-8.9,17.9-1.7-.9,8.9-17.9,1.7.9Z"/>
  <path class="st0" d="M705.4,153.1l1.6-3.3h0c-.6.4-1.3.7-2,1-.7.2-1.4.3-2,.3-.7,0-1.4-.1-2-.3-.7-.2-1.3-.5-1.9-.9-1.4-.8-2.4-1.7-3.2-2.8-.7-1.1-1.2-2.2-1.4-3.4-.2-1.2-.2-2.5.1-3.7.3-1.3.8-2.5,1.4-3.7.7-1.2,1.5-2.2,2.5-3.1,1-.9,2-1.6,3.2-2,1.2-.4,2.4-.6,3.7-.5,1.3,0,2.6.5,4,1.3.9.5,1.7,1.1,2.4,1.8s1.2,1.5,1.5,2.3c.4.8.5,1.8.6,2.7,0,1-.1,2-.5,3l-1.7-.9c.2-.5.4-1.1.4-1.8,0-.7-.1-1.4-.3-2.1-.2-.7-.6-1.4-1.1-2-.5-.6-1.2-1.2-2-1.7-1.2-.7-2.3-1-3.3-1-1.1,0-2.1.2-3,.6-.9.4-1.8,1-2.6,1.8-.8.8-1.4,1.6-2,2.6-.5.9-.9,1.9-1.2,3-.3,1.1-.3,2.1-.2,3.1.1,1,.5,2,1,2.9.6.9,1.4,1.7,2.6,2.3,1,.5,1.9.9,2.8,1s1.8,0,2.7-.2c.8-.3,1.6-.7,2.3-1.4.7-.6,1.3-1.4,1.8-2.3l-5.9-3.4.8-1.4,7.4,4.2-5,8.8-1.2-.7Z"/>
  <path class="st0" d="M729.3,144.5l.3,20.5h0s9.4-14,9.4-14l1.6,1.1-11.1,16.6-1.8-1.2-.3-20.5h0s-9.4,14-9.4,14l-1.6-1.1,11.1-16.6,1.8,1.2Z"/>
  <path class="st0" d="M760,176.6c.6-.3,1.2-.5,1.8-.5s1.3,0,1.9.2c.6.2,1.2.5,1.8.9.5.4,1,1,1.3,1.5.3.6.5,1.2.6,1.8,0,.6,0,1.3-.2,1.9-.2.6-.5,1.2-.9,1.8-.4.5-1,1-1.5,1.3-.6.3-1.2.5-1.8.5-.6,0-1.3,0-1.9-.2-.6-.2-1.2-.5-1.8-.9-.5-.4-1-1-1.3-1.5-.3-.6-.5-1.2-.5-1.8,0-.6,0-1.3.2-1.9s.5-1.2.9-1.8c.4-.5,1-1,1.5-1.3Z"/>
  <path class="st0" d="M804.6,206.4l-1.1,1.1-8.4-8.4-5.1,5.1,7.9,7.9-1.1,1.1-7.9-7.9-5.6,5.6,8.5,8.5-1.1,1.1-9.9-9.9,14.1-14.1,9.8,9.8Z"/>
  <path class="st0" d="M814.3,216.9l-5,19.9h0s12.7-11.1,12.7-11.1l1.3,1.4-15,13.2-1.4-1.6,5-19.9h0s-12.7,11.1-12.7,11.1l-1.3-1.4,15-13.2,1.4,1.6Z"/>
  <path class="st0" d="M831.6,237.3l-10.2,16.1h0s18.1-5.8,18.1-5.8l1.2,1.6-20.4,6.3-1.3-1.8,11.3-18,1.2,1.6Z"/>
  <path class="st0" d="M848.2,259.8l-16.4,11.4-1.1-1.6,16.4-11.4,1.1,1.6Z"/>
  <path class="st0" d="M860.5,278.7c.4.7.8,1.4,1,2.1.2.7.3,1.4.2,2.1,0,.7-.3,1.3-.7,2-.4.6-1,1.2-1.7,1.6-1.1.7-2.2,1-3.3.9-1.1,0-2.2-.6-3.1-1.5h0c.3.6.4,1.2.4,1.7,0,.5,0,1-.3,1.4-.2.4-.5.8-.8,1.2s-.8.7-1.3,1.1c-.3.2-.6.4-1,.7s-.8.6-1.2.9-.7.6-1,1c-.3.3-.5.7-.6,1l-1.1-1.8c0-.2.2-.4.4-.6s.4-.4.6-.6c.2-.2.5-.3.7-.5.2-.2.4-.3.6-.4.6-.4,1.1-.8,1.7-1.3.5-.4,1-.9,1.3-1.4s.5-1.1.5-1.7c0-.6-.2-1.3-.7-2l-3.8-6.1-7.5,4.7-1-1.6,17-10.5,4.8,7.8ZM852.4,283.6c.3.5.7.9,1.1,1.3.4.4.9.6,1.4.8.5.2,1,.2,1.5.2.5,0,1.1-.2,1.6-.6,1-.6,1.7-1.5,1.9-2.4s0-2.1-.8-3.3l-3.8-6-6.7,4.2,3.8,6Z"/>
  <path class="st0" d="M864.6,297.4c1.3-.2,2.5-.2,3.8,0,1.2.2,2.4.8,3.4,1.5,1.1.8,2,1.9,2.7,3.3s1.1,2.7,1.2,4c0,1.3-.2,2.5-.7,3.7-.5,1.1-1.2,2.2-2.1,3.1-.9.9-2,1.7-3.2,2.4-1.2.6-2.5,1.1-3.8,1.3-1.3.2-2.5.2-3.7,0s-2.3-.8-3.4-1.5c-1.1-.8-1.9-1.9-2.7-3.2-.7-1.4-1.1-2.7-1.2-4,0-1.3.2-2.5.6-3.7.5-1.1,1.2-2.2,2.1-3.1s2-1.7,3.2-2.4c1.2-.6,2.5-1.1,3.8-1.3ZM859.1,302.3c-.8.7-1.4,1.6-1.9,2.5-.5.9-.7,1.9-.7,3s.3,2.2.9,3.4,1.4,2.1,2.3,2.7c.9.6,1.8,1,2.9,1.1s2.1.1,3.1-.1c1.1-.2,2.1-.6,3-1.1,1-.5,1.9-1.1,2.6-1.9.8-.7,1.4-1.6,1.9-2.5.5-.9.7-1.9.7-3,0-1.1-.3-2.2-.9-3.4-.6-1.2-1.4-2.1-2.3-2.7-.9-.6-1.8-1-2.9-1.1-1-.1-2.1-.1-3.1.1-1.1.2-2.1.6-3,1.1-1,.5-1.8,1.1-2.6,1.9Z"/>
  <path class="st0" d="M884.7,323.9l-10.8,17.5h0c0,0,15.5-6.8,15.5-6.8l.8,1.7-18.3,8.1-.9-1.9,10.8-17.5h0c0,0-15.5,6.8-15.5,6.8l-.8-1.7,18.3-8.1.9,1.9Z"/>
  <path class="st0" d="M896.2,351.4l-14.3,12.1,18.8.6.9,2.6-18.8,6.7-.6-1.8,16.3-5.8h0c0,0-18.6-.7-18.6-.7l-.6-1.7,14.1-12h0c0,0-16.3,5.8-16.3,5.8l-.6-1.8,18.8-6.7.9,2.6Z"/>
  <path class="st0" d="M909.3,392.9l-1.6.4-3.2-11.5-7,1.9,3,10.7-1.6.4-3-10.7-7.6,2.1,3.2,11.6-1.6.4-3.8-13.4,19.3-5.4,3.7,13.3Z"/>
  <path class="st0" d="M912.7,406.8l-14.1,14.9h0c0,0,16.5-3.4,16.5-3.4l.4,1.9-19.6,4.1-.4-2.1,14.1-14.9h0c0,0-16.5,3.4-16.5,3.4l-.4-1.9,19.6-4.1.4,2.1Z"/>
  <path class="st0" d="M919.7,446.8l-1.6.2-1-6.9-18.2,2.6-.3-1.9,18.2-2.6-1-6.9,1.6-.2,2.3,15.7Z"/>
  <path class="st0" d="M921.5,464l-19.2,9.5-.2-2,6-3-.8-9.1-6.4-1.9-.2-2,20.6,6.3.2,2.1ZM909.6,467.7l9.9-4.7-10.6-3.1.7,7.8Z"/>
  <path class="st0" d="M922.7,484.8l-18.4.5.3,11.2h-1.6s-.4-13.1-.4-13.1l20-.5v1.9Z"/>
  <path class="st0" d="M921.8,532l-20.5,6.4v-2c.1,0,6.5-2,6.5-2l.7-9.1-6-2.8v-2c.1,0,19.5,9.5,19.5,9.5l-.2,2.1ZM909.5,533.8l10.5-3.1-9.9-4.7-.6,7.8Z"/>
  <path class="st0" d="M919.7,553l-18.4,9.2h0c0,0,16.8,2.4,16.8,2.4l-.3,1.9-19.8-2.8.3-2.1,18.4-9.2h0c0,0-16.8-2.4-16.8-2.4l.3-1.9,19.8,2.8-.3,2.1Z"/>
  <path class="st0" d="M914.1,586.5c-.7,3-2,5-3.9,6.2-1.9,1.2-4.5,1.4-7.8.7-3.3-.7-5.5-1.9-6.8-3.8-1.3-1.8-1.6-4.3-1.1-7.3l1.4-6.8,19.6,4.1-1.4,6.8ZM896.3,581.8c-.3,1.4-.4,2.6-.3,3.7s.4,2,.9,2.8c.5.8,1.3,1.5,2.2,2,1,.5,2.2.9,3.7,1.3,1.5.3,2.7.4,3.9.3,1.1,0,2.1-.4,2.9-.9.8-.5,1.5-1.3,2-2.2.5-1,.9-2.1,1.2-3.5l.8-4-16.4-3.4-.8,4Z"/>
  <path class="st0" d="M902.5,630.4c-1,2.9-2.5,4.8-4.6,5.7-2,1-4.6.9-7.8-.1s-5.3-2.5-6.4-4.5c-1.1-2-1.2-4.4-.3-7.3l2.1-6.6,19,6.2-2.1,6.6ZM885.3,623.8c-.4,1.4-.7,2.6-.7,3.7,0,1.1.2,2,.6,2.9.4.8,1.1,1.6,2,2.2.9.6,2.1,1.2,3.5,1.6,1.4.5,2.7.7,3.8.7,1.1,0,2.1-.2,2.9-.6.8-.4,1.6-1.1,2.2-2s1.1-2,1.6-3.4l1.3-3.9-15.9-5.2-1.3,3.9Z"/>
  <path class="st0" d="M894.6,652.5l-18.7-7.2.7-1.8,18.7,7.2-.7,1.8Z"/>
  <path class="st0" d="M874.5,659.7c-.8,0-1.5.2-2.1.6s-1.2.9-1.7,1.5-.9,1.4-1.3,2.2c-.2.5-.4,1-.5,1.7-.1.6-.1,1.2,0,1.9,0,.6.3,1.2.6,1.7.3.5.8.9,1.5,1.2.5.2,1,.3,1.5.2.5,0,.9-.2,1.3-.5.4-.3.8-.6,1.2-.9.4-.4.7-.7,1-1.1l2.8-3.6c.4-.5.8-.9,1.2-1.3.4-.4.9-.7,1.4-1,.5-.2,1.1-.3,1.7-.4.6,0,1.3.1,2,.5.4.2.9.5,1.4.9.5.4.9,1,1.3,1.7.3.7.5,1.5.5,2.5,0,1-.3,2.1-.8,3.4-.4.9-.9,1.7-1.5,2.4-.6.7-1.3,1.3-2,1.7-.8.4-1.6.6-2.4.7-.9,0-1.8-.1-2.7-.5l.8-1.7c.7.3,1.4.4,2,.3.6,0,1.2-.2,1.8-.5.5-.3,1-.7,1.5-1.2.4-.5.8-1.1,1.1-1.7.3-.6.5-1.2.6-1.8.1-.6.1-1.2,0-1.7,0-.5-.3-1-.7-1.5-.3-.5-.9-.8-1.5-1.1-.4-.2-.8-.3-1.2-.3-.4,0-.7,0-1.1.2-.3.2-.6.4-.9.6-.3.3-.6.6-.8.9l-3.1,4c-.5.6-.9,1.1-1.4,1.6-.5.5-1,.8-1.6,1.1-.6.3-1.2.4-1.8.4-.6,0-1.3-.1-2.1-.5-.2,0-.5-.2-.8-.4-.3-.2-.6-.5-1-.8-.3-.3-.6-.7-.9-1.2s-.4-1-.5-1.7c0-.7,0-1.4,0-2.3.1-.9.5-1.8.9-2.9.5-1.1,1-2,1.7-2.8.7-.8,1.4-1.4,2.2-1.9.8-.4,1.7-.6,2.6-.6s2,.3,3.1.8l-.8,1.7c-.9-.4-1.8-.6-2.5-.6Z"/>
  <path class="st0" d="M874.2,697.3c-.4.8-.9,1.5-1.5,2-.6.5-1.2.9-1.9,1.1-.7.2-1.4.3-2.2.2-.8,0-1.5-.3-2.3-.7-.8-.4-1.4-.9-1.9-1.5-.5-.6-.8-1.2-1-1.9-.2-.7-.2-1.4-.1-2.2.1-.8.4-1.5.8-2.3l3.2-6.2-7.6-4,.9-1.7,17.7,9.3-4.1,7.9ZM865.7,692.4c-.6,1.2-.8,2.3-.6,3.3.2,1,.9,1.9,2.2,2.5,1.2.6,2.3.8,3.3.3,1-.4,1.8-1.2,2.4-2.4l3-5.8-7.2-3.8-3,5.8Z"/>
  <path class="st0" d="M864.5,714.8l-15.7-9.5-5.8,9.6-1.4-.8,6.8-11.2,17.1,10.3-1,1.6Z"/>
  <path class="st0" d="M848.1,740.4l-20.9-4.9,1.2-1.7,6.5,1.5,5.2-7.5-3.8-5.5,1.1-1.7,11.9,18-1.2,1.8ZM836.5,735.7l10.6,2.6-6.2-9.1-4.5,6.5Z"/>
  <path class="st0" d="M839.6,752.3l-1.4,1.8-12-1,4,11.4-1.4,1.8-4.4-13.5-6.5-5,1.2-1.5,6.5,5,14.1,1Z"/>
  <path class="st0" d="M804.4,782c.3.6.4,1.2.4,1.9,0,.6,0,1.3-.3,1.9s-.6,1.2-1.1,1.7c-.5.5-1,.9-1.6,1.1-.6.3-1.2.4-1.9.4-.6,0-1.3,0-1.9-.3s-1.2-.6-1.7-1.1c-.5-.5-.9-1-1.1-1.6-.3-.6-.4-1.2-.4-1.9,0-.6,0-1.3.3-1.9.2-.6.6-1.2,1.1-1.7.5-.5,1-.9,1.6-1.1.6-.3,1.2-.4,1.9-.4s1.3,0,1.9.3c.6.2,1.2.6,1.7,1.1.5.5.9,1,1.1,1.6Z"/>
  <path class="st0" d="M775.3,821.1c-.7.6-1.4,1-2.1,1.3-.7.3-1.4.4-2.2.4-.7,0-1.4-.2-2.1-.6-.7-.4-1.3-.9-1.9-1.5-.6-.7-1-1.4-1.3-2.1-.3-.7-.3-1.4-.3-2.2,0-.7.3-1.4.7-2.1.4-.7.9-1.3,1.6-1.9l5.3-4.6-5.6-6.5,1.4-1.2,13.1,15.1-6.7,5.8ZM769.2,813.4c-1,.9-1.6,1.8-1.8,2.9s.2,2.1,1.1,3.1,1.9,1.6,2.9,1.5,2.1-.5,3.1-1.3l5-4.3-5.4-6.2-5,4.3Z"/>
  <path class="st0" d="M756.7,836.2l-18.4-11.1,1.6-1.2,5.7,3.4,7.2-5.5-1.9-6.4,1.6-1.2,5.8,20.7-1.7,1.3ZM747.1,828.2l9.3,5.8-3.1-10.6-6.2,4.8Z"/>
  <path class="st0" d="M727.6,851.9c.7.3,1.3.5,2,.5.7,0,1.4,0,2-.2.7-.2,1.3-.5,1.9-.9,1.1-.7,1.9-1.6,2.4-2.5.5-.9.8-1.9.8-3,0-1-.1-2.1-.4-3.1-.3-1-.8-2-1.4-2.9-.6-.9-1.3-1.7-2.1-2.4-.8-.7-1.7-1.3-2.7-1.6-1-.4-2-.5-3.1-.4s-2.2.5-3.3,1.3c-.8.5-1.4,1.1-1.8,1.8-.4.7-.7,1.4-.8,2.2-.1.8-.1,1.6,0,2.4.2.8.4,1.6.9,2.4l-1.6,1.1c-.6-1.1-1-2.2-1.1-3.3-.2-1.1-.2-2.1,0-3.1s.6-1.9,1.2-2.7c.6-.8,1.4-1.6,2.4-2.2,1.3-.9,2.6-1.4,3.9-1.6,1.3-.2,2.5-.1,3.7.3s2.3.9,3.3,1.8c1,.8,1.9,1.8,2.7,3s1.3,2.4,1.7,3.6c.4,1.3.5,2.5.4,3.7-.1,1.2-.5,2.4-1.2,3.6-.7,1.1-1.7,2.1-3,3-.8.5-1.6.9-2.5,1.2s-1.8.4-2.7.3c-.9,0-1.8-.3-2.7-.7s-1.6-1-2.3-1.8l1.6-1.1c.6.5,1.2,1,1.8,1.3Z"/>
  <path class="st0" d="M715.2,864.2l-5.4-9.3-4.7,15.1-2.2,1.3,3.6-11.6-14-5.5,2.1-1.2,12.4,4.9,1.6-5-3.4-5.9,1.7-1,10,17.3-1.7,1Z"/>
  <path class="st0" d="M685.6,880.2l-15.9-14.5,1.8-.9,4.9,4.5,8.2-4-.6-6.6,1.8-.9,1.6,21.5-1.9.9ZM677.8,870.5l8,7.5-.9-11-7.1,3.5Z"/>
  <path class="st0" d="M646.2,875.7l1.6,3.3h0c0-.8.2-1.5.5-2.2.3-.7.6-1.3,1-1.8.4-.5.9-1,1.5-1.4.6-.4,1.2-.7,1.9-1,1.5-.6,2.8-.9,4.1-.8s2.5.4,3.6,1,2,1.4,2.9,2.4c.8,1,1.5,2.2,2,3.4.5,1.3.8,2.6,1,3.9s0,2.6-.4,3.7c-.4,1.2-1,2.3-1.9,3.2-.9,1-2,1.8-3.5,2.4-1,.4-1.9.6-2.9.7s-1.9,0-2.8-.2c-.9-.2-1.7-.6-2.5-1.2s-1.5-1.3-2.1-2.3l1.8-.7c.3.5.7,1,1.2,1.4s1.1.7,1.8,1c.7.2,1.5.4,2.3.4.8,0,1.7-.2,2.6-.6,1.2-.5,2.2-1.2,2.9-2,.7-.8,1.2-1.7,1.4-2.7.2-1,.3-2,.2-3.1-.1-1.1-.4-2.1-.8-3.1-.4-1-1-1.9-1.6-2.8-.7-.9-1.4-1.6-2.3-2.1-.9-.5-1.9-.9-2.9-1s-2.2,0-3.4.6c-1,.4-1.9,1-2.5,1.6-.7.7-1.1,1.4-1.5,2.2-.3.8-.4,1.7-.4,2.7,0,.9.3,1.9.7,2.9l6.3-2.6.6,1.5-7.8,3.2-3.9-9.4,1.3-.5Z"/>
  <path class="st0" d="M638.4,899.8l-6.6-18.9,1.8-.6,6.6,18.9-1.8.6Z"/>
  <path class="st0" d="M623.8,904.6l-15.9-13h0s4.7,16.3,4.7,16.3l-1.8.5-5.6-19.2,2-.6,15.9,13h0s-4.7-16.3-4.7-16.3l1.8-.5,5.6,19.2-2,.6Z"/>
  <path class="st0" d="M578.1,895.5l1,3.5h0c.2-.8.5-1.5.8-2.1.4-.6.8-1.1,1.3-1.6.5-.4,1.1-.8,1.7-1.1.6-.3,1.3-.5,2-.7,1.5-.3,2.9-.3,4.2,0,1.3.3,2.4.8,3.4,1.6s1.8,1.7,2.4,2.9c.6,1.1,1.1,2.4,1.4,3.7s.4,2.7.3,4c-.1,1.3-.5,2.5-1,3.6-.6,1.1-1.4,2.1-2.4,2.9-1,.8-2.3,1.4-3.9,1.7-1,.2-2,.3-3,.2-1,0-1.9-.3-2.7-.7-.8-.4-1.6-.9-2.2-1.6-.7-.7-1.2-1.6-1.6-2.6l1.9-.4c.2.6.5,1.1.9,1.6.4.5,1,.9,1.6,1.3.6.4,1.4.6,2.2.7.8.1,1.7.1,2.6,0,1.3-.3,2.4-.8,3.2-1.5s1.4-1.5,1.9-2.4.7-2,.7-3c0-1.1,0-2.2-.3-3.2-.2-1.1-.6-2.1-1.1-3-.5-1-1.1-1.8-1.9-2.5-.8-.7-1.7-1.2-2.7-1.5-1-.3-2.2-.3-3.5,0-1.1.2-2,.6-2.8,1.2-.8.5-1.4,1.2-1.8,2-.4.8-.7,1.6-.8,2.6-.1.9,0,1.9.2,3l6.7-1.4.3,1.6-8.3,1.8-2.1-9.9,1.3-.3Z"/>
  <path class="st0" d="M550.2,911.9c-.2.6-.5,1.2-.9,1.7s-.9.9-1.5,1.2c-.6.3-1.2.5-1.9.6-.7,0-1.3,0-2-.2-.6-.2-1.2-.5-1.7-.9-.5-.4-.9-.9-1.2-1.5-.3-.6-.5-1.2-.6-1.9s0-1.3.2-2c.2-.6.5-1.2.9-1.7.4-.5.9-.9,1.5-1.2.6-.3,1.2-.5,1.9-.6s1.3,0,2,.2c.6.2,1.2.5,1.7.9.5.4.9.9,1.2,1.5.3.6.5,1.2.6,1.9s0,1.3-.2,2Z"/>
</svg>