<svg width="1350" height="240" viewBox="0 0 1350 240" fill="none" xmlns="http://www.w3.org/2000/svg">
<path d="M73.3051 71.955H83.5651V100.305H84.1051C85.1851 95.985 87.0751 91.935 89.7751 88.02C92.4751 84.105 95.7151 80.73 99.6301 77.895C103.545 75.06 107.865 72.765 112.59 71.145C117.315 69.525 122.31 68.715 127.575 68.715C132.84 68.715 139.995 69.525 144.855 71.28C149.715 73.035 153.9 75.195 157.275 78.03C160.65 80.865 163.35 83.97 165.375 87.48C167.4 90.99 168.75 94.5 169.425 98.145H169.965C174.15 88.425 179.685 81.135 186.57 76.14C193.455 71.145 202.635 68.715 213.975 68.715C225.315 68.715 226.125 69.66 231.39 71.55C236.655 73.44 241.245 76.275 245.16 80.19C249.075 84.105 252.045 88.965 254.205 94.905C256.365 100.845 257.445 107.865 257.445 115.965V210.735H247.185V115.695C247.185 106.92 245.835 99.9 243.135 94.905C240.435 89.91 237.195 85.995 233.55 83.43C229.905 80.865 226.125 79.245 222.48 78.57C218.835 77.895 216 77.625 213.975 77.625C207.63 77.625 201.825 78.705 196.56 80.865C191.295 83.025 186.705 86.265 182.79 90.585C178.875 94.905 175.905 100.305 173.745 106.65C171.585 112.995 170.505 120.42 170.505 128.655V210.735H160.245V115.695C160.245 107.055 158.895 100.17 156.33 95.04C153.765 89.91 150.66 86.13 147.15 83.565C143.64 81 139.995 79.38 136.35 78.705C132.705 78.03 129.735 77.625 127.575 77.625C122.715 77.625 117.72 78.57 112.455 80.595C107.19 82.62 102.465 85.59 98.145 89.775C93.825 93.96 90.3151 99.225 87.6151 105.705C84.9151 112.185 83.5651 119.88 83.5651 128.655V210.735H73.3051V71.955Z" fill="#402E8F"/>
<path d="M380.025 183.195H379.485C377.865 187.38 375.57 191.295 372.465 194.94C369.36 198.585 365.715 201.96 361.26 204.795C356.805 207.63 351.81 209.925 346.275 211.545C340.74 213.165 334.53 213.975 327.915 213.975C313.2 213.975 301.725 210.735 293.625 204.39C285.525 198.045 281.475 188.19 281.475 174.825C281.475 161.46 283.095 160.11 286.335 154.98C289.575 149.85 293.625 145.8 298.62 142.83C303.615 139.86 309.015 137.7 315.09 136.485C321.165 135.27 326.97 134.325 332.505 133.785L348.435 132.435C355.86 131.895 361.665 131.085 365.85 129.87C370.035 128.655 373.275 127.035 375.435 125.01C377.595 122.985 378.945 120.285 379.485 117.045C380.025 113.805 380.295 109.755 380.295 104.895C380.295 100.035 379.62 97.605 378.135 94.365C376.65 91.125 374.49 88.29 371.385 85.725C368.28 83.16 364.365 81.27 359.505 79.785C354.645 78.3 348.705 77.625 341.685 77.625C329.265 77.625 319.275 80.73 311.58 86.805C303.885 92.88 299.7 102.195 299.025 114.615H288.765C289.44 99.36 294.435 87.885 303.48 80.19C312.525 72.495 325.485 68.715 342.225 68.715C358.965 68.715 371.115 71.955 378.81 78.57C386.505 85.185 390.285 93.69 390.285 104.355V185.085C390.285 187.11 390.285 189 390.42 191.025C390.42 193.05 390.825 194.805 391.365 196.425C391.905 198.045 392.85 199.395 394.065 200.34C395.28 201.285 397.17 201.825 399.465 201.825C401.76 201.825 403.785 201.555 407.025 201.015V209.655C404.325 210.33 401.49 210.735 398.655 210.735C394.47 210.735 391.23 210.195 388.8 209.115C386.37 208.035 384.48 206.55 383.265 204.795C382.05 203.04 381.105 200.88 380.7 198.45C380.295 196.02 380.025 193.32 380.025 190.485V183.195ZM380.025 131.895C377.46 135 373.68 137.025 368.55 138.105C363.42 139.185 357.75 139.995 351.405 140.535L334.125 142.155C329.13 142.695 324 143.505 319.005 144.45C314.01 145.395 309.42 147.15 305.37 149.445C301.32 151.74 298.08 154.98 295.515 159.03C292.95 163.08 291.735 168.345 291.735 174.825C291.735 185.085 294.975 192.645 301.455 197.64C307.935 202.635 316.845 205.065 328.185 205.065C339.525 205.065 349.11 202.905 355.995 198.72C362.88 194.535 368.01 189.675 371.655 184.14C375.3 178.605 377.595 173.34 378.54 168.21C379.485 163.08 380.025 159.57 380.025 157.815V131.895Z" fill="#402E8F"/>
<path d="M433.215 102.735H434.025C435.24 98.28 437.535 93.96 440.91 90.045C444.285 86.13 448.335 82.62 453.06 79.785C457.785 76.95 463.185 74.655 468.99 73.17C474.795 71.685 480.87 71.01 487.215 71.145V81.405C481.815 80.73 475.605 81.27 468.72 83.025C461.835 84.78 455.22 88.83 448.875 94.905C446.31 97.605 444.15 100.17 442.26 102.735C440.37 105.3 438.75 108 437.535 111.105C436.32 114.21 435.24 117.585 434.565 121.365C433.89 125.145 433.35 129.6 433.215 134.865V210.735H422.955V71.955H433.215V102.735Z" fill="#402E8F"/>
<path d="M498.555 17.955H508.815V145.665L594.405 71.955H609.255L548.505 123.795L613.575 210.735H599.535L540.405 131.625L508.815 158.355V210.735H498.555V17.955Z" fill="#402E8F"/>
<path d="M627.885 164.565C628.29 171.045 629.64 176.715 632.205 181.71C634.77 186.705 638.01 190.89 642.06 194.4C646.11 197.91 650.835 200.61 656.235 202.365C661.635 204.12 667.44 205.065 673.785 205.065C680.13 205.065 683.1 204.66 688.23 203.85C693.36 203.04 698.085 201.555 702.54 199.395C706.995 197.235 710.64 194.265 713.475 190.35C716.31 186.435 717.795 181.575 717.795 175.635C717.795 169.695 715.5 162 710.775 158.085C706.05 154.17 700.245 151.065 693.09 148.905C685.935 146.745 678.375 144.99 670.14 143.64C661.905 142.29 654.345 140.265 647.19 137.565C640.035 134.865 634.23 131.085 629.505 126.09C624.78 121.095 622.485 113.94 622.485 104.355C622.485 94.77 623.97 91.8 627.075 87.21C630.18 82.62 634.095 78.975 638.82 76.275C643.545 73.575 648.945 71.685 654.885 70.47C660.825 69.255 666.765 68.715 672.705 68.715C678.645 68.715 686.61 69.525 692.955 71.145C699.3 72.765 704.7 75.33 709.29 78.975C713.88 82.62 717.525 87.21 720.09 92.745C722.655 98.28 724.005 105.03 724.005 112.995H713.745C713.745 106.65 712.665 101.25 710.64 96.795C708.615 92.34 705.645 88.695 702 85.86C698.355 83.025 693.9 81 688.905 79.65C683.91 78.3 678.51 77.625 672.705 77.625C666.9 77.625 663.255 78.03 658.53 78.975C653.805 79.92 649.485 81.405 645.705 83.565C641.925 85.725 638.82 88.56 636.39 91.935C633.96 95.31 632.745 99.495 632.745 104.355C632.745 109.215 634.095 114.48 636.795 117.855C639.495 121.23 643.005 124.065 647.46 126.09C651.915 128.115 656.775 129.87 662.31 131.085C667.845 132.3 673.38 133.65 678.915 134.865C685.8 136.08 692.145 137.565 698.22 139.32C704.295 141.075 709.425 143.37 713.88 146.34C718.335 149.31 721.71 153.09 724.275 157.815C726.84 162.54 728.055 168.48 728.055 175.635C728.055 182.79 726.3 189.405 722.925 194.265C719.55 199.125 715.23 203.04 709.965 206.01C704.7 208.98 698.895 211.005 692.55 212.22C686.205 213.435 679.86 213.975 673.785 213.975C667.71 213.975 658.53 212.895 651.78 210.87C645.03 208.845 639.09 205.605 634.095 201.42C629.1 197.235 625.05 191.97 622.215 185.895C619.38 179.82 617.76 172.665 617.625 164.565H627.885Z" fill="white"/>
<path d="M756.675 142.695V144.315C756.675 152.415 757.755 160.11 759.915 167.535C762.075 174.96 765.315 181.44 769.5 186.975C773.685 192.51 779.085 196.965 785.43 200.205C791.775 203.445 799.335 205.065 807.705 205.065C821.61 205.065 832.545 201.42 840.78 194.13C848.88 186.84 854.55 176.715 857.52 163.755H867.78C864.675 179.955 858.06 192.375 847.935 201.015C837.81 209.655 824.31 213.975 807.57 213.975C790.83 213.975 788.4 212.085 780.705 208.44C773.01 204.795 766.665 199.665 761.535 193.32C756.405 186.975 752.625 179.415 750.06 170.64C747.495 161.865 746.28 152.55 746.28 142.425C746.28 132.3 747.63 123.39 750.195 114.48C752.76 105.57 756.675 97.74 761.94 90.99C767.205 84.24 773.685 78.84 781.515 74.79C789.345 70.74 798.525 68.715 809.19 68.715C819.855 68.715 827.55 70.47 834.975 74.115C842.4 77.76 848.745 82.62 853.74 88.83C858.735 95.04 862.65 102.195 865.215 110.43C867.78 118.665 869.13 127.44 869.13 136.755C869.13 146.07 869.13 138.645 868.995 139.86C868.995 141.075 868.995 142.02 868.995 142.695H756.675ZM858.735 133.785C858.33 126.225 857.115 119.07 854.955 112.32C852.795 105.57 849.555 99.63 845.37 94.5C841.185 89.37 835.92 85.32 829.98 82.215C823.905 79.11 817.02 77.625 809.325 77.625C801.63 77.625 793.665 79.245 787.455 82.35C781.11 85.455 775.845 89.64 771.525 94.77C767.205 99.9 763.83 105.84 761.535 112.725C759.24 119.61 757.755 126.63 757.215 133.785H859.005H858.735Z" fill="white"/>
<path d="M927.585 137.835L876.825 71.955H891.135L934.605 130.005L978.345 71.955H991.575L941.355 137.835L996.165 210.735H982.125L934.605 145.665L886.005 210.735H873.045L927.585 137.835Z" fill="white"/>
<path d="M1060.69 80.865H1030.45V177.795C1030.45 183.33 1031.13 187.785 1032.34 191.025C1033.56 194.265 1035.58 196.695 1038.15 198.45C1040.71 200.205 1043.95 201.15 1047.6 201.555C1051.24 201.96 1055.56 201.96 1060.42 201.825V210.735C1055.16 211.14 1050.16 211.005 1045.17 210.6C1040.17 210.195 1035.85 208.845 1032.07 206.55C1028.29 204.255 1025.32 200.88 1023.03 196.425C1020.73 191.97 1019.79 185.76 1020.19 177.795V80.865H994.545V71.955H1020.19V28.755H1030.45V71.955H1060.69V80.865Z" fill="white"/>
<path d="M1069.2 141.345C1069.2 131.49 1070.55 122.175 1073.39 113.4C1076.22 104.625 1080.27 96.93 1085.67 90.315C1091.07 83.7 1097.69 78.435 1105.65 74.52C1113.62 70.605 1122.66 68.715 1132.92 68.715C1143.18 68.715 1152.23 70.605 1160.19 74.52C1168.16 78.435 1174.77 83.7 1180.17 90.315C1185.57 96.93 1189.62 104.625 1192.46 113.4C1195.29 122.175 1196.64 131.49 1196.64 141.345C1196.64 151.2 1195.29 160.65 1192.46 169.425C1189.62 178.2 1185.57 185.895 1180.17 192.51C1174.77 199.125 1168.16 204.255 1160.19 208.17C1152.23 212.085 1143.18 213.975 1132.92 213.975C1122.66 213.975 1113.62 212.085 1105.65 208.17C1097.69 204.255 1091.07 199.125 1085.67 192.51C1080.27 185.895 1076.22 178.2 1073.39 169.425C1070.55 160.65 1069.2 151.2 1069.2 141.345ZM1079.46 141.345C1079.46 149.58 1080.68 157.545 1082.97 165.24C1085.27 172.935 1088.78 179.685 1093.23 185.625C1097.69 191.565 1103.36 196.29 1109.97 199.8C1116.59 203.31 1124.28 205.065 1132.92 205.065C1141.56 205.065 1149.26 203.31 1155.87 199.8C1162.49 196.29 1168.16 191.565 1172.61 185.625C1177.07 179.685 1180.58 172.935 1182.87 165.24C1185.17 157.545 1186.38 149.58 1186.38 141.345C1186.38 133.11 1185.17 125.145 1182.87 117.45C1180.58 109.755 1177.07 103.005 1172.61 97.065C1168.16 91.125 1162.49 86.4 1155.87 82.89C1149.26 79.38 1141.56 77.625 1132.92 77.625C1124.28 77.625 1116.59 79.38 1109.97 82.89C1103.36 86.4 1097.69 91.125 1093.23 97.065C1088.78 103.005 1085.27 109.755 1082.97 117.45C1080.68 125.145 1079.46 133.11 1079.46 141.345Z" fill="white"/>
<path d="M1220.67 71.955H1230.93V101.655H1231.47C1233.22 96.39 1235.79 91.8 1239.16 87.75C1242.54 83.7 1246.32 80.19 1250.77 77.355C1255.23 74.52 1259.95 72.36 1265.22 70.875C1270.48 69.39 1275.75 68.715 1281.15 68.715C1289.25 68.715 1296.13 69.66 1301.8 71.685C1307.47 73.71 1312.06 76.275 1315.71 79.515C1319.35 82.755 1322.19 86.4 1324.21 90.45C1326.24 94.5 1327.72 98.55 1328.67 102.735C1329.61 106.92 1330.15 110.835 1330.29 114.75C1330.42 118.665 1330.56 122.04 1330.56 124.875V210.735H1320.3V122.985C1320.3 119.61 1320.03 115.29 1319.49 110.025C1318.95 104.76 1317.33 99.765 1314.76 95.04C1312.2 90.315 1308.15 86.13 1302.88 82.755C1297.62 79.38 1290.19 77.625 1280.88 77.625C1271.56 77.625 1265.89 79.11 1259.82 81.945C1253.74 84.78 1248.48 88.83 1244.16 93.96C1239.84 99.09 1236.6 105.165 1234.3 112.32C1232.01 119.475 1230.93 127.17 1230.93 135.675V210.735H1220.67V71.955Z" fill="white"/>
</svg>
