<svg width="410" height="228" viewBox="0 0 410 228" fill="none" xmlns="http://www.w3.org/2000/svg">
<path d="M7.98511 38.4738H13.5021V53.7181H13.7925C14.3732 51.3952 15.3895 49.2174 16.8413 47.1123C18.2932 45.0071 20.0354 43.1923 22.1406 41.6679C24.2457 40.1434 26.5687 38.9094 29.1094 38.0383C31.6501 37.1671 34.336 36.7316 37.1671 36.7316C39.9982 36.7316 43.8456 37.1672 46.4589 38.1108C49.0722 39.0545 51.3226 40.216 53.1374 41.7405C54.9522 43.2649 56.404 44.9345 57.4929 46.8219C58.5818 48.7093 59.3077 50.5967 59.6707 52.5567H59.961C62.2114 47.33 65.1877 43.4101 68.8898 40.7242C72.592 38.0383 77.5283 36.7316 83.626 36.7316C89.7238 36.7316 90.1593 37.2397 92.9904 38.256C95.8215 39.2723 98.2896 40.7968 100.395 42.9019C102.5 45.0071 104.097 47.6204 105.258 50.8145C106.42 54.0085 107.001 57.7833 107.001 62.1388V113.098H101.484V61.9936C101.484 57.2752 100.758 53.5004 99.3059 50.8145C97.8541 48.1286 96.1119 46.0234 94.1519 44.6441C92.1919 43.2649 90.1593 42.3938 88.1993 42.0308C86.2394 41.6679 84.7149 41.5227 83.626 41.5227C80.2142 41.5227 77.0928 42.1034 74.2617 43.2649C71.4306 44.4264 68.9624 46.1686 66.8573 48.4915C64.7521 50.8145 63.1551 53.7181 61.9936 57.13C60.8321 60.5418 60.2514 64.5344 60.2514 68.9625V113.098H54.7344V61.9936C54.7344 57.3477 54.0085 53.6456 52.6292 50.8871C51.25 48.1286 49.5804 46.096 47.693 44.7167C45.8056 43.3375 43.8456 42.4664 41.8856 42.1034C39.9256 41.7405 38.3286 41.5227 37.1671 41.5227C34.5538 41.5227 31.8679 42.0308 29.0368 43.1197C26.2057 44.2086 23.665 45.8056 21.342 48.056C19.0191 50.3063 17.1317 53.1374 15.6799 56.6218C14.228 60.1062 13.5021 64.244 13.5021 68.9625V113.098H7.98511V38.4738Z" fill="#402E8F"/>
<path d="M172.914 98.2897H172.624C171.753 100.54 170.519 102.645 168.849 104.605C167.18 106.565 165.22 108.38 162.824 109.904C160.429 111.429 157.743 112.663 154.766 113.534C151.79 114.405 148.451 114.841 144.894 114.841C136.981 114.841 130.811 113.098 126.455 109.687C122.1 106.275 119.922 100.976 119.922 93.789C119.922 86.6024 120.793 85.8764 122.535 83.1179C124.278 80.3594 126.455 78.1817 129.141 76.5846C131.827 74.9876 134.731 73.8261 137.998 73.1728C141.264 72.5195 144.386 72.0113 147.362 71.721L155.928 70.9951C159.92 70.7047 163.042 70.2691 165.292 69.6158C167.543 68.9625 169.285 68.0914 170.446 67.0025C171.608 65.9136 172.334 64.4618 172.624 62.7196C172.914 60.9773 173.06 58.7996 173.06 56.1863C173.06 53.573 172.697 52.2663 171.898 50.5241C171.1 48.7819 169.938 47.2575 168.268 45.8782C166.599 44.499 164.494 43.4827 161.88 42.6841C159.267 41.8856 156.073 41.5227 152.298 41.5227C145.62 41.5227 140.248 43.1923 136.11 46.4589C131.972 49.7256 129.722 54.7344 129.359 61.4129H123.842C124.205 53.21 126.891 47.0397 131.755 42.9019C136.618 38.7642 143.587 36.7316 152.589 36.7316C161.59 36.7316 168.123 38.4738 172.261 42.0308C176.399 45.5878 178.431 50.1611 178.431 55.8959V99.306C178.431 100.395 178.431 101.411 178.504 102.5C178.504 103.589 178.722 104.533 179.012 105.404C179.302 106.275 179.811 107.001 180.464 107.509C181.117 108.017 182.134 108.307 183.368 108.307C184.602 108.307 185.691 108.162 187.433 107.872V112.518C185.981 112.881 184.456 113.098 182.932 113.098C180.682 113.098 178.939 112.808 177.633 112.227C176.326 111.647 175.31 110.848 174.657 109.904C174.003 108.961 173.495 107.799 173.277 106.493C173.06 105.186 172.914 103.734 172.914 102.21V98.2897ZM172.914 70.7047C171.535 72.3743 169.503 73.4632 166.744 74.0439C163.986 74.6247 160.937 75.0602 157.525 75.3506L148.233 76.2217C145.547 76.5121 142.789 76.9476 140.103 77.4558C137.417 77.9639 134.949 78.9076 132.771 80.1417C130.593 81.3757 128.851 83.1179 127.472 85.2957C126.092 87.4735 125.439 90.3046 125.439 93.789C125.439 99.306 127.181 103.371 130.666 106.057C134.15 108.743 138.941 110.05 145.039 110.05C151.137 110.05 156.291 108.888 159.993 106.638C163.695 104.387 166.454 101.774 168.414 98.7978C170.374 95.8215 171.608 92.9905 172.116 90.232C172.624 87.4735 172.914 85.5861 172.914 84.6424V70.7047Z" fill="#402E8F"/>
<path d="M201.516 55.0248H201.951C202.604 52.6293 203.838 50.3063 205.653 48.2011C207.468 46.096 209.646 44.2086 212.187 42.6841C214.727 41.1597 217.631 39.9256 220.752 39.1271C223.874 38.3286 227.141 37.9657 230.552 38.0382V43.5552C227.649 43.1923 224.309 43.4827 220.607 44.4264C216.905 45.3701 213.348 47.5478 209.936 50.8145C208.557 52.2663 207.396 53.6455 206.379 55.0248C205.363 56.404 204.492 57.8559 203.838 59.5255C203.185 61.1951 202.604 63.0099 202.241 65.0425C201.878 67.0751 201.588 69.4706 201.516 72.3017V113.098H195.999V38.4738H201.516V55.0248Z" fill="#402E8F"/>
<path d="M236.65 9.43698H242.167V78.1091L288.191 38.4738H296.176L263.509 66.3492L298.499 113.098H290.949L259.154 70.5595L242.167 84.9327V113.098H236.65V9.43698Z" fill="#402E8F"/>
<path d="M15.7523 192.079C15.9701 195.563 16.696 198.612 18.0753 201.298C19.4545 203.984 21.1968 206.234 23.3745 208.121C25.5523 210.009 28.093 211.461 30.9967 212.404C33.9004 213.348 37.0218 213.856 40.4337 213.856C43.8455 213.856 45.4425 213.638 48.201 213.203C50.9595 212.767 53.5002 211.969 55.8958 210.807C58.2913 209.646 60.2513 208.049 61.7757 205.944C63.3002 203.839 64.0987 201.225 64.0987 198.031C64.0987 194.837 62.8646 190.699 60.3239 188.594C57.7832 186.489 54.6617 184.819 50.8143 183.658C46.9669 182.496 42.9018 181.553 38.4737 180.827C34.0456 180.101 29.9804 179.012 26.133 177.56C22.2856 176.108 19.1642 174.076 16.6235 171.39C14.0827 168.704 12.8487 164.857 12.8487 159.703C12.8487 154.549 13.6472 152.952 15.3168 150.483C16.9864 148.015 19.0916 146.055 21.6323 144.603C24.173 143.152 27.0767 142.135 30.2708 141.482C33.4648 140.829 36.6589 140.538 39.8529 140.538C43.047 140.538 47.3299 140.974 50.7417 141.845C54.1535 142.716 57.0572 144.095 59.5254 146.055C61.9935 148.015 63.9535 150.483 65.3327 153.46C66.712 156.436 67.4379 160.066 67.4379 164.348H61.9209C61.9209 160.937 61.3402 158.033 60.2513 155.637C59.1624 153.242 57.5654 151.282 55.6054 149.757C53.6454 148.233 51.2499 147.144 48.564 146.418C45.8781 145.692 42.9744 145.329 39.8529 145.329C36.7315 145.329 34.7715 145.547 32.2307 146.055C29.69 146.563 27.3671 147.362 25.3345 148.523C23.3019 149.685 21.6323 151.209 20.3256 153.024C19.019 154.839 18.3657 157.089 18.3657 159.703C18.3657 162.316 19.0916 165.147 20.5434 166.962C21.9953 168.777 23.8827 170.301 26.2782 171.39C28.6737 172.479 31.2871 173.422 34.2633 174.076C37.2396 174.729 40.2159 175.455 43.1922 176.108C46.8943 176.762 50.3062 177.56 53.5728 178.504C56.8395 179.448 59.598 180.682 61.9935 182.279C64.389 183.876 66.2038 185.908 67.5831 188.449C68.9623 190.99 69.6157 194.184 69.6157 198.031C69.6157 201.879 68.672 205.436 66.8572 208.049C65.0424 210.662 62.7194 212.767 59.8883 214.364C57.0572 215.961 53.9358 217.05 50.5239 217.704C47.1121 218.357 43.7003 218.647 40.4337 218.647C37.167 218.647 32.2307 218.067 28.6011 216.978C24.9715 215.889 21.7775 214.147 19.0916 211.896C16.4057 209.646 14.2279 206.815 12.7035 203.548C11.179 200.282 10.3079 196.434 10.2354 192.079H15.7523Z" fill="white"/>
<path d="M85.0051 180.319V181.19C85.0051 185.545 85.5859 189.683 86.7473 193.676C87.9088 197.668 89.651 201.153 91.9014 204.129C94.1517 207.105 97.0554 209.501 100.467 211.243C103.879 212.985 107.944 213.856 112.445 213.856C119.922 213.856 125.802 211.896 130.23 207.976C134.586 204.056 137.634 198.612 139.231 191.643H144.748C143.079 200.354 139.522 207.033 134.077 211.678C128.633 216.324 121.374 218.647 112.372 218.647C103.371 218.647 102.064 217.631 97.9265 215.671C93.7888 213.711 90.3769 210.953 87.6184 207.541C84.8599 204.129 82.8274 200.064 81.4481 195.345C80.0689 190.627 79.4155 185.618 79.4155 180.174C79.4155 174.729 80.1414 169.938 81.5207 165.147C82.8999 160.356 85.0051 156.146 87.8362 152.516C90.6673 148.886 94.1517 145.983 98.3621 143.805C102.572 141.627 107.509 140.538 113.243 140.538C118.978 140.538 123.116 141.482 127.109 143.442C131.101 145.402 134.513 148.015 137.199 151.354C139.885 154.694 141.99 158.541 143.369 162.969C144.748 167.397 145.474 172.116 145.474 177.125C145.474 182.134 145.474 178.141 145.402 178.794C145.402 179.448 145.402 179.956 145.402 180.319H85.0051ZM139.885 175.528C139.667 171.462 139.014 167.615 137.852 163.986C136.691 160.356 134.948 157.162 132.698 154.403C130.448 151.645 127.617 149.467 124.423 147.797C121.156 146.128 117.454 145.329 113.316 145.329C109.178 145.329 104.895 146.2 101.556 147.87C98.1443 149.54 95.3132 151.79 92.9902 154.549C90.6673 157.307 88.8525 160.501 87.6184 164.203C86.3844 167.905 85.5859 171.68 85.2955 175.528H140.03H139.885Z" fill="white"/>
<path d="M176.907 177.705L149.612 142.28H157.307L180.682 173.495L204.201 142.28H211.315L184.311 177.705L213.784 216.905H206.234L180.682 181.916L154.548 216.905H147.58L176.907 177.705Z" fill="white"/>
<path d="M248.483 147.072H232.222V199.193C232.222 202.169 232.585 204.564 233.238 206.307C233.892 208.049 234.981 209.356 236.36 210.299C237.739 211.243 239.481 211.751 241.441 211.969C243.401 212.187 245.724 212.187 248.338 212.114V216.905C245.506 217.123 242.821 217.05 240.135 216.833C237.449 216.615 235.126 215.889 233.093 214.655C231.061 213.421 229.464 211.606 228.23 209.21C226.995 206.815 226.487 203.476 226.705 199.193V147.072H212.913V142.28H226.705V119.051H232.222V142.28H248.483V147.072Z" fill="white"/>
<path d="M253.128 179.593C253.128 174.294 253.854 169.285 255.379 164.566C256.903 159.848 259.081 155.71 261.985 152.153C264.888 148.596 268.445 145.765 272.728 143.66C277.011 141.555 281.875 140.538 287.392 140.538C292.909 140.538 297.773 141.555 302.055 143.66C306.338 145.765 309.895 148.596 312.799 152.153C315.703 155.71 317.881 159.848 319.405 164.566C320.929 169.285 321.655 174.294 321.655 179.593C321.655 184.892 320.929 189.973 319.405 194.692C317.881 199.41 315.703 203.548 312.799 207.105C309.895 210.662 306.338 213.421 302.055 215.526C297.773 217.631 292.909 218.647 287.392 218.647C281.875 218.647 277.011 217.631 272.728 215.526C268.445 213.421 264.888 210.662 261.985 207.105C259.081 203.548 256.903 199.41 255.379 194.692C253.854 189.973 253.128 184.892 253.128 179.593ZM258.645 179.593C258.645 184.021 259.299 188.304 260.533 192.442C261.767 196.579 263.654 200.209 266.05 203.403C268.445 206.597 271.494 209.138 275.051 211.025C278.608 212.913 282.746 213.856 287.392 213.856C292.038 213.856 296.176 212.913 299.733 211.025C303.29 209.138 306.338 206.597 308.734 203.403C311.129 200.209 313.017 196.579 314.251 192.442C315.485 188.304 316.138 184.021 316.138 179.593C316.138 175.165 315.485 170.882 314.251 166.744C313.017 162.606 311.129 158.977 308.734 155.783C306.338 152.589 303.29 150.048 299.733 148.16C296.176 146.273 292.038 145.329 287.392 145.329C282.746 145.329 278.608 146.273 275.051 148.16C271.494 150.048 268.445 152.589 266.05 155.783C263.654 158.977 261.767 162.606 260.533 166.744C259.299 170.882 258.645 175.165 258.645 179.593Z" fill="white"/>
<path d="M334.577 142.28H340.094V158.251H340.384C341.328 155.42 342.707 152.952 344.522 150.774C346.337 148.596 348.369 146.709 350.765 145.184C353.16 143.66 355.701 142.498 358.532 141.7C361.363 140.901 364.194 140.538 367.098 140.538C371.453 140.538 375.156 141.046 378.204 142.135C381.253 143.224 383.721 144.603 385.681 146.346C387.641 148.088 389.166 150.048 390.255 152.226C391.344 154.403 392.142 156.581 392.65 158.831C393.158 161.082 393.449 163.187 393.521 165.292C393.594 167.397 393.667 169.212 393.667 170.737V216.905H388.15V169.72C388.15 167.905 388.004 165.583 387.714 162.751C387.424 159.92 386.553 157.234 385.173 154.694C383.794 152.153 381.616 149.903 378.785 148.088C375.954 146.273 371.962 145.329 366.953 145.329C361.944 145.329 358.895 146.128 355.628 147.652C352.362 149.177 349.531 151.354 347.208 154.113C344.885 156.871 343.143 160.138 341.908 163.986C340.674 167.833 340.094 171.971 340.094 176.544V216.905H334.577V142.28Z" fill="white"/>
</svg>
