<svg width="390" height="394" viewBox="0 0 390 394" fill="none" xmlns="http://www.w3.org/2000/svg">
<rect width="390" height="393.679" rx="195" fill="white"/>
<path d="M192.489 335.461C191.807 335.461 191.218 335.337 190.66 335.12C190.133 334.903 189.668 334.624 189.265 334.221C188.893 333.849 188.583 333.384 188.397 332.826C188.211 332.299 188.118 331.679 188.118 330.997C188.118 330.315 188.273 329.726 188.49 329.199C188.707 328.672 189.017 328.238 189.42 327.866C189.823 327.494 190.288 327.246 190.846 327.06C191.404 326.874 192.024 326.812 192.675 326.843L197.914 326.998L198.1 320.55H199.526C199.526 320.581 199.092 335.647 199.092 335.647L192.427 335.461H192.489ZM193.016 328.114C192.024 328.114 191.218 328.3 190.567 328.796C189.947 329.292 189.606 330.036 189.575 331.09C189.575 332.144 189.823 332.919 190.443 333.446C191.032 333.973 191.838 334.252 192.83 334.283L197.759 334.438L197.945 328.3L193.016 328.145V328.114Z" fill="#231F20"/>
<path d="M176.927 333.973C176.307 333.88 175.749 333.725 175.222 333.508C174.695 333.291 174.261 332.981 173.889 332.609C173.517 332.237 173.238 331.803 173.083 331.245C172.897 330.718 172.866 330.129 172.959 329.447C173.083 328.486 173.455 327.711 174.044 327.091C174.633 326.471 175.408 326.13 176.4 326.068C175.935 325.882 175.532 325.696 175.253 325.479C174.974 325.231 174.726 324.983 174.571 324.642C174.416 324.332 174.323 323.96 174.261 323.557C174.23 323.154 174.23 322.751 174.261 322.286C174.261 322.038 174.323 321.728 174.354 321.356C174.385 320.984 174.416 320.612 174.416 320.24C174.416 319.868 174.416 319.496 174.354 319.155C174.323 318.814 174.23 318.535 174.106 318.349L175.656 318.566C175.718 318.721 175.749 318.907 175.78 319.093C175.78 319.31 175.78 319.527 175.78 319.744C175.78 319.961 175.78 320.178 175.749 320.395C175.749 320.612 175.749 320.798 175.718 320.953C175.656 321.48 175.656 322.007 175.625 322.534C175.594 323.061 175.687 323.557 175.811 323.991C175.966 324.425 176.214 324.797 176.555 325.107C176.896 325.417 177.423 325.603 178.074 325.665L183.468 326.44L184.398 319.837L185.824 320.023L183.716 334.934L176.896 333.973H176.927ZM178.043 326.936C177.609 326.874 177.206 326.874 176.772 326.936C176.369 326.998 175.997 327.153 175.656 327.37C175.315 327.587 175.067 327.835 174.819 328.176C174.602 328.517 174.447 328.889 174.385 329.354C174.261 330.284 174.416 331.028 174.881 331.648C175.346 332.237 176.09 332.64 177.175 332.795L182.476 333.539L183.313 327.68L178.012 326.936H178.043Z" fill="#231F20"/>
<path d="M166.666 332.02L169.952 317.326L171.347 317.636L168.061 332.33L166.666 332.02Z" fill="#231F20"/>
<path d="M160.342 330.47L155.785 315.683H155.754L151.941 327.835L150.577 327.401L155.072 313.048L156.591 313.513L161.148 328.3H161.179L164.992 316.179L166.356 316.613L161.861 330.966L160.342 330.501V330.47Z" fill="#231F20"/>
<path d="M136.348 321.387L136.844 320.271L141.649 322.379L147.229 309.731L148.531 310.32L142.951 322.968L147.725 325.076L147.229 326.192L136.317 321.387H136.348Z" fill="#231F20"/>
<path d="M125.312 316.923L136.1 298.819L137.061 299.377L126.273 317.481L125.312 316.923Z" fill="#231F20"/>
<path d="M113.966 307.561L118.399 294.169L106.061 301.144L104.418 299.811L113.904 288.124L115.02 289.023L106.836 299.129H106.867L119.05 292.278L120.104 293.115L115.764 306.352H115.795L123.979 296.277L125.095 297.176L115.609 308.863L113.966 307.53V307.561Z" fill="#231F20"/>
<path d="M104.108 293.27C103.209 293.704 102.31 293.952 101.38 294.014C100.45 294.076 99.52 293.921 98.59 293.58C97.66 293.239 96.792 292.619 95.986 291.751C95.18 290.883 94.622 289.984 94.343 289.054C94.033 288.124 93.971 287.194 94.095 286.264C94.219 285.334 94.529 284.435 94.994 283.598C95.49 282.73 96.11 281.955 96.854 281.242C97.598 280.529 98.435 279.971 99.334 279.537C100.233 279.103 101.132 278.855 102.062 278.793C102.992 278.731 103.922 278.886 104.821 279.227C105.751 279.568 106.619 280.188 107.425 281.056C108.231 281.924 108.789 282.823 109.099 283.753C109.409 284.683 109.502 285.644 109.378 286.543C109.254 287.473 108.975 288.341 108.479 289.209C107.983 290.077 107.363 290.852 106.619 291.565C105.875 292.278 105.038 292.836 104.139 293.27H104.108ZM107.115 288.62C107.549 287.907 107.828 287.194 107.983 286.419C108.138 285.644 108.076 284.9 107.859 284.094C107.642 283.319 107.208 282.544 106.495 281.831C105.813 281.118 105.1 280.622 104.325 280.343C103.55 280.095 102.806 280.002 102.031 280.095C101.256 280.188 100.512 280.436 99.799 280.808C99.086 281.18 98.404 281.676 97.815 282.234C97.226 282.792 96.699 283.443 96.265 284.125C95.831 284.838 95.552 285.551 95.428 286.326C95.273 287.101 95.335 287.845 95.521 288.62C95.738 289.395 96.172 290.139 96.854 290.883C97.536 291.596 98.249 292.092 99.024 292.371C99.799 292.619 100.574 292.712 101.318 292.619C102.093 292.526 102.837 292.278 103.55 291.906C104.263 291.534 104.945 291.038 105.534 290.48C106.123 289.922 106.65 289.302 107.053 288.589L107.115 288.62Z" fill="#231F20"/>
<path d="M82.501 274.701L83.493 273.957L86.655 278.142L97.722 269.834L98.59 270.981L87.523 279.289L90.654 283.474L89.662 284.218L82.532 274.701H82.501Z" fill="#231F20"/>
<path d="M80.052 270.795L92.7 262.642L93.475 263.851L80.827 272.004L80.052 270.795Z" fill="#231F20"/>
<path d="M81.5399 264.812C80.5789 264.998 79.6179 264.998 78.7189 264.812C77.7889 264.626 76.9519 264.254 76.1459 263.665C75.3399 263.076 74.6889 262.27 74.1309 261.216C73.5729 260.162 73.2939 259.17 73.2629 258.178C73.2319 257.186 73.3869 256.287 73.7589 255.419C74.1309 254.551 74.6579 253.776 75.3399 253.063C76.0219 252.35 76.8279 251.761 77.7579 251.265C78.6879 250.769 79.6179 250.459 80.5789 250.273C81.5399 250.087 82.5009 250.087 83.3999 250.273C84.2989 250.459 85.1669 250.831 85.9419 251.42C86.7169 252.009 87.3989 252.815 87.9569 253.869C88.5149 254.923 88.7939 255.915 88.8559 256.907C88.9179 257.899 88.7319 258.829 88.3909 259.666C88.0189 260.534 87.5229 261.309 86.8099 261.991C86.1279 262.704 85.3219 263.293 84.3919 263.789C83.4619 264.285 82.5319 264.595 81.5709 264.781L81.5399 264.812ZM85.6629 261.123C86.2519 260.565 86.7169 259.914 87.0579 259.232C87.3989 258.55 87.5539 257.775 87.5539 256.969C87.5539 256.163 87.3059 255.326 86.8409 254.427C86.3759 253.559 85.8179 252.877 85.1359 252.443C84.4539 252.009 83.7409 251.699 82.9969 251.606C82.2219 251.482 81.4469 251.544 80.6409 251.699C79.8349 251.885 79.0909 252.164 78.3469 252.536C77.6029 252.939 76.9519 253.404 76.3629 253.962C75.7739 254.52 75.3089 255.14 74.9679 255.853C74.6269 256.535 74.4719 257.31 74.4409 258.116C74.4409 258.922 74.6579 259.759 75.1229 260.658C75.5879 261.526 76.1459 262.208 76.8279 262.673C77.5099 263.138 78.2229 263.417 78.9979 263.51C79.7729 263.634 80.5479 263.603 81.3539 263.417C82.1599 263.231 82.9039 262.952 83.6479 262.58C84.3609 262.208 85.0429 261.712 85.6319 261.154L85.6629 261.123Z" fill="#231F20"/>
<path d="M68.7061 249.157L77.5101 236.447C77.5101 236.416 65.6061 240.911 65.6061 240.911L65.1101 239.578L79.1841 234.246L79.7421 235.734L70.9381 248.444C70.9381 248.475 82.8421 243.98 82.8421 243.98L83.3381 245.313L69.2641 250.645L68.7061 249.157Z" fill="#231F20"/>
<path d="M60.1189 226.868L80.6409 222.156L80.8889 223.241L60.3669 227.953L60.1189 226.868Z" fill="#231F20"/>
<path d="M58.7549 208.454L73.1699 201.107L73.3249 202.626L68.8299 204.92L69.4809 211.74L74.3169 213.104L74.4719 214.623L58.9099 210.066L58.7549 208.485V208.454ZM67.6519 205.509L60.2429 209.167L68.2099 211.43L67.6209 205.54L67.6519 205.509Z" fill="#231F20"/>
<path d="M58.197 192.148C58.197 191.528 58.29 190.939 58.445 190.381C58.6 189.823 58.848 189.358 59.189 188.924C59.499 188.521 59.933 188.18 60.429 187.963C60.925 187.715 61.514 187.622 62.196 187.622C63.157 187.622 63.963 187.901 64.676 188.397C65.358 188.893 65.823 189.637 65.978 190.598H66.009C66.102 190.102 66.226 189.699 66.412 189.389C66.598 189.079 66.846 188.8 67.156 188.614C67.466 188.428 67.807 188.273 68.179 188.18C68.582 188.087 68.985 188.056 69.45 188.025C69.698 188.025 70.008 188.025 70.38 188.025C70.752 188.025 71.124 188.025 71.496 187.963C71.868 187.932 72.209 187.87 72.55 187.777C72.891 187.684 73.139 187.56 73.325 187.436V189.017C73.17 189.11 72.984 189.172 72.767 189.203C72.55 189.234 72.364 189.296 72.147 189.296C71.93 189.296 71.713 189.327 71.496 189.327C71.279 189.327 71.093 189.327 70.938 189.358C70.411 189.358 69.884 189.42 69.357 189.482C68.83 189.544 68.365 189.668 67.931 189.854C67.528 190.04 67.187 190.35 66.908 190.722C66.66 191.094 66.536 191.621 66.536 192.303L66.443 197.728L73.139 197.821V199.247L58.073 198.999L58.197 192.117V192.148ZM65.358 192.365C65.358 191.931 65.296 191.528 65.172 191.125C65.048 190.722 64.862 190.381 64.614 190.071C64.366 189.761 64.056 189.544 63.715 189.358C63.374 189.172 62.94 189.079 62.475 189.079C61.545 189.079 60.801 189.327 60.274 189.854C59.716 190.381 59.437 191.187 59.437 192.272L59.344 197.635L65.265 197.728L65.358 192.365Z" fill="#231F20"/>
<path d="M58.8479 178.477L58.9719 177.392L73.8829 185.39L73.7589 186.506L58.8479 178.477Z" fill="#231F20"/>
<path d="M60.026 172.184L73.945 169.952L62.072 162.202L62.506 160.125L77.262 163.163L76.983 164.558L64.242 161.923C64.242 161.954 75.929 169.642 75.929 169.642L75.65 170.975L61.917 173.207C61.917 173.238 74.658 175.873 74.658 175.873L74.379 177.268L59.623 174.23L60.057 172.153L60.026 172.184Z" fill="#231F20"/>
<path d="M66.2569 148.531C66.4739 147.942 66.7219 147.415 67.0629 146.95C67.4039 146.485 67.7759 146.082 68.2099 145.803C68.6439 145.524 69.1399 145.338 69.6979 145.276C70.2559 145.214 70.8449 145.276 71.4959 145.493C72.3949 145.803 73.1079 146.299 73.6039 147.012C74.0999 147.694 74.2859 148.531 74.1619 149.523H74.1929C74.4099 149.089 74.6889 148.748 74.9679 148.5C75.2469 148.252 75.5569 148.097 75.9289 148.004C76.2699 147.911 76.6419 147.88 77.0449 147.911C77.4479 147.942 77.8509 148.035 78.2849 148.159C78.5329 148.221 78.8119 148.314 79.1839 148.407C79.5249 148.5 79.8969 148.593 80.2689 148.686C80.6409 148.779 80.9819 148.81 81.3229 148.841C81.6639 148.841 81.9429 148.841 82.1599 148.748L81.6329 150.236C81.4779 150.267 81.2919 150.267 81.0749 150.236C80.8579 150.236 80.6409 150.174 80.4549 150.143C80.2379 150.081 80.0209 150.05 79.8349 149.988C79.6179 149.926 79.4629 149.895 79.3079 149.864C78.7809 149.709 78.2849 149.585 77.7579 149.461C77.2309 149.337 76.7659 149.306 76.3009 149.368C75.8359 149.43 75.4329 149.585 75.0609 149.864C74.6889 150.143 74.4099 150.608 74.2239 151.259L72.4569 156.405L78.7809 158.575L78.3159 159.939L64.0869 155.01L66.3499 148.5L66.2569 148.531ZM72.9839 150.98C73.1389 150.577 73.2009 150.143 73.2009 149.74C73.2009 149.337 73.1389 148.934 72.9839 148.562C72.8289 148.19 72.6429 147.88 72.3329 147.601C72.0539 147.322 71.6819 147.105 71.2479 146.95C70.3799 146.64 69.6049 146.671 68.9229 146.981C68.2409 147.322 67.7139 148.004 67.3729 149.027L65.6369 154.08L71.2479 156.002L72.9839 150.949V150.98Z" fill="#231F20"/>
<path d="M84.237 144.191C84.516 144.315 84.795 144.47 85.043 144.656C85.291 144.842 85.508 145.059 85.663 145.307C85.849 145.555 85.973 145.834 86.066 146.113C86.159 146.392 86.159 146.702 86.128 147.012L85.291 146.64C85.291 146.454 85.291 146.299 85.167 146.113C85.074 145.927 84.95 145.772 84.826 145.617C84.702 145.462 84.516 145.338 84.361 145.214C84.175 145.09 84.02 145.028 83.896 144.966L83.524 145.772L81.478 144.873L82.191 143.261L84.237 144.16V144.191Z" fill="#231F20"/>
<path d="M76.797 125.622L84.702 130.551C85.446 131.016 86.128 131.326 86.748 131.481C87.368 131.636 87.957 131.667 88.484 131.543C89.011 131.419 89.507 131.171 89.941 130.799C90.375 130.427 90.778 129.962 91.15 129.373C91.522 128.784 91.77 128.195 91.925 127.637C92.08 127.079 92.08 126.552 91.925 126.025C91.801 125.498 91.522 125.002 91.119 124.506C90.716 124.01 90.127 123.545 89.383 123.08L81.478 118.151L82.222 116.942L90.406 122.026C91.057 122.429 91.615 122.925 92.111 123.452C92.576 124.01 92.917 124.63 93.103 125.281C93.289 125.963 93.32 126.676 93.196 127.482C93.072 128.257 92.731 129.094 92.173 129.993C91.615 130.892 91.026 131.543 90.375 132.008C89.724 132.473 89.073 132.783 88.36 132.907C87.678 133.031 86.965 133 86.252 132.814C85.539 132.628 84.857 132.349 84.206 131.915L76.022 126.831L76.766 125.622H76.797Z" fill="#231F20"/>
<path d="M85.2911 112.664L92.8861 113.191L90.6541 105.844L91.6461 104.573L94.2501 113.16L103.674 113.656L102.62 115.02L94.5601 114.524L96.9161 122.274L95.9241 123.545L93.1651 114.524L84.2681 114.028L85.3221 112.695L85.2911 112.664Z" fill="#231F20"/>
<path d="M96.885 98.466L97.629 97.691L104.759 113.036L104.015 113.842L96.885 98.466Z" fill="#231F20"/>
<path d="M100.946 94.746L107.208 101.659C107.797 102.31 108.355 102.775 108.913 103.116C109.471 103.426 110.029 103.612 110.556 103.643C111.083 103.674 111.641 103.581 112.168 103.333C112.695 103.085 113.222 102.744 113.718 102.279C114.245 101.814 114.648 101.318 114.927 100.822C115.206 100.326 115.361 99.799 115.392 99.272C115.392 98.745 115.299 98.156 115.02 97.567C114.741 96.978 114.338 96.358 113.749 95.707L107.487 88.794L108.541 87.833L115.02 94.963C115.547 95.521 115.95 96.141 116.26 96.823C116.57 97.474 116.725 98.156 116.725 98.869C116.725 99.582 116.539 100.295 116.198 101.008C115.857 101.721 115.299 102.434 114.524 103.147C113.749 103.86 113.005 104.325 112.23 104.604C111.486 104.883 110.742 104.976 110.06 104.914C109.347 104.852 108.696 104.635 108.076 104.263C107.456 103.891 106.867 103.426 106.34 102.837L99.8611 95.707L100.915 94.746H100.946Z" fill="#231F20"/>
<path d="M113.501 84.113L122.677 96.048L121.53 96.916L112.354 84.981L113.501 84.113Z" fill="#231F20"/>
<path d="M127.978 74.441C129.993 73.356 131.822 73.046 133.434 73.542C135.046 74.038 136.472 75.371 137.743 77.51C138.983 79.68 139.417 81.571 139.014 83.214C138.611 84.857 137.433 86.283 135.48 87.461L130.954 90.065L123.452 77.014L127.978 74.41V74.441ZM134.24 86.779C135.17 86.252 135.914 85.663 136.472 85.074C137.03 84.485 137.402 83.834 137.588 83.152C137.774 82.47 137.774 81.695 137.588 80.889C137.402 80.083 137.03 79.184 136.472 78.192C135.914 77.231 135.325 76.456 134.736 75.867C134.116 75.278 133.496 74.906 132.783 74.72C132.101 74.534 131.357 74.534 130.551 74.72C129.745 74.906 128.908 75.278 127.947 75.805L125.312 77.324L131.605 88.236L134.24 86.717V86.779Z" fill="#231F20"/>
<path d="M147.508 64.9239L148.004 66.0399L139.789 69.6049L141.959 74.5959L149.647 71.2479L150.143 72.3639L142.455 75.7119L144.842 81.1679L153.15 77.5409L153.646 78.6569L144.005 82.8419L137.991 69.0469L147.508 64.8929V64.9239Z" fill="#231F20"/>
<path d="M156.033 74.689C156.436 75.123 156.87 75.402 157.397 75.557C157.924 75.712 158.482 75.774 159.102 75.712C159.722 75.65 160.342 75.526 161.024 75.34C161.396 75.216 161.799 75.03 162.202 74.782C162.605 74.534 162.977 74.224 163.287 73.883C163.597 73.542 163.814 73.139 163.969 72.674C164.093 72.24 164.093 71.744 163.938 71.217C163.814 70.814 163.628 70.504 163.349 70.256C163.07 70.008 162.76 69.853 162.419 69.729C162.078 69.605 161.706 69.543 161.303 69.543C160.9 69.543 160.528 69.543 160.187 69.543L156.746 69.76C156.281 69.76 155.847 69.76 155.413 69.76C154.979 69.729 154.545 69.605 154.173 69.45C153.801 69.264 153.46 69.016 153.15 68.675C152.84 68.334 152.623 67.9 152.437 67.342C152.313 67.001 152.282 66.567 152.251 66.04C152.251 65.544 152.344 65.017 152.592 64.49C152.84 63.963 153.212 63.436 153.77 62.971C154.328 62.475 155.103 62.072 156.095 61.762C156.808 61.545 157.521 61.421 158.203 61.421C158.916 61.421 159.567 61.514 160.156 61.731C160.745 61.948 161.272 62.289 161.737 62.754C162.202 63.219 162.543 63.808 162.791 64.552L161.427 64.986C161.241 64.459 160.962 63.994 160.59 63.653C160.249 63.312 159.846 63.064 159.412 62.909C158.978 62.754 158.482 62.661 157.986 62.661C157.49 62.661 156.963 62.754 156.467 62.909C156.002 63.064 155.568 63.25 155.165 63.498C154.762 63.746 154.421 64.025 154.173 64.335C153.925 64.645 153.739 65.048 153.646 65.451C153.553 65.885 153.584 66.35 153.77 66.908C153.863 67.249 154.018 67.528 154.204 67.745C154.39 67.962 154.607 68.117 154.886 68.241C155.134 68.365 155.413 68.427 155.723 68.458C156.033 68.458 156.312 68.458 156.653 68.458L160.435 68.241C160.993 68.241 161.52 68.241 162.016 68.272C162.512 68.334 163.008 68.458 163.442 68.613C163.876 68.799 164.248 69.078 164.589 69.419C164.899 69.76 165.178 70.256 165.364 70.845C165.426 71 165.457 71.217 165.519 71.496C165.581 71.775 165.581 72.085 165.519 72.426C165.488 72.767 165.395 73.139 165.271 73.511C165.147 73.883 164.899 74.286 164.558 74.658C164.217 75.03 163.783 75.402 163.225 75.743C162.667 76.084 161.954 76.394 161.117 76.642C160.28 76.89 159.443 77.045 158.668 77.076C157.893 77.107 157.18 77.014 156.529 76.766C155.878 76.518 155.351 76.115 154.855 75.588C154.39 75.03 154.018 74.317 153.801 73.418L155.165 72.984C155.382 73.728 155.692 74.317 156.095 74.72L156.033 74.689Z" fill="#231F20"/>
<path d="M167.379 59.0031L170.758 73.6661L169.363 73.9761L165.984 59.3131L167.379 59.0031Z" fill="#231F20"/>
<path d="M186.01 71.124L185.452 68.427H185.421C185.235 68.985 184.987 69.481 184.677 69.946C184.367 70.38 183.995 70.752 183.592 71.062C183.189 71.372 182.724 71.62 182.228 71.806C181.732 71.992 181.205 72.116 180.678 72.209C179.5 72.364 178.446 72.302 177.516 71.992C176.586 71.682 175.749 71.217 175.067 70.597C174.385 69.977 173.827 69.202 173.393 68.334C172.959 67.435 172.68 66.474 172.525 65.451C172.37 64.428 172.401 63.405 172.525 62.444C172.68 61.483 173.021 60.584 173.486 59.778C173.982 58.972 174.633 58.29 175.439 57.763C176.276 57.205 177.268 56.864 178.415 56.678C179.19 56.554 179.934 56.554 180.678 56.678C181.391 56.802 182.073 57.019 182.662 57.36C183.251 57.701 183.809 58.166 184.243 58.724C184.708 59.282 185.049 59.964 185.328 60.77L183.902 60.956C183.809 60.522 183.592 60.119 183.282 59.716C182.972 59.313 182.6 58.972 182.135 58.662C181.67 58.352 181.143 58.135 180.523 57.98C179.934 57.825 179.252 57.794 178.539 57.918C177.547 58.042 176.741 58.352 176.059 58.848C175.377 59.344 174.881 59.902 174.54 60.584C174.168 61.266 173.951 62.01 173.827 62.816C173.734 63.622 173.734 64.428 173.827 65.265C173.951 66.071 174.168 66.846 174.478 67.621C174.819 68.365 175.222 69.047 175.78 69.574C176.307 70.132 176.958 70.535 177.733 70.814C178.508 71.093 179.376 71.155 180.368 71.031C181.174 70.907 181.918 70.69 182.507 70.318C183.127 69.946 183.623 69.512 183.995 68.954C184.367 68.396 184.615 67.776 184.739 67.094C184.863 66.381 184.863 65.637 184.739 64.862L179.655 65.575L179.469 64.366L185.793 63.467L186.847 71.031L185.824 71.186L186.01 71.124Z" fill="#231F20"/>
<path d="M191.559 55.717L200.518 68.303H200.549L200.332 55.562H201.758L202.006 70.597H200.394L191.404 58.042H191.373L191.59 70.783H190.164L189.916 55.748H191.528L191.559 55.717Z" fill="#231F20"/>
<path d="M215.429 55.159L212.98 76.084L211.864 75.96L214.313 55.035L215.429 55.159Z" fill="#231F20"/>
<path d="M237.439 61.111L237.129 62.289L228.449 60.119L227.147 65.389L235.3 67.404L234.99 68.582L226.837 66.567L225.411 72.333L234.215 74.503L233.936 75.681L223.737 73.139L227.364 58.538L237.439 61.049V61.111Z" fill="#231F20"/>
<path d="M241.283 62.32V76.642H241.314L250.459 65.637L251.885 66.164L241.5 78.409L239.95 77.851L239.857 61.793L241.283 62.32Z" fill="#231F20"/>
<path d="M264.347 72.116L263.82 73.201L255.76 69.295L253.373 74.193L260.906 77.851L260.379 78.936L252.846 75.278L250.242 80.61L258.395 84.578L257.868 85.663L248.413 81.075L254.985 67.528L264.347 72.085V72.116Z" fill="#231F20"/>
<path d="M269.4 75.03L269.989 90.468H270.02L276.84 79.742L278.049 80.517L269.989 93.227L268.625 92.359L268.036 76.921H268.005L261.185 87.647L259.976 86.872L268.036 74.162L269.4 75.03Z" fill="#231F20"/>
<path d="M290.201 90.003L289.426 90.964L285.334 87.678L276.685 98.466L275.569 97.567L284.218 86.779L280.126 83.524L280.901 82.563L290.201 90.003Z" fill="#231F20"/>
<path d="M302.074 101.814L294.944 116.322L293.921 115.175L296.122 110.649L291.503 105.596L286.822 107.425L285.799 106.309L300.989 100.605L302.074 101.783V101.814ZM296.68 109.502L300.4 102.155L292.681 105.131L296.68 109.502Z" fill="#231F20"/>
<path d="M309.173 110.246L303.996 124.816C303.996 124.847 314.319 117.407 314.319 117.407L315.156 118.554L302.942 127.358L302.012 126.056L307.189 111.486C307.189 111.455 296.866 118.895 296.866 118.895L296.029 117.748L308.243 108.944L309.173 110.246Z" fill="#231F20"/>
<path d="M320.488 127.544C321.542 129.59 321.821 131.388 321.294 133C320.767 134.612 319.434 136.007 317.233 137.216C315.032 138.425 313.141 138.828 311.498 138.394C309.855 137.96 308.46 136.782 307.313 134.798L304.802 130.241L317.977 122.956L320.488 127.513V127.544ZM308.026 133.62C308.553 134.581 309.111 135.325 309.669 135.883C310.258 136.441 310.878 136.844 311.56 137.03C312.242 137.216 312.986 137.247 313.823 137.03C314.629 136.844 315.528 136.503 316.52 135.945C317.512 135.387 318.287 134.829 318.876 134.24C319.465 133.651 319.868 133 320.054 132.318C320.24 131.636 320.271 130.892 320.085 130.086C319.899 129.28 319.558 128.412 319.031 127.482L317.543 124.816L306.507 130.923L307.995 133.589L308.026 133.62Z" fill="#231F20"/>
<path d="M330.284 149.368C330.966 151.538 330.935 153.398 330.16 154.886C329.385 156.374 327.804 157.552 325.448 158.358C323.092 159.164 321.139 159.226 319.589 158.544C318.039 157.862 316.861 156.436 316.086 154.297L314.381 149.368L328.61 144.439L330.315 149.368H330.284ZM316.985 153.212C317.326 154.235 317.76 155.072 318.225 155.723C318.69 156.374 319.248 156.87 319.899 157.18C320.55 157.49 321.294 157.645 322.131 157.583C322.968 157.552 323.929 157.335 324.983 156.963C326.037 156.591 326.905 156.157 327.587 155.692C328.269 155.196 328.765 154.638 329.075 153.987C329.385 153.336 329.54 152.623 329.478 151.817C329.447 151.011 329.261 150.081 328.889 149.058L327.897 146.175L315.993 150.298L316.985 153.181V153.212Z" fill="#231F20"/>
<path d="M333.911 161.396L319.341 165.147L318.969 163.752L333.539 160.001L333.88 161.396H333.911Z" fill="#231F20"/>
<path d="M323.402 169.208C322.937 169.549 322.596 169.952 322.348 170.448C322.131 170.944 322.007 171.502 321.976 172.122C321.976 172.742 321.976 173.393 322.131 174.075C322.193 174.447 322.317 174.881 322.534 175.315C322.72 175.749 322.968 176.152 323.278 176.493C323.588 176.834 323.96 177.113 324.394 177.299C324.828 177.485 325.293 177.547 325.851 177.454C326.254 177.392 326.595 177.237 326.874 176.989C327.153 176.741 327.37 176.462 327.525 176.121C327.68 175.78 327.804 175.439 327.866 175.036C327.928 174.664 327.99 174.292 327.99 173.92L328.207 170.479C328.238 170.045 328.3 169.58 328.393 169.146C328.486 168.712 328.641 168.309 328.858 167.968C329.075 167.627 329.385 167.317 329.757 167.038C330.129 166.79 330.594 166.604 331.183 166.511C331.555 166.449 331.989 166.449 332.485 166.511C332.981 166.573 333.508 166.728 334.004 167.038C334.5 167.348 334.965 167.813 335.368 168.402C335.771 169.022 336.081 169.828 336.267 170.882C336.391 171.626 336.422 172.339 336.36 173.021C336.298 173.734 336.081 174.354 335.802 174.912C335.492 175.47 335.089 175.966 334.562 176.369C334.035 176.772 333.384 177.02 332.64 177.175L332.392 175.749C332.95 175.625 333.415 175.408 333.818 175.098C334.19 174.788 334.5 174.447 334.717 174.013C334.934 173.61 335.089 173.145 335.151 172.618C335.213 172.122 335.182 171.595 335.089 171.068C334.996 170.572 334.872 170.138 334.686 169.704C334.5 169.27 334.252 168.898 333.973 168.619C333.694 168.309 333.322 168.092 332.919 167.968C332.516 167.844 332.02 167.813 331.462 167.906C331.121 167.968 330.811 168.092 330.594 168.247C330.346 168.402 330.16 168.619 330.036 168.836C329.881 169.084 329.788 169.332 329.726 169.642C329.664 169.921 329.633 170.231 329.602 170.541L329.354 174.323C329.323 174.881 329.23 175.408 329.106 175.904C328.982 176.4 328.796 176.865 328.579 177.268C328.331 177.671 328.021 178.012 327.649 178.291C327.246 178.57 326.75 178.756 326.13 178.88C325.975 178.88 325.727 178.942 325.448 178.942C325.169 178.942 324.859 178.942 324.518 178.849C324.177 178.787 323.836 178.632 323.464 178.446C323.092 178.26 322.751 177.981 322.441 177.609C322.1 177.237 321.821 176.741 321.542 176.152C321.263 175.563 321.077 174.819 320.922 173.951C320.767 173.083 320.736 172.246 320.798 171.471C320.86 170.696 321.077 169.983 321.387 169.394C321.697 168.805 322.162 168.309 322.782 167.906C323.371 167.503 324.146 167.255 325.076 167.131L325.324 168.557C324.549 168.681 323.929 168.898 323.464 169.239L323.402 169.208Z" fill="#231F20"/>
<path d="M337.91 187.963C337.941 188.645 337.91 189.265 337.755 189.823C337.6 190.381 337.352 190.877 337.011 191.28C336.67 191.683 336.236 192.024 335.709 192.272C335.182 192.52 334.593 192.675 333.911 192.706C333.229 192.737 332.64 192.706 332.082 192.52C331.524 192.334 331.059 192.086 330.656 191.714C330.253 191.342 329.943 190.908 329.726 190.35C329.509 189.823 329.354 189.203 329.323 188.552L328.982 183.313L322.534 183.716L322.441 182.29L337.476 181.329L337.91 187.994V187.963ZM330.532 188.118C330.594 189.11 330.904 189.916 331.431 190.474C331.989 191.063 332.764 191.311 333.818 191.249C334.872 191.187 335.616 190.815 336.081 190.164C336.546 189.513 336.732 188.676 336.67 187.684L336.36 182.755L330.222 183.158L330.532 188.087V188.118Z" fill="#231F20"/>
<path d="M338.127 198.007L324.301 197.511L323.991 205.943H322.782C322.782 205.912 323.123 196.054 323.123 196.054L338.158 196.581L338.096 198.007H338.127Z" fill="#231F20"/>
<path d="M336.67 215.832L320.953 219.614L321.17 218.095L326.068 216.917L326.998 210.128L322.596 207.679L322.813 206.191L336.887 214.251L336.67 215.832ZM327.308 216.607L335.337 214.778L328.114 210.748L327.308 216.607Z" fill="#231F20"/>
<path d="M335.833 221.753L335.43 223.396L326.843 226.434L333.136 233.006L332.733 234.68L325.51 226.837L319.496 225.411L319.837 224.016L325.851 225.442L335.833 221.753Z" fill="#231F20"/>
<path d="M330.284 246.243L310.599 238.772L311.002 237.718L330.687 245.189L330.284 246.243Z" fill="#231F20"/>
<path d="M320.891 262.921C320.581 263.51 320.209 264.006 319.775 264.409C319.341 264.812 318.876 265.091 318.38 265.246C317.853 265.432 317.326 265.463 316.768 265.401C316.21 265.339 315.621 265.153 315.032 264.812C314.443 264.502 313.947 264.13 313.575 263.665C313.203 263.2 312.955 262.735 312.8 262.239C312.645 261.712 312.645 261.154 312.738 260.596C312.831 260.038 313.048 259.449 313.358 258.86L315.838 254.241L310.165 251.203L310.847 249.932L324.115 257.031L320.953 262.921H320.891ZM314.536 259.17C314.071 260.038 313.916 260.875 314.071 261.65C314.226 262.425 314.753 263.076 315.683 263.572C316.613 264.068 317.419 264.161 318.163 263.851C318.907 263.541 319.496 262.952 319.961 262.084L322.286 257.744L316.861 254.83L314.536 259.17Z" fill="#231F20"/>
<path d="M314.102 274.019L298.323 270.578L299.191 269.307L304.089 270.392L307.902 264.688L305.019 260.596L305.856 259.325L315.001 272.717L314.102 274.05V274.019ZM305.36 270.64L313.389 272.5L308.646 265.711L305.36 270.64Z" fill="#231F20"/>
<path d="M299.625 287.69C300.152 287.752 300.679 287.752 301.175 287.628C301.671 287.504 302.167 287.318 302.601 287.039C303.035 286.76 303.438 286.419 303.81 285.985C304.461 285.21 304.864 284.435 305.05 283.66C305.236 282.854 305.236 282.11 305.05 281.335C304.864 280.591 304.554 279.878 304.089 279.196C303.624 278.514 303.097 277.925 302.446 277.367C301.826 276.84 301.144 276.406 300.4 276.065C299.656 275.724 298.881 275.507 298.137 275.445C297.362 275.383 296.587 275.507 295.843 275.817C295.099 276.127 294.386 276.654 293.735 277.398C293.27 277.925 292.96 278.483 292.805 279.103C292.619 279.692 292.588 280.281 292.65 280.87C292.712 281.459 292.898 282.048 293.177 282.606C293.456 283.164 293.828 283.722 294.293 284.187L293.363 285.272C292.712 284.59 292.216 283.877 291.875 283.164C291.534 282.42 291.317 281.676 291.286 280.932C291.224 280.188 291.348 279.444 291.596 278.731C291.844 277.987 292.278 277.305 292.836 276.623C293.611 275.724 294.448 275.073 295.347 274.67C296.246 274.267 297.176 274.081 298.106 274.081C299.036 274.081 299.966 274.298 300.865 274.67C301.764 275.042 302.632 275.6 303.407 276.251C304.213 276.933 304.864 277.677 305.391 278.514C305.918 279.351 306.259 280.219 306.445 281.149C306.6 282.079 306.569 283.009 306.321 283.97C306.073 284.931 305.546 285.861 304.802 286.76C304.337 287.318 303.81 287.783 303.19 288.155C302.601 288.527 301.95 288.806 301.268 288.961C300.586 289.116 299.904 289.147 299.191 289.023C298.478 288.93 297.796 288.651 297.145 288.217L298.075 287.132C298.602 287.411 299.129 287.597 299.656 287.659L299.625 287.69Z" fill="#231F20"/>
<path d="M296.308 295.44L290.79 289.519L289.891 301.392L288.465 302.725L289.147 293.58L277.987 291.906L279.351 290.635L289.271 292.123L289.55 288.186L286.047 284.404L287.101 283.443L297.362 294.448L296.308 295.409V295.44Z" fill="#231F20"/>
<path d="M280.777 308.584L267.075 300.028L268.315 299.098L272.562 301.764L278.049 297.672L276.716 292.836L277.925 291.937L282.048 307.623L280.746 308.584H280.777ZM273.678 302.477L280.622 306.941L278.452 298.943L273.709 302.477H273.678Z" fill="#231F20"/>
<path d="M255.295 306.848L256.814 309.142H256.845C256.814 308.522 256.845 307.964 256.969 307.468C257.093 306.941 257.31 306.476 257.558 306.042C257.837 305.608 258.147 305.205 258.55 304.864C258.953 304.523 259.387 304.213 259.852 303.934C260.875 303.345 261.898 303.004 262.859 302.942C263.851 302.88 264.781 303.004 265.649 303.314C266.517 303.655 267.323 304.151 268.036 304.802C268.749 305.484 269.369 306.259 269.896 307.158C270.423 308.057 270.764 308.987 270.981 309.948C271.198 310.909 271.229 311.839 271.074 312.769C270.919 313.699 270.578 314.567 269.989 315.373C269.431 316.179 268.625 316.892 267.602 317.481C266.92 317.884 266.207 318.163 265.494 318.318C264.781 318.473 264.068 318.535 263.386 318.411C262.704 318.287 262.053 318.101 261.402 317.76C260.751 317.419 260.193 316.923 259.635 316.272L260.875 315.559C261.123 315.931 261.464 316.241 261.898 316.489C262.332 316.737 262.828 316.923 263.355 317.047C263.882 317.171 264.471 317.171 265.091 317.078C265.711 316.985 266.331 316.768 266.951 316.427C267.819 315.931 268.47 315.342 268.904 314.66C269.338 313.978 269.586 313.234 269.679 312.49C269.772 311.715 269.679 310.94 269.493 310.134C269.276 309.328 268.997 308.584 268.563 307.871C268.16 307.158 267.664 306.507 267.075 305.949C266.486 305.36 265.835 304.926 265.153 304.616C264.44 304.306 263.696 304.151 262.89 304.182C262.084 304.182 261.247 304.461 260.379 304.957C259.666 305.36 259.077 305.856 258.643 306.414C258.209 306.972 257.93 307.592 257.775 308.243C257.62 308.894 257.62 309.576 257.775 310.258C257.93 310.94 258.178 311.653 258.612 312.335L263.045 309.793L263.665 310.847L258.116 314.009L254.303 307.375L255.202 306.848H255.295Z" fill="#231F20"/>
<path d="M256.256 322.968L249.932 309.297L251.234 308.708L257.558 322.379L256.256 322.968Z" fill="#231F20"/>
<path d="M250.304 325.603L237.687 316.675H237.656L242.027 328.641L240.694 329.137L235.517 315.001L237.036 314.443L249.653 323.371H249.684L245.313 311.405L246.646 310.909L251.823 325.045L250.304 325.603Z" fill="#231F20"/>
<path d="M220.699 318.597L221.505 321.232H221.536C221.66 320.643 221.877 320.116 222.156 319.682C222.435 319.217 222.776 318.814 223.148 318.473C223.52 318.132 223.954 317.853 224.45 317.636C224.915 317.419 225.442 317.233 225.969 317.109C227.116 316.861 228.17 316.83 229.131 317.047C230.092 317.264 230.96 317.667 231.673 318.225C232.417 318.783 233.037 319.496 233.533 320.364C234.029 321.201 234.401 322.162 234.618 323.154C234.835 324.177 234.928 325.169 234.835 326.161C234.742 327.153 234.525 328.052 234.091 328.889C233.688 329.726 233.068 330.439 232.293 331.059C231.518 331.679 230.557 332.113 229.41 332.392C228.635 332.578 227.891 332.64 227.147 332.578C226.403 332.516 225.721 332.361 225.101 332.082C224.481 331.803 223.892 331.4 223.396 330.873C222.9 330.346 222.466 329.695 222.156 328.92L223.551 328.61C223.675 329.013 223.923 329.416 224.264 329.788C224.605 330.16 225.008 330.47 225.504 330.749C226 331.028 226.527 331.183 227.147 331.276C227.767 331.369 228.418 331.338 229.1 331.183C230.061 330.966 230.867 330.594 231.487 330.067C232.107 329.54 232.572 328.92 232.882 328.207C233.192 327.494 233.347 326.719 233.409 325.913C233.44 325.107 233.378 324.27 233.192 323.464C233.006 322.658 232.727 321.914 232.324 321.17C231.921 320.457 231.456 319.837 230.867 319.31C230.278 318.814 229.596 318.442 228.821 318.225C228.046 318.008 227.147 318.008 226.186 318.225C225.38 318.411 224.698 318.721 224.109 319.124C223.52 319.527 223.086 320.023 222.745 320.612C222.404 321.201 222.218 321.821 222.156 322.534C222.094 323.247 222.156 323.991 222.342 324.766L227.333 323.619L227.612 324.797L221.381 326.223L219.676 318.752L220.668 318.535L220.699 318.597Z" fill="#231F20"/>
<path d="M210.004 336.608L208.175 315.621L209.291 315.528L211.12 336.515L210.004 336.608Z" fill="#231F20"/>
<circle cx="199.945" cy="196.735" r="75.7649" fill="#402E8F"/>
</svg>
