<svg width="424" height="428" viewBox="0 0 424 428" fill="none" xmlns="http://www.w3.org/2000/svg">
<rect width="424" height="428" rx="209.5" fill="white"/>
<path d="M209.197 370.773C208.436 370.773 207.779 370.634 207.156 370.392C206.568 370.15 206.049 369.838 205.599 369.389C205.184 368.973 204.838 368.454 204.63 367.832C204.423 367.243 204.319 366.551 204.319 365.79C204.319 365.029 204.492 364.372 204.734 363.783C204.976 363.195 205.322 362.711 205.772 362.296C206.222 361.88 206.741 361.604 207.364 361.396C207.986 361.188 208.678 361.119 209.405 361.154L215.252 361.327L215.46 354.13H217.052C217.052 354.165 216.567 370.98 216.567 370.98L209.128 370.773H209.197ZM209.786 362.572C208.678 362.572 207.779 362.78 207.052 363.334C206.36 363.887 205.98 364.718 205.945 365.894C205.945 367.07 206.222 367.935 206.914 368.524C207.571 369.112 208.471 369.423 209.578 369.458L215.079 369.631L215.287 362.78L209.786 362.607V362.572Z" fill="#231F20"/>
<path d="M191.828 369.112C191.136 369.008 190.513 368.835 189.925 368.593C189.337 368.351 188.853 368.005 188.437 367.589C188.022 367.174 187.711 366.69 187.538 366.067C187.33 365.479 187.296 364.821 187.399 364.06C187.538 362.988 187.953 362.123 188.61 361.431C189.268 360.739 190.133 360.358 191.24 360.289C190.721 360.081 190.271 359.874 189.96 359.631C189.648 359.355 189.372 359.078 189.199 358.697C189.026 358.351 188.922 357.936 188.853 357.486C188.818 357.036 188.818 356.587 188.853 356.068C188.853 355.791 188.922 355.445 188.956 355.03C188.991 354.614 189.026 354.199 189.026 353.784C189.026 353.369 189.026 352.954 188.956 352.573C188.922 352.192 188.818 351.881 188.68 351.673L190.41 351.916C190.479 352.089 190.513 352.296 190.548 352.504C190.548 352.746 190.548 352.988 190.548 353.23C190.548 353.473 190.548 353.715 190.513 353.957C190.513 354.199 190.513 354.407 190.479 354.58C190.41 355.168 190.41 355.756 190.375 356.344C190.34 356.933 190.444 357.486 190.583 357.971C190.756 358.455 191.032 358.87 191.413 359.216C191.794 359.562 192.382 359.77 193.108 359.839L199.129 360.704L200.167 353.334L201.758 353.542L199.406 370.184L191.794 369.112H191.828ZM193.074 361.258C192.589 361.188 192.14 361.188 191.655 361.258C191.205 361.327 190.79 361.5 190.41 361.742C190.029 361.984 189.752 362.261 189.475 362.642C189.233 363.022 189.06 363.437 188.991 363.956C188.853 364.994 189.026 365.825 189.545 366.517C190.064 367.174 190.894 367.624 192.105 367.797L198.022 368.627L198.956 362.088L193.039 361.258H193.074Z" fill="#231F20"/>
<path d="M180.375 366.932L184.043 350.531L185.6 350.877L181.932 367.278L180.375 366.932Z" fill="#231F20"/>
<path d="M173.317 365.202L168.231 348.698H168.196L163.941 362.261L162.418 361.777L167.435 345.757L169.131 346.276L174.217 362.78H174.251L178.507 349.251L180.03 349.736L175.013 365.756L173.317 365.237V365.202Z" fill="#231F20"/>
<path d="M146.537 355.064L147.09 353.819L152.453 356.171L158.681 342.055L160.135 342.712L153.907 356.829L159.235 359.182L158.681 360.427L146.502 355.064H146.537Z" fill="#231F20"/>
<path d="M134.219 350.082L146.26 329.875L147.333 330.498L135.292 350.705L134.219 350.082Z" fill="#231F20"/>
<path d="M121.556 339.633L126.504 324.685L112.733 332.47L110.899 330.983L121.487 317.938L122.732 318.942L113.598 330.221H113.632L127.23 322.575L128.407 323.509L123.563 338.283H123.597L132.732 327.038L133.977 328.042L123.39 341.086L121.556 339.598V339.633Z" fill="#231F20"/>
<path d="M110.553 323.682C109.549 324.166 108.546 324.443 107.508 324.512C106.47 324.582 105.432 324.409 104.394 324.028C103.356 323.647 102.387 322.955 101.487 321.987C100.588 321.018 99.9651 320.014 99.6537 318.976C99.3077 317.938 99.2385 316.9 99.3769 315.862C99.5153 314.824 99.8613 313.821 100.38 312.887C100.934 311.918 101.626 311.053 102.456 310.257C103.287 309.461 104.221 308.839 105.224 308.354C106.228 307.87 107.231 307.593 108.269 307.524C109.307 307.455 110.345 307.628 111.348 308.008C112.386 308.389 113.355 309.081 114.255 310.05C115.154 311.018 115.777 312.022 116.123 313.06C116.469 314.098 116.573 315.17 116.435 316.174C116.296 317.212 115.985 318.181 115.431 319.149C114.878 320.118 114.186 320.983 113.355 321.779C112.525 322.575 111.591 323.198 110.587 323.682H110.553ZM113.909 318.492C114.393 317.696 114.705 316.9 114.878 316.035C115.051 315.17 114.981 314.34 114.739 313.44C114.497 312.575 114.013 311.71 113.217 310.915C112.456 310.119 111.66 309.565 110.795 309.254C109.93 308.977 109.099 308.873 108.234 308.977C107.369 309.081 106.539 309.358 105.743 309.773C104.947 310.188 104.186 310.742 103.529 311.364C102.871 311.987 102.283 312.714 101.799 313.475C101.314 314.271 101.003 315.067 100.865 315.932C100.692 316.797 100.761 317.627 100.968 318.492C101.211 319.357 101.695 320.187 102.456 321.018C103.217 321.814 104.013 322.367 104.878 322.679C105.743 322.955 106.608 323.059 107.439 322.955C108.304 322.852 109.134 322.575 109.93 322.16C110.726 321.744 111.487 321.191 112.144 320.568C112.802 319.945 113.39 319.253 113.84 318.457L113.909 318.492Z" fill="#231F20"/>
<path d="M86.4365 302.957L87.5437 302.126L91.0729 306.797L103.425 297.524L104.394 298.805L92.0417 308.077L95.5363 312.748L94.4291 313.579L86.4711 302.957H86.4365Z" fill="#231F20"/>
<path d="M83.7031 298.597L97.8199 289.497L98.6849 290.847L84.5681 299.946L83.7031 298.597Z" fill="#231F20"/>
<path d="M85.3641 291.919C84.2915 292.127 83.2189 292.127 82.2155 291.919C81.1775 291.712 80.2433 291.296 79.3437 290.639C78.4441 289.982 77.7175 289.082 77.0947 287.906C76.4719 286.729 76.1605 285.622 76.1259 284.515C76.0913 283.408 76.2643 282.404 76.6795 281.435C77.0947 280.467 77.6829 279.602 78.4441 278.806C79.2053 278.01 80.1049 277.353 81.1429 276.799C82.1809 276.245 83.2189 275.899 84.2915 275.692C85.3641 275.484 86.4367 275.484 87.4401 275.692C88.4435 275.899 89.4123 276.315 90.2773 276.972C91.1423 277.629 91.9035 278.529 92.5263 279.705C93.1491 280.882 93.4605 281.989 93.5297 283.096C93.5989 284.203 93.3913 285.241 93.0107 286.176C92.5955 287.144 92.0419 288.009 91.2461 288.771C90.4849 289.566 89.5853 290.224 88.5473 290.777C87.5093 291.331 86.4713 291.677 85.3987 291.885L85.3641 291.919ZM89.9659 287.802C90.6233 287.179 91.1423 286.452 91.5229 285.691C91.9035 284.93 92.0765 284.065 92.0765 283.165C92.0765 282.266 91.7997 281.332 91.2807 280.328C90.7617 279.359 90.1389 278.598 89.3777 278.114C88.6165 277.629 87.8207 277.283 86.9903 277.18C86.1253 277.041 85.2603 277.11 84.3607 277.283C83.4611 277.491 82.6307 277.802 81.8003 278.218C80.9699 278.667 80.2433 279.186 79.5859 279.809C78.9285 280.432 78.4095 281.124 78.0289 281.92C77.6483 282.681 77.4753 283.546 77.4407 284.446C77.4407 285.345 77.6829 286.279 78.2019 287.283C78.7209 288.252 79.3437 289.013 80.1049 289.532C80.8661 290.051 81.6619 290.362 82.5269 290.466C83.3919 290.604 84.2569 290.57 85.1565 290.362C86.0561 290.155 86.8865 289.843 87.7169 289.428C88.5127 289.013 89.2739 288.459 89.9313 287.836L89.9659 287.802Z" fill="#231F20"/>
<path d="M71.0397 274.446L80.8661 260.26C80.8661 260.226 67.5797 265.243 67.5797 265.243L67.0261 263.755L82.7345 257.804L83.3573 259.464L73.5309 273.65C73.5309 273.685 86.8173 268.668 86.8173 268.668L87.3709 270.156L71.6625 276.107L71.0397 274.446Z" fill="#231F20"/>
<path d="M61.4553 249.569L84.3605 244.31L84.6373 245.521L61.7321 250.78L61.4553 249.569Z" fill="#231F20"/>
<path d="M59.9331 229.016L76.0221 220.816L76.1951 222.512L71.1781 225.072L71.9047 232.684L77.3023 234.206L77.4753 235.902L60.1061 230.816L59.9331 229.051V229.016ZM69.8633 225.729L61.5939 229.812L70.4861 232.338L69.8287 225.764L69.8633 225.729Z" fill="#231F20"/>
<path d="M59.3103 210.817C59.3103 210.125 59.4141 209.467 59.5871 208.845C59.7601 208.222 60.0369 207.703 60.4175 207.218C60.7635 206.769 61.2479 206.388 61.8015 206.146C62.3551 205.869 63.0125 205.765 63.7737 205.765C64.8463 205.765 65.7459 206.077 66.5417 206.63C67.3029 207.184 67.8219 208.014 67.9949 209.087H68.0295C68.1333 208.533 68.2717 208.083 68.4793 207.737C68.6869 207.391 68.9637 207.08 69.3097 206.872C69.6557 206.665 70.0363 206.492 70.4515 206.388C70.9013 206.284 71.3511 206.25 71.8701 206.215C72.1469 206.215 72.4929 206.215 72.9081 206.215C73.3233 206.215 73.7385 206.215 74.1537 206.146C74.5689 206.111 74.9495 206.042 75.3301 205.938C75.7107 205.834 75.9875 205.696 76.1951 205.558V207.322C76.0221 207.426 75.8145 207.495 75.5723 207.53C75.3301 207.564 75.1225 207.634 74.8803 207.634C74.6381 207.634 74.3959 207.668 74.1537 207.668C73.9115 207.668 73.7039 207.668 73.5309 207.703C72.9427 207.703 72.3545 207.772 71.7663 207.841C71.1781 207.91 70.6591 208.049 70.1747 208.256C69.7249 208.464 69.3443 208.81 69.0329 209.225C68.7561 209.64 68.6177 210.229 68.6177 210.99L68.5139 217.045L75.9875 217.149V218.74L59.1719 218.463L59.3103 210.782V210.817ZM67.3029 211.059C67.3029 210.575 67.2337 210.125 67.0953 209.675C66.9569 209.225 66.7493 208.845 66.4725 208.499C66.1957 208.153 65.8497 207.91 65.4691 207.703C65.0885 207.495 64.6041 207.391 64.0851 207.391C63.0471 207.391 62.2167 207.668 61.6285 208.256C61.0057 208.845 60.6943 209.744 60.6943 210.955L60.5905 216.941L67.1991 217.045L67.3029 211.059Z" fill="#231F20"/>
<path d="M60.0369 195.558L60.1753 194.347L76.8179 203.274L76.6795 204.52L60.0369 195.558Z" fill="#231F20"/>
<path d="M61.3517 188.534L76.8871 186.043L63.6353 177.393L64.1197 175.075L80.5893 178.466L80.2779 180.023L66.0573 177.082C66.0573 177.116 79.1015 185.697 79.1015 185.697L78.7901 187.185L63.4623 189.676C63.4623 189.711 77.6829 192.652 77.6829 192.652L77.3715 194.209L60.9019 190.818L61.3863 188.5L61.3517 188.534Z" fill="#231F20"/>
<path d="M68.3063 162.135C68.5485 161.477 68.8253 160.889 69.2059 160.37C69.5865 159.851 70.0017 159.401 70.4861 159.09C70.9705 158.778 71.5241 158.571 72.1469 158.502C72.7697 158.432 73.4271 158.502 74.1537 158.744C75.1571 159.09 75.9529 159.643 76.5065 160.439C77.0601 161.2 77.2677 162.135 77.1293 163.242H77.1639C77.4061 162.757 77.7175 162.377 78.0289 162.1C78.3403 161.823 78.6863 161.65 79.1015 161.546C79.4821 161.443 79.8973 161.408 80.3471 161.443C80.7969 161.477 81.2467 161.581 81.7311 161.719C82.0079 161.789 82.3193 161.892 82.7345 161.996C83.1151 162.1 83.5303 162.204 83.9455 162.308C84.3607 162.411 84.7413 162.446 85.1219 162.481C85.5025 162.481 85.8139 162.481 86.0561 162.377L85.4679 164.038C85.2949 164.072 85.0873 164.072 84.8451 164.038C84.6029 164.038 84.3607 163.968 84.1531 163.934C83.9109 163.865 83.6687 163.83 83.4611 163.761C83.2189 163.692 83.0459 163.657 82.8729 163.622C82.2847 163.449 81.7311 163.311 81.1429 163.173C80.5547 163.034 80.0357 163 79.5167 163.069C78.9977 163.138 78.5479 163.311 78.1327 163.622C77.7175 163.934 77.4061 164.453 77.1985 165.179L75.2263 170.923L82.2847 173.345L81.7657 174.867L65.8843 169.366L68.4101 162.1L68.3063 162.135ZM75.8145 164.868C75.9875 164.418 76.0567 163.934 76.0567 163.484C76.0567 163.034 75.9875 162.584 75.8145 162.169C75.6415 161.754 75.4339 161.408 75.0879 161.097C74.7765 160.785 74.3613 160.543 73.8769 160.37C72.9081 160.024 72.0431 160.059 71.2819 160.405C70.5207 160.785 69.9325 161.546 69.5519 162.688L67.6143 168.328L73.8769 170.473L75.8145 164.833V164.868Z" fill="#231F20"/>
<path d="M88.3743 157.291C88.6857 157.429 88.9971 157.602 89.2739 157.81C89.5507 158.017 89.7929 158.259 89.9659 158.536C90.1735 158.813 90.3119 159.124 90.4157 159.436C90.5195 159.747 90.5195 160.093 90.4849 160.439L89.5507 160.024C89.5507 159.816 89.5507 159.643 89.4123 159.436C89.3085 159.228 89.1701 159.055 89.0317 158.882C88.8933 158.709 88.6857 158.571 88.5127 158.432C88.3051 158.294 88.1321 158.225 87.9937 158.156L87.5785 159.055L85.2949 158.052L86.0907 156.253L88.3743 157.256V157.291Z" fill="#231F20"/>
<path d="M80.0701 136.565L88.8931 142.067C89.7235 142.586 90.4847 142.932 91.1767 143.105C91.8687 143.278 92.5261 143.312 93.1143 143.174C93.7025 143.035 94.2561 142.759 94.7405 142.343C95.2249 141.928 95.6747 141.409 96.0899 140.752C96.5051 140.094 96.7819 139.437 96.9549 138.814C97.1279 138.191 97.1279 137.603 96.9549 137.015C96.8165 136.427 96.5051 135.873 96.0553 135.32C95.6055 134.766 94.9481 134.247 94.1177 133.728L85.2947 128.227L86.1251 126.877L95.2595 132.552C95.9861 133.001 96.6089 133.555 97.1625 134.143C97.6815 134.766 98.0621 135.458 98.2697 136.185C98.4773 136.946 98.5119 137.742 98.3735 138.641C98.2351 139.506 97.8545 140.44 97.2317 141.444C96.6089 142.447 95.9515 143.174 95.2249 143.693C94.4983 144.212 93.7717 144.558 92.9759 144.696C92.2147 144.835 91.4189 144.8 90.6231 144.592C89.8273 144.385 89.0661 144.073 88.3395 143.589L79.2051 137.915L80.0355 136.565H80.0701Z" fill="#231F20"/>
<path d="M89.5505 122.102L98.0275 122.691L95.5363 114.49L96.6435 113.072L99.5499 122.656L110.068 123.21L108.892 124.732L99.8959 124.178L102.525 132.828L101.418 134.247L98.3389 124.178L88.4087 123.625L89.5851 122.137L89.5505 122.102Z" fill="#231F20"/>
<path d="M102.491 106.256L103.321 105.391L111.279 122.518L110.449 123.417L102.491 106.256Z" fill="#231F20"/>
<path d="M107.023 102.104L114.013 109.819C114.67 110.546 115.293 111.065 115.916 111.446C116.538 111.792 117.161 111.999 117.749 112.034C118.338 112.068 118.96 111.965 119.549 111.688C120.137 111.411 120.725 111.03 121.279 110.511C121.867 109.992 122.317 109.439 122.628 108.885C122.939 108.332 123.112 107.743 123.147 107.155C123.147 106.567 123.043 105.91 122.732 105.252C122.42 104.595 121.971 103.903 121.313 103.176L114.324 95.4604L115.5 94.3878L122.732 102.346C123.32 102.969 123.77 103.661 124.116 104.422C124.462 105.148 124.635 105.91 124.635 106.705C124.635 107.501 124.427 108.297 124.047 109.093C123.666 109.889 123.043 110.684 122.178 111.48C121.313 112.276 120.483 112.795 119.618 113.106C118.787 113.418 117.957 113.522 117.196 113.452C116.4 113.383 115.673 113.141 114.981 112.726C114.289 112.311 113.632 111.792 113.044 111.134L105.812 103.176L106.989 102.104H107.023Z" fill="#231F20"/>
<path d="M121.037 90.2358L131.278 103.557L129.998 104.526L119.756 91.2046L121.037 90.2358Z" fill="#231F20"/>
<path d="M137.195 79.4406C139.444 78.2296 141.485 77.8836 143.285 78.4372C145.084 78.9908 146.675 80.4786 148.094 82.866C149.478 85.288 149.962 87.3986 149.513 89.2324C149.063 91.0662 147.748 92.6578 145.568 93.9726L140.517 96.879L132.143 82.3124L137.195 79.406V79.4406ZM144.184 93.2114C145.222 92.6232 146.053 91.9658 146.675 91.3084C147.298 90.651 147.713 89.9244 147.921 89.1632C148.129 88.402 148.129 87.537 147.921 86.6374C147.713 85.7378 147.298 84.7344 146.675 83.6272C146.053 82.5546 145.395 81.6896 144.738 81.0322C144.046 80.3748 143.354 79.9596 142.558 79.752C141.797 79.5444 140.966 79.5444 140.067 79.752C139.167 79.9596 138.233 80.3748 137.16 80.963L134.219 82.6584L141.243 94.8376L144.184 93.1422V93.2114Z" fill="#231F20"/>
<path d="M158.993 68.8184L159.546 70.064L150.377 74.043L152.799 79.6136L161.38 75.8768L161.934 77.1224L153.353 80.8592L156.017 86.9488L165.29 82.9006L165.844 84.1462L155.083 88.8172L148.371 73.4202L158.993 68.7838V68.8184Z" fill="#231F20"/>
<path d="M168.508 79.7174C168.958 80.2018 169.442 80.5132 170.03 80.6862C170.618 80.8592 171.241 80.9284 171.933 80.8592C172.625 80.79 173.317 80.6516 174.078 80.444C174.494 80.3056 174.943 80.098 175.393 79.8212C175.843 79.5444 176.258 79.1984 176.604 78.8178C176.95 78.4372 177.192 77.9874 177.365 77.4684C177.504 76.984 177.504 76.4304 177.331 75.8422C177.192 75.3924 176.985 75.0464 176.673 74.7696C176.362 74.4928 176.016 74.3198 175.635 74.1814C175.255 74.043 174.84 73.9738 174.39 73.9738C173.94 73.9738 173.525 73.9738 173.144 73.9738L169.304 74.216C168.785 74.216 168.3 74.216 167.816 74.216C167.331 74.1814 166.847 74.043 166.432 73.87C166.017 73.6624 165.636 73.3856 165.29 73.005C164.944 72.6244 164.702 72.14 164.494 71.5172C164.356 71.1366 164.321 70.6522 164.287 70.064C164.287 69.5104 164.39 68.9222 164.667 68.334C164.944 67.7458 165.359 67.1576 165.982 66.6386C166.605 66.085 167.47 65.6352 168.577 65.2892C169.373 65.047 170.169 64.9086 170.93 64.9086C171.726 64.9086 172.452 65.0124 173.11 65.2546C173.767 65.4968 174.355 65.8774 174.874 66.3964C175.393 66.9154 175.774 67.5728 176.051 68.4032L174.528 68.8876C174.321 68.2994 174.009 67.7804 173.594 67.3998C173.213 67.0192 172.764 66.7424 172.279 66.5694C171.795 66.3964 171.241 66.2926 170.688 66.2926C170.134 66.2926 169.546 66.3964 168.992 66.5694C168.473 66.7424 167.989 66.95 167.539 67.2268C167.089 67.5036 166.709 67.815 166.432 68.161C166.155 68.507 165.947 68.9568 165.844 69.4066C165.74 69.891 165.774 70.41 165.982 71.0328C166.086 71.4134 166.259 71.7248 166.466 71.967C166.674 72.2092 166.916 72.3822 167.228 72.5206C167.504 72.659 167.816 72.7282 168.162 72.7628C168.508 72.7628 168.819 72.7628 169.2 72.7628L173.421 72.5206C174.044 72.5206 174.632 72.5206 175.186 72.5552C175.739 72.6244 176.293 72.7628 176.777 72.9358C177.262 73.1434 177.677 73.4548 178.057 73.8354C178.403 74.216 178.715 74.7696 178.922 75.427C178.992 75.6 179.026 75.8422 179.095 76.1536C179.165 76.465 179.165 76.811 179.095 77.1916C179.061 77.5722 178.957 77.9874 178.819 78.4026C178.68 78.8178 178.403 79.2676 178.023 79.6828C177.642 80.098 177.158 80.5132 176.535 80.8938C175.912 81.2744 175.116 81.6204 174.182 81.8972C173.248 82.174 172.314 82.347 171.449 82.3816C170.584 82.4162 169.788 82.3124 169.061 82.0356C168.335 81.7588 167.747 81.309 167.193 80.7208C166.674 80.098 166.259 79.3022 166.017 78.2988L167.539 77.8144C167.781 78.6448 168.127 79.3022 168.577 79.752L168.508 79.7174Z" fill="#231F20"/>
<path d="M181.172 62.2098L184.943 78.5756L183.386 78.9216L179.615 62.5558L181.172 62.2098Z" fill="#231F20"/>
<path d="M201.966 75.7384L201.343 72.7282H201.309C201.101 73.351 200.824 73.9046 200.478 74.4236C200.132 74.908 199.717 75.3232 199.267 75.6692C198.817 76.0152 198.298 76.292 197.745 76.4996C197.191 76.7072 196.603 76.8456 196.015 76.9494C194.7 77.1224 193.524 77.0532 192.486 76.7072C191.448 76.3612 190.513 75.8422 189.752 75.1502C188.991 74.4582 188.368 73.5932 187.884 72.6244C187.399 71.621 187.088 70.5484 186.915 69.4066C186.742 68.2648 186.777 67.123 186.915 66.0504C187.088 64.9778 187.469 63.9744 187.988 63.0748C188.541 62.1752 189.268 61.414 190.167 60.8258C191.102 60.203 192.209 59.8224 193.489 59.6148C194.354 59.4764 195.184 59.4764 196.015 59.6148C196.811 59.7532 197.572 59.9954 198.229 60.376C198.887 60.7566 199.509 61.2756 199.994 61.8984C200.513 62.5212 200.893 63.2824 201.205 64.182L199.613 64.3896C199.509 63.9052 199.267 63.4554 198.921 63.0056C198.575 62.5558 198.16 62.1752 197.641 61.8292C197.122 61.4832 196.534 61.241 195.842 61.068C195.184 60.895 194.423 60.8604 193.627 60.9988C192.52 61.1372 191.621 61.4832 190.859 62.0368C190.098 62.5904 189.545 63.2132 189.164 63.9744C188.749 64.7356 188.507 65.566 188.368 66.4656C188.264 67.3652 188.264 68.2648 188.368 69.199C188.507 70.0986 188.749 70.9636 189.095 71.8286C189.475 72.659 189.925 73.4202 190.548 74.0084C191.136 74.6312 191.863 75.081 192.728 75.3924C193.593 75.7038 194.562 75.773 195.669 75.6346C196.568 75.4962 197.399 75.254 198.056 74.8388C198.748 74.4236 199.302 73.9392 199.717 73.3164C200.132 72.6936 200.409 72.0016 200.547 71.2404C200.686 70.4446 200.686 69.6142 200.547 68.7492L194.873 69.545L194.665 68.1956L201.724 67.1922L202.9 75.6346L201.758 75.8076L201.966 75.7384Z" fill="#231F20"/>
<path d="M208.159 58.5423L218.159 72.5899H218.193L217.951 58.3693H219.543L219.82 75.1503H218.02L207.986 61.1373H207.952L208.194 75.3579H206.602L206.326 58.5769H208.125L208.159 58.5423Z" fill="#231F20"/>
<path d="M234.802 57.9194L232.068 81.2744L230.823 81.136L233.556 57.781L234.802 57.9194Z" fill="#231F20"/>
<path d="M259.367 64.5626L259.021 65.8774L249.333 63.4554L247.88 69.3374L256.98 71.5864L256.634 72.9012L247.534 70.6522L245.943 77.0878L255.769 79.5098L255.458 80.8246L244.074 77.9874L248.122 61.6908L259.367 64.4934V64.5626Z" fill="#231F20"/>
<path d="M263.658 65.9121V81.8972H263.692L273.899 69.6143L275.491 70.2025L263.9 83.8695L262.17 83.2467L262.066 65.3239L263.658 65.9121Z" fill="#231F20"/>
<path d="M289.4 76.8457L288.812 78.0567L279.816 73.6971L277.152 79.1639L285.56 83.2467L284.971 84.4577L276.564 80.3749L273.657 86.3261L282.757 90.7549L282.169 91.9659L271.616 86.8451L278.951 71.7249L289.4 76.8111V76.8457Z" fill="#231F20"/>
<path d="M295.04 80.098L295.697 97.3288H295.732L303.344 85.3571L304.693 86.2221L295.697 100.408L294.175 99.4393L293.517 82.2086H293.483L285.871 94.1801L284.521 93.3151L293.517 79.1292L295.04 80.098Z" fill="#231F20"/>
<path d="M318.256 96.8099L317.391 97.8825L312.824 94.2149L303.171 106.256L301.925 105.252L311.579 93.2115L307.011 89.5785L307.876 88.5059L318.256 96.8099Z" fill="#231F20"/>
<path d="M331.509 109.992L323.551 126.185L322.409 124.905L324.865 119.853L319.71 114.214L314.485 116.255L313.344 115.009L330.298 108.643L331.509 109.958V109.992ZM325.488 118.573L329.64 110.373L321.025 113.695L325.488 118.573Z" fill="#231F20"/>
<path d="M339.432 119.404L333.654 135.666C333.654 135.7 345.175 127.396 345.175 127.396L346.11 128.676L332.477 138.503L331.439 137.05L337.217 120.788C337.217 120.753 325.696 129.057 325.696 129.057L324.761 127.777L338.394 117.95L339.432 119.404Z" fill="#231F20"/>
<path d="M352.061 138.71C353.237 140.994 353.549 143.001 352.96 144.8C352.372 146.599 350.884 148.156 348.428 149.506C345.971 150.855 343.861 151.305 342.027 150.82C340.193 150.336 338.636 149.021 337.356 146.807L334.553 141.721L349.258 133.59L352.061 138.676V138.71ZM338.152 145.492C338.74 146.565 339.363 147.395 339.985 148.018C340.643 148.641 341.335 149.09 342.096 149.298C342.857 149.506 343.688 149.54 344.622 149.298C345.521 149.09 346.525 148.71 347.632 148.087C348.739 147.464 349.604 146.841 350.262 146.184C350.919 145.527 351.369 144.8 351.576 144.039C351.784 143.278 351.819 142.447 351.611 141.548C351.403 140.648 351.023 139.679 350.435 138.641L348.774 135.666L336.456 142.482L338.117 145.457L338.152 145.492Z" fill="#231F20"/>
<path d="M362.994 163.069C363.756 165.491 363.721 167.567 362.856 169.228C361.991 170.888 360.226 172.203 357.597 173.103C354.967 174.002 352.787 174.072 351.057 173.31C349.327 172.549 348.013 170.958 347.148 168.57L345.245 163.069L361.126 157.567L363.029 163.069H362.994ZM348.151 167.359C348.532 168.501 349.016 169.435 349.535 170.162C350.054 170.888 350.677 171.442 351.403 171.788C352.13 172.134 352.96 172.307 353.895 172.238C354.829 172.203 355.901 171.961 357.078 171.546C358.254 171.131 359.223 170.646 359.984 170.127C360.745 169.574 361.299 168.951 361.645 168.224C361.991 167.498 362.164 166.702 362.095 165.802C362.06 164.903 361.853 163.865 361.437 162.723L360.33 159.505L347.044 164.107L348.151 167.325V167.359Z" fill="#231F20"/>
<path d="M367.043 176.494L350.781 180.68L350.365 179.123L366.627 174.937L367.008 176.494H367.043Z" fill="#231F20"/>
<path d="M355.313 185.213C354.794 185.593 354.414 186.043 354.137 186.597C353.895 187.15 353.756 187.773 353.722 188.465C353.722 189.157 353.722 189.884 353.895 190.645C353.964 191.06 354.102 191.545 354.345 192.029C354.552 192.513 354.829 192.963 355.175 193.344C355.521 193.724 355.936 194.036 356.421 194.243C356.905 194.451 357.424 194.52 358.047 194.416C358.497 194.347 358.877 194.174 359.189 193.897C359.5 193.621 359.742 193.309 359.915 192.929C360.088 192.548 360.227 192.167 360.296 191.718C360.365 191.302 360.434 190.887 360.434 190.472L360.676 186.631C360.711 186.147 360.78 185.628 360.884 185.144C360.988 184.659 361.161 184.209 361.403 183.829C361.645 183.448 361.991 183.102 362.406 182.791C362.822 182.514 363.341 182.306 363.998 182.203C364.413 182.133 364.898 182.133 365.451 182.203C366.005 182.272 366.593 182.445 367.147 182.791C367.7 183.137 368.219 183.656 368.669 184.313C369.119 185.005 369.465 185.905 369.672 187.081C369.811 187.912 369.845 188.707 369.776 189.469C369.707 190.264 369.465 190.956 369.153 191.579C368.807 192.202 368.358 192.756 367.769 193.205C367.181 193.655 366.455 193.932 365.624 194.105L365.347 192.513C365.97 192.375 366.489 192.133 366.939 191.787C367.354 191.441 367.7 191.06 367.942 190.576C368.185 190.126 368.358 189.607 368.427 189.019C368.496 188.465 368.461 187.877 368.358 187.289C368.254 186.735 368.115 186.251 367.908 185.766C367.7 185.282 367.423 184.867 367.112 184.555C366.801 184.209 366.385 183.967 365.936 183.829C365.486 183.69 364.932 183.656 364.309 183.76C363.929 183.829 363.583 183.967 363.341 184.14C363.064 184.313 362.856 184.555 362.718 184.798C362.545 185.074 362.441 185.351 362.372 185.697C362.303 186.009 362.268 186.355 362.233 186.701L361.957 190.922C361.922 191.545 361.818 192.133 361.68 192.686C361.541 193.24 361.334 193.759 361.092 194.209C360.815 194.659 360.469 195.039 360.054 195.351C359.604 195.662 359.05 195.87 358.358 196.008C358.185 196.008 357.908 196.077 357.597 196.077C357.286 196.077 356.94 196.077 356.559 195.973C356.178 195.904 355.798 195.731 355.383 195.524C354.967 195.316 354.587 195.005 354.241 194.589C353.86 194.174 353.549 193.621 353.237 192.963C352.926 192.306 352.718 191.475 352.545 190.507C352.372 189.538 352.338 188.604 352.407 187.739C352.476 186.874 352.718 186.078 353.064 185.42C353.41 184.763 353.929 184.209 354.621 183.76C355.279 183.31 356.144 183.033 357.182 182.895L357.459 184.486C356.594 184.625 355.902 184.867 355.383 185.247L355.313 185.213Z" fill="#231F20"/>
<path d="M371.506 206.146C371.54 206.907 371.506 207.599 371.333 208.222C371.16 208.845 370.883 209.398 370.502 209.848C370.122 210.298 369.637 210.678 369.049 210.955C368.461 211.232 367.804 211.405 367.042 211.44C366.281 211.474 365.624 211.44 365.001 211.232C364.378 211.024 363.859 210.748 363.409 210.332C362.96 209.917 362.614 209.433 362.371 208.81C362.129 208.222 361.956 207.53 361.922 206.803L361.541 200.956L354.344 201.406L354.24 199.814L371.021 198.741L371.506 206.18V206.146ZM363.271 206.319C363.34 207.426 363.686 208.326 364.274 208.948C364.897 209.606 365.762 209.883 366.939 209.813C368.115 209.744 368.945 209.329 369.464 208.602C369.983 207.876 370.191 206.942 370.122 205.834L369.776 200.333L362.925 200.783L363.271 206.284V206.319Z" fill="#231F20"/>
<path d="M371.748 217.356L356.316 216.803L355.97 226.214H354.621C354.621 226.179 355.002 215.176 355.002 215.176L371.783 215.765L371.713 217.356H371.748Z" fill="#231F20"/>
<path d="M370.122 237.251L352.58 241.472L352.822 239.777L358.289 238.462L359.327 230.885L354.414 228.151L354.656 226.491L370.364 235.487L370.122 237.251ZM359.673 238.116L368.634 236.075L360.572 231.577L359.673 238.116Z" fill="#231F20"/>
<path d="M369.188 243.86L368.738 245.694L359.154 249.084L366.178 256.42L365.728 258.288L357.666 249.534L350.954 247.943L351.334 246.386L358.047 247.977L369.188 243.86Z" fill="#231F20"/>
<path d="M362.994 271.194L341.023 262.855L341.473 261.679L363.444 270.017L362.994 271.194Z" fill="#231F20"/>
<path d="M352.511 289.809C352.165 290.466 351.749 291.02 351.265 291.469C350.781 291.919 350.262 292.231 349.708 292.404C349.12 292.611 348.532 292.646 347.909 292.577C347.286 292.507 346.629 292.3 345.971 291.919C345.314 291.573 344.76 291.158 344.345 290.639C343.93 290.12 343.653 289.601 343.48 289.047C343.307 288.459 343.307 287.836 343.411 287.214C343.515 286.591 343.757 285.933 344.103 285.276L346.871 280.121L340.539 276.73L341.3 275.311L356.109 283.235L352.58 289.809H352.511ZM345.418 285.622C344.899 286.591 344.726 287.525 344.899 288.39C345.072 289.255 345.66 289.982 346.698 290.535C347.736 291.089 348.635 291.193 349.466 290.847C350.296 290.501 350.954 289.843 351.473 288.874L354.068 284.03L348.013 280.778L345.418 285.622Z" fill="#231F20"/>
<path d="M344.933 302.195L327.322 298.355L328.291 296.936L333.757 298.147L338.013 291.781L334.795 287.214L335.73 285.795L345.937 300.742L344.933 302.23V302.195ZM335.176 298.424L344.137 300.5L338.844 292.923L335.176 298.424Z" fill="#231F20"/>
<path d="M328.775 317.454C329.363 317.523 329.951 317.523 330.505 317.385C331.059 317.246 331.612 317.039 332.097 316.727C332.581 316.416 333.031 316.035 333.446 315.551C334.173 314.686 334.622 313.821 334.83 312.956C335.038 312.056 335.038 311.226 334.83 310.361C334.622 309.531 334.276 308.735 333.757 307.974C333.238 307.212 332.65 306.555 331.924 305.932C331.232 305.344 330.47 304.86 329.64 304.479C328.81 304.098 327.945 303.856 327.114 303.787C326.249 303.718 325.384 303.856 324.554 304.202C323.723 304.548 322.928 305.136 322.201 305.967C321.682 306.555 321.336 307.178 321.163 307.87C320.955 308.527 320.921 309.185 320.99 309.842C321.059 310.499 321.267 311.157 321.578 311.78C321.89 312.402 322.305 313.025 322.824 313.544L321.786 314.755C321.059 313.994 320.506 313.198 320.125 312.402C319.744 311.572 319.502 310.742 319.468 309.911C319.398 309.081 319.537 308.25 319.814 307.455C320.09 306.624 320.575 305.863 321.198 305.102C322.063 304.098 322.997 303.372 324 302.922C325.004 302.472 326.042 302.265 327.08 302.265C328.118 302.265 329.156 302.507 330.159 302.922C331.162 303.337 332.131 303.96 332.996 304.687C333.896 305.448 334.622 306.278 335.211 307.212C335.799 308.147 336.179 309.115 336.387 310.153C336.56 311.191 336.525 312.229 336.249 313.302C335.972 314.375 335.384 315.413 334.553 316.416C334.034 317.039 333.446 317.558 332.754 317.973C332.097 318.388 331.37 318.7 330.609 318.873C329.848 319.046 329.086 319.08 328.291 318.942C327.495 318.838 326.734 318.527 326.007 318.042L327.045 316.831C327.633 317.143 328.221 317.35 328.81 317.419L328.775 317.454Z" fill="#231F20"/>
<path d="M325.073 326.104L318.914 319.495L317.911 332.747L316.319 334.235L317.08 324.028L304.624 322.16L306.147 320.741L317.219 322.402L317.53 318.008L313.62 313.786L314.797 312.714L326.249 324.997L325.073 326.069V326.104Z" fill="#231F20"/>
<path d="M307.738 340.774L292.445 331.225L293.829 330.187L298.569 333.162L304.693 328.595L303.206 323.198L304.555 322.194L309.157 339.702L307.704 340.774H307.738ZM299.815 333.958L307.565 338.941L305.143 330.014L299.849 333.958H299.815Z" fill="#231F20"/>
<path d="M279.297 338.837L280.992 341.397H281.027C280.992 340.705 281.027 340.082 281.165 339.529C281.304 338.941 281.546 338.422 281.823 337.937C282.134 337.453 282.48 337.003 282.93 336.622C283.38 336.242 283.864 335.896 284.383 335.584C285.525 334.927 286.667 334.546 287.739 334.477C288.847 334.408 289.885 334.546 290.853 334.892C291.822 335.273 292.722 335.827 293.517 336.553C294.313 337.314 295.005 338.179 295.593 339.183C296.182 340.186 296.562 341.224 296.804 342.297C297.047 343.369 297.081 344.407 296.908 345.445C296.735 346.483 296.355 347.452 295.697 348.352C295.075 349.251 294.175 350.047 293.033 350.705C292.272 351.154 291.476 351.466 290.68 351.639C289.885 351.812 289.089 351.881 288.327 351.743C287.566 351.604 286.84 351.397 286.113 351.016C285.387 350.635 284.764 350.082 284.141 349.355L285.525 348.559C285.802 348.975 286.182 349.321 286.667 349.597C287.151 349.874 287.705 350.082 288.293 350.22C288.881 350.359 289.538 350.359 290.23 350.255C290.922 350.151 291.614 349.909 292.306 349.528C293.275 348.975 294.002 348.317 294.486 347.556C294.971 346.795 295.248 345.964 295.351 345.134C295.455 344.269 295.351 343.404 295.144 342.504C294.901 341.605 294.59 340.774 294.106 339.979C293.656 339.183 293.102 338.456 292.445 337.833C291.788 337.176 291.061 336.692 290.3 336.346C289.504 336 288.674 335.827 287.774 335.861C286.874 335.861 285.94 336.173 284.971 336.726C284.176 337.176 283.518 337.73 283.034 338.352C282.549 338.975 282.238 339.667 282.065 340.394C281.892 341.12 281.892 341.882 282.065 342.643C282.238 343.404 282.515 344.2 282.999 344.961L287.947 342.124L288.639 343.3L282.445 346.829L278.19 339.425L279.193 338.837H279.297Z" fill="#231F20"/>
<path d="M280.37 356.829L273.311 341.57L274.764 340.913L281.823 356.171L280.37 356.829Z" fill="#231F20"/>
<path d="M273.726 359.77L259.644 349.805H259.61L264.488 363.161L263 363.714L257.222 347.937L258.918 347.314L273 357.279H273.034L268.156 343.923L269.644 343.369L275.422 359.147L273.726 359.77Z" fill="#231F20"/>
<path d="M240.683 351.95L241.583 354.891H241.618C241.756 354.234 241.998 353.646 242.31 353.161C242.621 352.642 243.002 352.192 243.417 351.812C243.832 351.431 244.316 351.12 244.87 350.878C245.389 350.635 245.977 350.428 246.565 350.289C247.846 350.013 249.022 349.978 250.095 350.22C251.167 350.462 252.136 350.912 252.932 351.535C253.762 352.158 254.454 352.954 255.008 353.922C255.561 354.857 255.977 355.929 256.219 357.036C256.461 358.178 256.565 359.285 256.461 360.393C256.357 361.5 256.115 362.503 255.631 363.437C255.181 364.372 254.489 365.167 253.624 365.859C252.759 366.551 251.686 367.036 250.406 367.347C249.541 367.555 248.711 367.624 247.88 367.555C247.05 367.486 246.289 367.313 245.597 367.001C244.905 366.69 244.247 366.24 243.694 365.652C243.14 365.064 242.656 364.337 242.31 363.472L243.867 363.126C244.005 363.576 244.282 364.026 244.662 364.441C245.043 364.856 245.493 365.202 246.046 365.513C246.6 365.825 247.188 365.998 247.88 366.102C248.572 366.205 249.299 366.171 250.06 365.998C251.133 365.756 252.032 365.34 252.724 364.752C253.416 364.164 253.935 363.472 254.281 362.676C254.627 361.88 254.8 361.015 254.869 360.116C254.904 359.216 254.835 358.282 254.627 357.382C254.42 356.483 254.108 355.652 253.658 354.822C253.209 354.026 252.69 353.334 252.032 352.746C251.375 352.192 250.614 351.777 249.749 351.535C248.884 351.293 247.88 351.293 246.808 351.535C245.908 351.743 245.147 352.089 244.489 352.538C243.832 352.988 243.348 353.542 242.967 354.199C242.586 354.857 242.379 355.549 242.31 356.344C242.24 357.14 242.31 357.971 242.517 358.836L248.088 357.555L248.399 358.87L241.445 360.462L239.542 352.123L240.649 351.881L240.683 351.95Z" fill="#231F20"/>
<path d="M228.746 372.053L226.705 348.629L227.951 348.525L229.992 371.949L228.746 372.053Z" fill="#231F20"/>
<circle cx="216.519" cy="216.937" r="84.5634" fill="#402E8F"/>
</svg>
