<?xml version="1.0" encoding="UTF-8"?>
<svg id="Layer_1" xmlns="http://www.w3.org/2000/svg" version="1.1" viewBox="0 0 390 394">
  <!-- Generator: Adobe Illustrator 29.5.0, SVG Export Plug-In . SVG Version: 2.1.0 Build 137)  -->
  <defs>
    <style>
      .st0 {
        fill: #231f20;
      }

      .st1 {
        fill: #5000ff;
      }
    </style>
  </defs>
  <circle class="st1" cx="196.2" cy="196" r="75.8"/>
  <g>
    <path class="st0" d="M193.6,354.2c-.5,0-.9,0-1.3-.2-.4-.1-.7-.3-1-.6-.3-.3-.5-.6-.6-1-.1-.4-.2-.8-.2-1.3,0-.5,0-.9.2-1.3.2-.4.4-.7.7-1,.3-.3.6-.5,1-.6.4-.1.8-.2,1.3-.2h3.7c0,0,0-4.5,0-4.5h1s-.2,10.7-.2,10.7h-4.8ZM193.9,348.9c-.7,0-1.3.2-1.7.5-.4.4-.7.9-.7,1.6,0,.7.2,1.3.6,1.7.4.4,1,.6,1.7.6h3.5c0,0,0-4.3,0-4.3h-3.5Z"/>
    <path class="st0" d="M182.1,353.6c-.4,0-.9-.1-1.2-.3s-.7-.3-1-.6c-.3-.2-.5-.6-.6-.9-.1-.4-.2-.8-.2-1.3,0-.7.3-1.3.7-1.7.4-.5.9-.7,1.6-.8h0c-.3-.1-.6-.2-.8-.4s-.4-.3-.5-.6c-.1-.2-.2-.5-.3-.8s0-.6,0-.9c0-.2,0-.4,0-.7,0-.3,0-.5,0-.8,0-.3,0-.5,0-.8,0-.2-.1-.4-.2-.6h1.1c0,.2,0,.3.1.5,0,.1,0,.3,0,.5s0,.3,0,.5c0,.2,0,.3,0,.4,0,.4,0,.8,0,1.1s0,.7.2,1c.1.3.3.6.6.8.3.2.6.3,1.1.3l3.9.3.4-4.7h1c0,0-.9,10.8-.9,10.8l-4.9-.4ZM182.6,348.5c-.3,0-.6,0-.9,0s-.5.2-.8.4c-.2.2-.4.4-.6.6-.1.2-.2.5-.3.9,0,.7,0,1.2.4,1.6.3.4.9.6,1.7.7l3.8.3.3-4.2-3.8-.3Z"/>
    <path class="st0" d="M174.1,352.7l1.5-10.6h1c0,.1-1.5,10.8-1.5,10.8h-1Z"/>
    <path class="st0" d="M168.9,351.9l-4.4-10.1h0s-1.7,8.9-1.7,8.9l-1-.2,2-10.5,1.1.2,4.4,10.1h0s1.7-8.9,1.7-8.9l1,.2-2,10.5-1.1-.2Z"/>
    <path class="st0" d="M150.6,347.6l.2-.8,3.6,1,2.6-9.5,1,.3-2.6,9.5,3.6,1-.2.8-8.2-2.2Z"/>
    <path class="st0" d="M143.5,340.6c-.2.3-.5.4-.8.6-.3.1-.6.2-1,.2-.4,0-.7,0-1-.2-.3-.1-.6-.3-.9-.6-.3-.2-.5-.5-.6-.8-.1-.3-.2-.6-.2-1,0-.4,0-.7.2-1,.1-.3.3-.6.6-.9.2-.3.5-.5.8-.6.3-.1.7-.2,1-.2.4,0,.7,0,1,.2.3.1.6.3.9.6.3.2.4.5.6.8.1.3.2.6.2,1s0,.7-.2,1c-.1.3-.3.6-.6.9Z"/>
    <path class="st0" d="M124.2,336.9l1.1-11.5,1,.5-.3,3.6,4.4,2.2,2.7-2.4,1,.5-8.7,7.6-1-.5ZM125.8,330.4l-.6,5.8,4.4-3.9-3.8-1.9Z"/>
    <path class="st0" d="M117.1,333l5.3-9.3.9.5-5.3,9.3-.9-.5Z"/>
    <path class="st0" d="M110.9,324.1c-.3.2-.6.3-1,.4-.3,0-.7,0-1,0-.3,0-.7-.2-1-.4s-.6-.5-.7-.8c-.2-.3-.3-.6-.4-1,0-.3,0-.7,0-1,0-.3.2-.7.4-1,.2-.3.5-.6.8-.7.3-.2.6-.3,1-.4s.7,0,1,0,.7.2,1,.4c.3.2.6.5.7.8.2.3.3.6.4,1,0,.3,0,.7,0,1,0,.3-.2.7-.4,1-.2.3-.5.6-.8.7Z"/>
    <path class="st0" d="M93,315.9l3.8-10.9.8.7-1.2,3.4,3.7,3.2,3.1-1.7.8.7-10.2,5.3-.9-.7ZM96.1,310l-2,5.5,5.2-2.8-3.2-2.7Z"/>
    <path class="st0" d="M86.8,310.3l2-10.8h0s-6.4,6.4-6.4,6.4l-.7-.7,7.6-7.6.8.8-2,10.8h0s6.4-6.4,6.4-6.4l.7.7-7.6,7.6-.8-.8Z"/>
    <path class="st0" d="M78.2,301.3l8-7.2.7.8-8,7.2-.7-.8Z"/>
    <path class="st0" d="M74.5,297.1l5.1-8.6-9.7,2.9-.9-1.2,8.4-6.7.6.8-7.3,5.8h0s9.5-2.9,9.5-2.9l.6.8-5.1,8.5h0s7.3-5.7,7.3-5.7l.6.8-8.4,6.7-.9-1.2Z"/>
    <path class="st0" d="M64.2,283.3l6.6-9.4.6.9-2,2.9,2.7,4.1,3.5-.8.6.9-11.3,2.4-.6-.9ZM68.8,278.4l-3.4,4.8,5.8-1.3-2.3-3.5Z"/>
    <path class="st0" d="M57.2,271.8l.8-.4,1.9,3.2,8.5-5,.5.9-8.5,5,1.9,3.2-.8.4-4.3-7.3Z"/>
    <path class="st0" d="M55.5,268.3l9.5-4.9.5.9-9.5,4.9-.5-.9Z"/>
    <path class="st0" d="M56.6,263.5c-.7,0-1.4,0-2-.1s-1.2-.5-1.8-.9c-.5-.5-1-1.1-1.3-1.8-.3-.8-.5-1.5-.5-2.2s.2-1.3.5-1.9.7-1.1,1.2-1.6c.5-.5,1.1-.8,1.8-1.2.7-.3,1.4-.5,2.1-.6.7,0,1.4,0,2,.1s1.2.5,1.8.9c.5.5,1,1.1,1.3,1.8.3.8.5,1.5.5,2.2,0,.7-.2,1.4-.5,1.9-.3.6-.7,1.1-1.2,1.6-.5.5-1.1.8-1.8,1.2s-1.4.5-2.1.6ZM59.7,261.1c.5-.4.8-.8,1.1-1.3.3-.5.4-1,.5-1.6,0-.6,0-1.2-.4-1.8s-.7-1.1-1.1-1.5c-.5-.4-.9-.6-1.5-.7-.5-.1-1.1-.1-1.7,0s-1.1.3-1.7.5c-.5.2-1,.5-1.5.9-.4.4-.8.8-1.1,1.3-.3.5-.4,1-.5,1.6,0,.6,0,1.2.4,1.8.3.6.7,1.2,1.1,1.5.5.4,1,.6,1.5.7.5.1,1.1.1,1.7,0s1.1-.3,1.7-.5c.5-.2,1-.5,1.5-.9Z"/>
    <path class="st0" d="M47.9,251.4l6.5-8.9h0s-8.6,3-8.6,3l-.3-1,10.1-3.6.4,1.1-6.5,8.9h0s8.6-3,8.6-3l.3,1-10.1,3.6-.4-1.1Z"/>
    <path class="st0" d="M46.9,233.7c-.3,0-.7-.2-1-.4-.3-.2-.5-.4-.7-.7-.2-.3-.4-.6-.4-1,0-.4,0-.7,0-1.1,0-.3.2-.7.4-1,.2-.3.4-.5.7-.8s.6-.4,1-.4c.4,0,.7,0,1.1,0,.3,0,.7.2,1,.4.3.2.5.4.8.7.2.3.4.6.4,1,0,.4,0,.7,0,1.1,0,.3-.2.7-.4,1-.2.3-.4.5-.7.8-.3.2-.6.4-1,.4-.4,0-.7,0-1.1,0Z"/>
    <path class="st0" d="M39.2,215.6l10.1-5.5v1.1c.1,0-3,1.7-3,1.7l.6,4.8,3.5.9v1.1c.1,0-11-2.9-11-2.9v-1.1ZM45.5,213.3l-5.2,2.7,5.7,1.4-.5-4.2Z"/>
    <path class="st0" d="M38.4,207.5l6.6-.3c.6,0,1.1-.1,1.6-.3.4-.2.8-.4,1-.7.3-.3.4-.6.5-1s.1-.8.1-1.3c0-.5-.1-.9-.3-1.3-.1-.4-.4-.7-.7-1-.3-.3-.7-.4-1.1-.6-.4-.1-1-.2-1.6-.1l-6.6.3v-1c0,0,6.8-.4,6.8-.4.5,0,1.1,0,1.6.2.5.1.9.4,1.3.7s.7.7.9,1.2c.2.5.4,1.1.4,1.9,0,.7,0,1.4-.2,1.9-.2.5-.5,1-.8,1.3-.4.4-.8.6-1.3.8s-1,.3-1.6.3l-6.9.4v-1Z"/>
    <path class="st0" d="M48.9,187.9h-2c0,0,0,.1,0,.1.4.2.7.4,1,.7.3.3.5.6.7.9.2.3.3.7.4,1,0,.4,0,.7,0,1.1,0,.8-.2,1.6-.5,2.2-.3.6-.7,1.1-1.3,1.5s-1.1.7-1.8.9c-.7.2-1.4.3-2.1.3s-1.4-.1-2.1-.4c-.7-.2-1.2-.6-1.8-1-.5-.4-.9-1-1.2-1.6-.3-.6-.4-1.4-.4-2.2,0-.6.1-1.1.3-1.6.2-.5.4-.9.7-1.3.3-.4.7-.7,1.1-1,.4-.3,1-.4,1.6-.5v1c-.3,0-.7.1-1,.3-.3.2-.6.4-.9.7-.3.3-.5.6-.7,1-.2.4-.3.9-.3,1.4,0,.7,0,1.3.4,1.8.3.5.6.9,1,1.3.4.3.9.6,1.5.8.6.2,1.1.3,1.7.3.6,0,1.2,0,1.7-.2.6-.1,1.1-.4,1.5-.7.5-.3.8-.7,1.1-1.2.3-.5.4-1.1.5-1.8,0-.6,0-1.1-.2-1.6s-.4-.9-.8-1.2c-.3-.3-.7-.6-1.2-.8-.5-.2-1-.3-1.6-.3v3.6c0,0-1,0-1,0v-4.5c.1,0,5.6.1,5.6.1v.7Z"/>
    <path class="st0" d="M38.6,181.3l9.7-2.5-8.9-4.7.2-1.5,10.6,1.2v1c-.1,0-9.3-1.1-9.3-1.1h0s8.8,4.7,8.8,4.7v1c-.1,0-9.7,2.4-9.7,2.4h0s9.2,1.1,9.2,1.1v1c-.1,0-10.8-1.2-10.8-1.2l.2-1.5Z"/>
    <path class="st0" d="M41.8,161.3l.9.2-1.2,6.3,3.8.7,1.2-5.9.9.2-1.2,5.9,4.2.8,1.2-6.3.9.2-1.4,7.3-10.5-2.1,1.4-7.3Z"/>
    <path class="st0" d="M42.9,156.7l10.4-3.6h0s-8.7-2.4-8.7-2.4l.3-1,10.3,2.9-.3,1.1-10.4,3.6h0s8.7,2.4,8.7,2.4l-.3,1-10.3-2.9.3-1.1Z"/>
    <path class="st0" d="M48.6,138.8l.8.3-1.3,3.5,9.3,3.3-.3,1-9.3-3.3-1.3,3.5-.8-.3,2.8-8Z"/>
    <path class="st0" d="M52.6,129.3l.8.3-2.5,5.9,3.6,1.5,2.4-5.5.8.3-2.4,5.5,3.9,1.7,2.6-5.9.8.3-3,6.9-9.8-4.3,2.9-6.8Z"/>
    <path class="st0" d="M55.9,122.8c.8-1.4,1.8-2.3,2.9-2.6,1.2-.3,2.5,0,4.1.8,1.6.8,2.6,1.8,3,2.9.4,1.1.2,2.4-.5,3.9l-1.7,3.3-9.5-5,1.7-3.3ZM64.4,127.8c.4-.7.6-1.3.7-1.9.1-.6,0-1.1,0-1.6-.2-.5-.4-.9-.9-1.4-.4-.4-1-.8-1.7-1.2-.7-.4-1.4-.6-1.9-.7-.6-.1-1.1,0-1.6,0-.5.2-.9.4-1.3.8-.4.4-.8,1-1.1,1.6l-1,1.9,7.9,4.2,1-1.9Z"/>
    <path class="st0" d="M65.9,106.2c.2-.4.5-.7.8-.9.3-.3.6-.5,1-.6.4-.1.7-.1,1.1,0,.4,0,.8.2,1.2.5.6.4,1,.9,1.2,1.4.2.6.2,1.2,0,1.8h0c.2-.2.5-.4.7-.5.2-.1.5-.2.7-.2.3,0,.5,0,.8.1.3.1.5.2.8.4.2,0,.3.2.6.3.2.1.4.3.7.4.2.1.5.2.7.3.2,0,.4.1.6,0l-.6.9c-.1,0-.2,0-.4,0-.1,0-.3-.1-.4-.2-.1,0-.3-.2-.4-.2-.1,0-.2-.1-.3-.2-.3-.2-.7-.4-1-.6s-.7-.3-1-.3c-.3,0-.6,0-.9.1s-.6.4-.8.8l-2.2,3.2,3.9,2.7-.6.8-8.9-6,2.8-4.1ZM70.1,109.1c.2-.3.3-.5.4-.8,0-.3.1-.6,0-.8,0-.3-.1-.5-.3-.8s-.3-.5-.6-.6c-.5-.4-1.1-.5-1.6-.4-.5.1-1,.5-1.5,1.1l-2.1,3.2,3.5,2.4,2.1-3.2Z"/>
    <path class="st0" d="M74.7,94.6l.7.5-4,5,3,2.4,3.7-4.7.7.5-3.7,4.7,3.3,2.6,4-5.1.7.5-4.6,5.9-8.4-6.7,4.6-5.8Z"/>
    <path class="st0" d="M79.8,88.8l10.7,4.1-.7.8-3.3-1.3-3.3,3.6,1.6,3.2-.7.8-5-10.4.8-.8ZM85.6,92.1l-5.5-2.2,2.6,5.3,2.8-3.1Z"/>
    <path class="st0" d="M85.5,82.9l6.8,7.1,4.3-4.1.6.6-5.1,4.9-7.4-7.7.7-.7Z"/>
    <path class="st0" d="M92.8,76.2l7,8.1-.8.7-7-8.1.8-.7Z"/>
    <path class="st0" d="M101.7,69l.5.7-2.9,2.3,6.1,7.7-.8.6-6.1-7.7-2.9,2.3-.5-.7,6.7-5.2Z"/>
    <path class="st0" d="M103.1,67.9l1-.7,6,2.5-.2-6.5,1-.7v7.6c0,0,2.6,3.6,2.6,3.6l-.8.6-2.5-3.6-7-2.8Z"/>
    <path class="st0" d="M120.7,61.8c0-.4,0-.7,0-1,0-.3.3-.6.5-.9.2-.3.5-.5.8-.7.3-.2.7-.3,1-.3.4,0,.7,0,1,0,.3,0,.6.3.9.5.3.2.5.5.7.8.2.3.3.7.3,1,0,.4,0,.7,0,1,0,.3-.3.6-.5.9-.2.3-.5.5-.8.7-.3.2-.7.3-1,.3-.4,0-.7,0-1-.1-.3-.1-.6-.3-.9-.5-.3-.2-.5-.5-.7-.8s-.3-.7-.3-1Z"/>
    <path class="st0" d="M133.1,50.8l2.5,6.1c.2.6.5,1,.8,1.4.3.3.6.6,1,.8.4.2.7.2,1.1.2.4,0,.8-.1,1.3-.3.5-.2.9-.4,1.2-.7.3-.3.5-.6.7-.9.1-.4.2-.8.2-1.2,0-.5-.2-1-.4-1.5l-2.5-6.1.9-.4,2.6,6.3c.2.5.3,1,.4,1.5,0,.5,0,1-.2,1.5-.2.5-.5.9-.9,1.3-.4.4-1,.7-1.6,1-.7.3-1.3.4-1.9.4-.6,0-1.1-.1-1.5-.3-.5-.2-.8-.5-1.2-.9-.3-.4-.6-.9-.8-1.4l-2.6-6.3.9-.4Z"/>
    <path class="st0" d="M143.8,46.6l4.3,3.3,1.6-5.2,1.1-.4-1.8,6.1,5.4,4-1.2.4-4.6-3.5-1.7,5.5-1.1.4,1.9-6.4-5.1-3.8,1.1-.4Z"/>
    <path class="st0" d="M156.9,42.4l.7-.2-1.5,12-.8.2,1.6-12Z"/>
    <path class="st0" d="M161.3,41.6l1.3,6.5c.1.6.3,1.1.5,1.5.2.4.5.7.8.9.3.2.7.3,1.1.4.4,0,.9,0,1.3,0,.5-.1.9-.3,1.3-.5.4-.2.6-.5.9-.8.2-.3.3-.7.4-1.2s0-1-.1-1.6l-1.3-6.5,1-.2,1.4,6.7c.1.5.1,1.1,0,1.6s-.2,1-.5,1.4-.6.8-1.1,1.1c-.5.3-1.1.5-1.8.7-.7.1-1.4.2-1.9,0-.6-.1-1-.3-1.4-.6-.4-.3-.7-.7-1-1.1s-.4-1-.5-1.5l-1.4-6.7,1-.2Z"/>
    <path class="st0" d="M173.4,39.4l1.6,10.6h-1c0,.1-1.6-10.5-1.6-10.5h1Z"/>
    <path class="st0" d="M187,38c1.6,0,2.9.3,3.8,1.2.9.8,1.4,2.1,1.5,3.9,0,1.8-.2,3.1-1,4-.8.9-2,1.4-3.6,1.6l-3.7.2-.6-10.7,3.7-.2ZM187.1,47.8c.8,0,1.4-.2,2-.4.5-.2,1-.5,1.3-.9.3-.4.6-.9.7-1.4.1-.6.2-1.3.1-2.1,0-.8-.2-1.5-.4-2-.2-.6-.5-1-.9-1.4-.4-.3-.9-.6-1.4-.7-.6-.1-1.2-.2-2-.1h-2.2c0,.1.5,9.1.5,9.1h2.2Z"/>
    <path class="st0" d="M203,37.8v.9s-6.4-.1-6.4-.1v3.9c0,0,5.9.1,5.9.1v.9s-6-.1-6-.1v4.2c0,0,6.4.1,6.4.1v.9s-7.5-.1-7.5-.1l.2-10.7h7.4Z"/>
    <path class="st0" d="M206.5,46.6c.1.4.4.7.7.9.3.2.7.4,1.1.6.4.1.9.2,1.4.3.3,0,.6,0,.9,0,.3,0,.7-.2,1-.3.3-.1.6-.4.8-.6.2-.3.3-.6.4-1,0-.3,0-.6-.1-.8-.1-.2-.3-.4-.5-.6-.2-.2-.4-.3-.7-.4-.3-.1-.5-.2-.7-.3l-2.3-.8c-.3-.1-.6-.2-.9-.4-.3-.1-.5-.3-.7-.5-.2-.2-.4-.5-.5-.8-.1-.3-.1-.7-.1-1.1,0-.3,0-.6.2-.9.1-.3.3-.7.6-.9.3-.3.7-.5,1.2-.7.5-.2,1.1-.2,1.9-.2.5,0,1,.2,1.5.3.5.2.9.4,1.2.7.3.3.6.7.8,1.1.2.4.2.9.2,1.5h-1c0-.5,0-.9-.2-1.2-.1-.3-.3-.6-.6-.8-.2-.2-.5-.4-.9-.5-.3-.1-.7-.2-1.1-.3-.3,0-.7,0-1,0-.3,0-.6.1-.9.3-.3.1-.5.3-.6.6s-.3.6-.3,1c0,.2,0,.5,0,.7,0,.2.2.4.3.5.1.1.3.3.5.4.2,0,.4.2.6.2l2.5.9c.4.1.7.3,1,.5.3.2.6.4.8.6.2.2.4.5.5.8.1.3.2.7.1,1.1,0,.1,0,.3,0,.5,0,.2-.1.4-.2.6-.1.2-.3.4-.5.6s-.5.4-.8.6c-.3.2-.7.3-1.2.3-.5,0-1,0-1.6,0-.6,0-1.2-.2-1.7-.4-.5-.2-1-.5-1.3-.8-.4-.3-.6-.7-.8-1.2-.2-.5-.2-1.1-.1-1.7h1c0,.6,0,1.1.1,1.5Z"/>
    <path class="st0" d="M218.8,39.3l-1.5,10.6h-1c0-.1,1.5-10.8,1.5-10.8h1Z"/>
    <path class="st0" d="M229.1,52.1l.2-1.9h0c-.3.3-.5.6-.8.8s-.6.4-1,.5c-.3.1-.7.2-1.1.2-.4,0-.8,0-1.1-.1-.8-.2-1.5-.5-2.1-.9-.6-.4-1-.9-1.3-1.5-.3-.6-.5-1.2-.6-1.9,0-.7,0-1.4.1-2.1.1-.7.4-1.4.7-2,.3-.6.8-1.1,1.3-1.6.5-.4,1.1-.7,1.8-.9.7-.2,1.4-.2,2.3,0,.5.1,1.1.3,1.5.5.5.2.9.6,1.2.9s.6.8.8,1.3c.2.5.3,1,.2,1.6l-1-.2c0-.3,0-.6-.1-1-.1-.3-.3-.7-.5-1-.2-.3-.5-.6-.9-.8-.4-.2-.8-.4-1.3-.5-.7-.1-1.3-.1-1.9,0s-1,.4-1.4.8c-.4.4-.7.8-1,1.3-.3.5-.5,1.1-.6,1.6-.1.6-.1,1.1-.1,1.7,0,.6.2,1.1.4,1.6.2.5.6.9,1,1.3.4.4,1,.6,1.7.8.6.1,1.1.1,1.6,0,.5-.1.9-.3,1.3-.6.4-.3.7-.6.9-1.1s.4-.9.5-1.5l-3.6-.7.2-.9,4.5.9-1.1,5.3h-.7Z"/>
    <path class="st0" d="M236.9,43l3.5,10.4h0s2.5-8.7,2.5-8.7l1,.3-3,10.3-1.1-.3-3.5-10.4h0s-2.5,8.7-2.5,8.7l-1-.3,3-10.3,1.1.3Z"/>
    <path class="st0" d="M252,52.4c.3-.2.5-.4.8-.6.3-.1.6-.2,1-.2s.7,0,1,.2c.3.1.6.3.9.6.2.3.4.5.6.9.1.3.2.6.2,1,0,.4,0,.7-.2,1s-.3.6-.6.9c-.3.2-.5.4-.9.6-.3.1-.7.2-1,.2-.4,0-.7,0-1-.2s-.6-.3-.9-.6c-.2-.3-.4-.5-.6-.9-.1-.3-.2-.7-.2-1,0-.4,0-.7.2-1,.1-.3.3-.6.6-.9Z"/>
    <path class="st0" d="M274,58.1l-.4.8-5.6-3-1.8,3.4,5.3,2.8-.4.8-5.3-2.8-2,3.7,5.7,3-.4.8-6.6-3.5,5-9.5,6.5,3.5Z"/>
    <path class="st0" d="M278,60.4l.4,11h0s4.8-7.6,4.8-7.6l.9.5-5.7,9.1-1-.6-.4-11h0s-4.8,7.6-4.8,7.6l-.9-.5,5.7-9.1,1,.6Z"/>
    <path class="st0" d="M287.5,66.7l-2.9,9.8h0s8.5-5.6,8.5-5.6l.9.6-9.6,6.2-1-.7,3.2-11,.9.6Z"/>
    <path class="st0" d="M297,73.9l-6.8,8.3-.8-.6,6.8-8.3.8.6Z"/>
    <path class="st0" d="M303.8,79.9c.3.3.6.6.8,1,.2.3.4.7.4,1.1,0,.4,0,.7,0,1.1s-.3.7-.7,1.1c-.5.5-1,.8-1.6,1s-1.2,0-1.8-.3h0c.2.3.4.6.5.8,0,.3.1.5,0,.8,0,.3-.1.5-.3.7-.1.2-.3.5-.5.7-.1.1-.3.3-.4.5s-.3.4-.5.6c-.2.2-.3.4-.4.6-.1.2-.2.4-.2.6l-.8-.8c0-.1,0-.2.1-.4,0-.1.2-.3.2-.4,0-.1.2-.2.3-.4,0-.1.2-.2.2-.3.2-.3.5-.6.7-.9.2-.3.4-.6.5-.9,0-.3,0-.6,0-1s-.3-.6-.7-.9l-2.9-2.6-3.2,3.5-.8-.7,7.2-7.9,3.6,3.3ZM300.3,83.6c.2.2.5.4.7.5.3.1.5.2.8.2.3,0,.5,0,.8-.1.3-.1.5-.3.7-.5.4-.5.7-1,.6-1.5,0-.5-.3-1.1-.9-1.6l-2.8-2.6-2.8,3.1,2.8,2.6Z"/>
    <path class="st0" d="M306.4,86.9c.6-.3,1.3-.5,1.9-.5.7,0,1.3,0,2,.3.7.3,1.3.7,1.8,1.3s1,1.3,1.2,1.9c.2.7.3,1.3.2,2,0,.7-.3,1.3-.7,1.9-.3.6-.8,1.2-1.3,1.7-.5.5-1.1.9-1.8,1.2-.6.3-1.3.5-1.9.5-.7,0-1.3,0-2-.3-.7-.3-1.3-.7-1.8-1.3s-1-1.3-1.2-1.9c-.2-.7-.3-1.3-.2-2,0-.7.3-1.3.7-1.9.3-.6.8-1.2,1.3-1.7.5-.5,1.1-.9,1.8-1.2ZM304.2,90.2c-.3.5-.5,1-.6,1.6s0,1.1,0,1.6c.2.6.5,1.1,1,1.6.5.5,1,.9,1.5,1.1.5.2,1.1.2,1.6.2.5,0,1.1-.2,1.6-.5.5-.3,1-.6,1.4-1,.4-.4.8-.9,1.1-1.3.3-.5.5-1,.6-1.6.1-.5,0-1.1,0-1.6-.1-.6-.5-1.1-.9-1.6-.5-.5-1-.9-1.5-1.1s-1.1-.3-1.6-.2c-.5,0-1.1.2-1.6.5-.5.3-1,.6-1.4,1-.4.4-.8.8-1.1,1.3Z"/>
    <path class="st0" d="M318.5,95.5l-3.2,10.5h0s7.1-5.6,7.1-5.6l.6.8-8.4,6.6-.7-.9,3.2-10.5h0s-7.1,5.6-7.1,5.6l-.6-.8,8.4-6.6.7.9Z"/>
    <path class="st0" d="M326.4,105.9l-5.9,8.1,9.9-2.1.8,1.3-8.9,5.9-.6-.9,7.7-5.1h0s-9.7,2-9.7,2l-.5-.8,5.8-8h0s-7.7,5.1-7.7,5.1l-.6-.9,8.9-5.9.8,1.3Z"/>
    <path class="st0" d="M336.9,123.3l-.8.4-3.1-5.6-3.4,1.9,2.9,5.2-.8.4-2.9-5.2-3.7,2,3.1,5.7-.8.4-3.6-6.5,9.4-5.2,3.6,6.5Z"/>
    <path class="st0" d="M338.9,127.5l-5.7,9.4h0s8.2-3.7,8.2-3.7l.4.9-9.7,4.5-.5-1,5.7-9.4h0s-8.2,3.7-8.2,3.7l-.4-.9,9.7-4.5.5,1Z"/>
    <path class="st0" d="M346.1,144.9l-.8.3-1.3-3.5-9.2,3.4-.4-1,9.2-3.4-1.3-3.5.8-.3,3,7.9Z"/>
    <path class="st0" d="M347.9,150.8l-9,7.1-.3-1,2.8-2.2-1.4-4.7-3.6-.3-.3-1,11.5,1,.3,1.1ZM342.1,154.1l4.7-3.6-5.9-.5,1.2,4Z"/>
    <path class="st0" d="M350.1,158.7l-9.6,2.2,1.3,5.9-.8.2-1.6-6.8,10.4-2.4.2,1Z"/>
    <path class="st0" d="M353.4,177.6l-10.1,5.4v-1.1c-.1,0,3-1.7,3-1.7l-.6-4.8-3.5-.9v-1.1c-.1,0,11,3,11,3v1.1ZM347.1,179.8l5.2-2.7-5.7-1.5.5,4.2Z"/>
    <path class="st0" d="M354.2,185.9l-8.8,6.6h0s9.1-.4,9.1-.4v1s-10.7.5-10.7.5v-1.1s8.7-6.6,8.7-6.6h0s-9.1.4-9.1.4v-1s10.7-.5,10.7-.5v1.1Z"/>
    <path class="st0" d="M354.4,201.1c0,1.6-.6,2.8-1.5,3.6-.9.8-2.2,1.2-4,1.1-1.8,0-3.1-.5-3.9-1.4-.8-.9-1.3-2.1-1.2-3.7v-3.7c.1,0,10.8.4,10.8.4v3.7ZM344.6,200.3c0,.8,0,1.4.2,2,.1.6.4,1,.7,1.4.3.4.8.7,1.4.8s1.2.3,2,.3,1.5,0,2.1-.2,1-.4,1.4-.7.7-.8.8-1.3c.2-.5.3-1.2.3-2v-2.2c0,0-8.9-.3-8.9-.3v2.2Z"/>
    <path class="st0" d="M352.8,219.3c-.3,1.6-.9,2.8-1.9,3.4-1,.7-2.4.9-4.1.6-1.8-.3-3-.9-3.8-1.8-.7-.9-1-2.2-.8-3.8l.5-3.7,10.6,1.6-.5,3.7ZM343.1,217.3c-.1.8-.1,1.4,0,2,0,.6.3,1.1.6,1.5.3.4.7.7,1.3,1,.5.3,1.2.4,2,.6.8.1,1.5.1,2.1,0,.6,0,1.1-.3,1.5-.6.4-.3.7-.7,1-1.2s.4-1.2.5-1.9l.3-2.2-8.9-1.3-.3,2.2Z"/>
    <path class="st0" d="M351.1,228.6l-10.5-2.2.2-1,10.5,2.2-.2,1Z"/>
    <path class="st0" d="M341.8,231.2c-.4,0-.8.2-1,.5-.3.2-.5.6-.7,1-.2.4-.4.8-.5,1.3,0,.3-.1.6-.1.9,0,.3,0,.7.1,1,0,.3.3.6.5.9s.5.4.9.5c.3,0,.6,0,.8,0,.2,0,.5-.2.7-.4.2-.2.4-.4.5-.6.2-.2.3-.5.4-.7l1.2-2.2c.2-.3.3-.5.5-.8s.4-.5.7-.6c.2-.2.5-.3.8-.3.3,0,.7,0,1.1,0,.3,0,.5.2.8.4.3.2.6.5.8.8.2.3.4.8.5,1.3s0,1.1-.2,1.9c-.1.5-.3,1-.6,1.4-.3.4-.6.8-.9,1.1-.4.3-.8.5-1.2.6-.5.1-1,0-1.5,0l.3-1c.4,0,.8,0,1.1,0,.3,0,.6-.2.9-.4s.5-.5.7-.8.3-.6.4-1c0-.3.1-.7.1-1,0-.3,0-.6-.1-.9s-.3-.5-.5-.7c-.2-.2-.5-.4-.9-.5-.2,0-.5,0-.7,0-.2,0-.4.1-.5.2-.2.1-.3.3-.4.4-.1.2-.2.4-.3.6l-1.3,2.4c-.2.3-.4.7-.6.9-.2.3-.5.5-.7.7-.3.2-.6.3-.9.4-.3,0-.7,0-1.1,0-.1,0-.3,0-.5-.2-.2,0-.4-.2-.6-.3-.2-.1-.4-.3-.6-.6-.2-.2-.3-.5-.4-.9-.1-.3-.2-.7-.1-1.2,0-.5,0-1,.2-1.6s.4-1.2.7-1.6c.3-.5.6-.9,1-1.2s.8-.5,1.3-.6c.5,0,1.1,0,1.7.2l-.3,1c-.5-.1-1-.2-1.4-.1Z"/>
    <path class="st0" d="M345.6,248.2c-.2.5-.4.8-.6,1.2-.3.3-.6.6-.9.8s-.7.3-1.1.3c-.4,0-.8,0-1.3-.2-.5-.2-.8-.4-1.1-.6-.3-.3-.5-.6-.7-.9-.2-.4-.2-.7-.2-1.1,0-.4,0-.8.2-1.3l1.2-3.5-4.3-1.5.3-1,10.1,3.5-1.5,4.5ZM340.7,246.3c-.2.7-.2,1.3,0,1.8.2.5.6.9,1.3,1.2s1.3.2,1.8,0c.5-.3.8-.8,1.1-1.5l1.1-3.3-4.1-1.4-1.1,3.3Z"/>
    <path class="st0" d="M342.9,255.4l-9.1-3.8-2.3,5.5-.8-.3,2.7-6.5,9.9,4.2-.4.9Z"/>
    <path class="st0" d="M337.4,267.5l-11.5-1.1.5-1,3.6.3,2.2-4.4-2.4-2.6.5-1,7.6,8.7-.5,1ZM330.9,265.9l5.8.6-3.9-4.4-1.9,3.8Z"/>
    <path class="st0" d="M335.2,271.8l-.6,1-6.5.3,2.9,5.8-.6,1-3.3-6.8-3.8-2.2.5-.9,3.8,2.2,7.6-.4Z"/>
    <path class="st0" d="M321.9,284.9c.2.3.3.6.3,1,0,.3,0,.7,0,1,0,.3-.2.7-.4,1-.2.3-.5.5-.8.7-.3.2-.6.3-1,.4s-.7,0-1,0c-.3,0-.7-.2-1-.4-.3-.2-.5-.5-.7-.8-.2-.3-.3-.6-.3-1,0-.3,0-.7,0-1,0-.3.2-.7.4-1,.2-.3.5-.5.8-.7.3-.2.6-.3,1-.3.3,0,.7,0,1,0,.3,0,.7.2,1,.4s.5.5.7.8Z"/>
    <path class="st0" d="M312.9,302.9c-.3.4-.7.6-1,.8-.4.2-.7.3-1.1.3s-.8,0-1.2-.2c-.4-.1-.8-.4-1.1-.7-.4-.3-.6-.7-.8-1-.2-.4-.3-.7-.3-1.1,0-.4,0-.8.2-1.1s.4-.7.7-1.1l2.5-2.8-3.4-3.1.7-.8,7.9,7.2-3.2,3.5ZM309.1,299.2c-.5.5-.7,1.1-.8,1.6,0,.6.2,1.1.8,1.6.5.5,1.1.7,1.7.6.6,0,1.1-.4,1.6-.9l2.4-2.6-3.3-2.9-2.4,2.6Z"/>
    <path class="st0" d="M306,309.9l-10.5-4.8.8-.8,3.3,1.5,3.5-3.4-1.4-3.3.8-.8,4.4,10.7-.8.8ZM300.4,306.3l5.3,2.5-2.3-5.4-3,2.9Z"/>
    <path class="st0" d="M293.7,317.9c.4.1.7.2,1.1.1.4,0,.7,0,1.1-.2s.7-.3,1-.6c.5-.5.9-.9,1.1-1.5.2-.5.3-1.1.3-1.6,0-.6-.2-1.1-.4-1.6-.2-.5-.5-1-.9-1.5-.4-.4-.8-.8-1.3-1.2-.5-.3-1-.6-1.5-.7s-1.1-.1-1.6,0-1.1.4-1.7.9c-.4.3-.7.7-.9,1.1s-.3.8-.3,1.2c0,.4,0,.9.2,1.3.1.4.3.9.6,1.3l-.8.7c-.4-.6-.6-1.1-.8-1.7-.2-.6-.2-1.1-.2-1.6s.2-1,.5-1.5c.3-.5.6-.9,1.1-1.3.6-.5,1.3-.9,2-1.1.7-.2,1.3-.2,2,0s1.3.4,1.9.8c.6.4,1.1.9,1.6,1.4.5.6.8,1.2,1.1,1.8s.4,1.3.4,2c0,.7-.1,1.3-.4,2s-.8,1.2-1.4,1.8c-.4.3-.8.6-1.3.8-.5.2-.9.3-1.4.3-.5,0-1,0-1.5-.2-.5-.2-.9-.4-1.3-.8l.8-.7c.3.3.7.4,1,.6Z"/>
    <path class="st0" d="M290.1,323.4l-3.3-4.7-1.7,8.3-1.1.8,1.3-6.4-7.7-2.2,1.1-.8,6.9,2,.6-2.7-2.1-3,.8-.6,6.2,8.7-.8.6Z"/>
    <path class="st0" d="M277.6,331.7l-9.1-7,.9-.6,2.8,2.2,4.2-2.5-.6-3.5.9-.6,1.9,11.4-1,.6ZM273,326.9l4.6,3.6-1-5.8-3.6,2.2Z"/>
    <path class="st0" d="M259,329.6l1,1.7h0c0-.4,0-.8.2-1.2.1-.4.3-.7.5-1,.2-.3.5-.6.7-.8.3-.2.6-.4,1-.6.8-.4,1.5-.6,2.2-.6.7,0,1.4.1,2,.4.6.3,1.2.7,1.6,1.2.5.5.9,1.1,1.2,1.7s.6,1.3.7,2c.1.7,0,1.4,0,2-.1.6-.4,1.3-.9,1.8s-1,1-1.8,1.4c-.5.3-1,.4-1.5.5-.5,0-1,0-1.5,0-.5,0-.9-.3-1.4-.5-.4-.3-.8-.6-1.2-1.1l.9-.5c.2.3.4.5.7.7.3.2.6.4,1,.5s.8.1,1.2,0c.4,0,.9-.2,1.3-.4.6-.3,1.1-.7,1.5-1.2.3-.5.5-1,.6-1.5,0-.5,0-1.1,0-1.7-.1-.6-.3-1.1-.6-1.6-.3-.5-.6-1-1-1.4-.4-.4-.8-.8-1.3-1-.5-.3-1-.4-1.6-.4-.6,0-1.2.1-1.8.5-.5.3-1,.6-1.3,1-.3.4-.6.8-.7,1.3s-.2.9,0,1.4c0,.5.2,1,.5,1.5l3.3-1.6.4.8-4.1,2-2.5-4.9.7-.3Z"/>
    <path class="st0" d="M258.6,341.4l-4.3-9.8.9-.4,4.3,9.8-.9.4Z"/>
    <path class="st0" d="M253.8,343.4l-9-6.4h0s3.1,8.5,3.1,8.5l-1,.4-3.7-10.1,1.1-.4,9,6.4h0s-3.1-8.5-3.1-8.5l1-.4,3.7,10.1-1.1.4Z"/>
    <path class="st0" d="M231.9,339.2l.7,1.8h0c0-.4.2-.8.4-1.1s.4-.6.7-.9c.3-.3.6-.5.9-.6.3-.2.7-.3,1.1-.4.8-.2,1.6-.3,2.3-.2s1.3.4,1.9.8c.5.4,1,.9,1.4,1.5.4.6.7,1.2.9,2,.2.7.3,1.4.3,2.1,0,.7-.2,1.4-.4,2s-.7,1.1-1.2,1.6c-.5.5-1.2.8-2,1-.5.1-1.1.2-1.6.2-.5,0-1-.1-1.5-.3-.5-.2-.9-.5-1.3-.8-.4-.4-.7-.8-.9-1.3l1-.3c.1.3.3.6.5.8.3.3.6.5.9.6.4.2.8.3,1.2.3.4,0,.9,0,1.4-.1.7-.2,1.2-.5,1.7-.9.4-.4.7-.9.9-1.4.2-.5.3-1.1.3-1.6,0-.6,0-1.2-.2-1.7-.2-.6-.4-1.1-.7-1.6-.3-.5-.7-.9-1.1-1.3-.4-.3-.9-.6-1.5-.7-.6-.1-1.2,0-1.9,0-.6.2-1.1.4-1.4.7-.4.3-.7.7-.9,1.1-.2.4-.3.9-.4,1.4s0,1,.2,1.6l3.5-1,.2.8-4.4,1.2-1.5-5.3.7-.2Z"/>
    <path class="st0" d="M223.5,347.5c0,.3-.2.7-.4.9-.2.3-.4.5-.7.7s-.6.3-1,.4-.7,0-1.1,0c-.3,0-.7-.2-.9-.4-.3-.2-.5-.4-.7-.7-.2-.3-.3-.6-.4-1,0-.4,0-.7,0-1.1s.2-.7.4-.9c.2-.3.5-.5.8-.7.3-.2.6-.3,1-.4.4,0,.7,0,1.1,0,.3,0,.7.2.9.4.3.2.5.5.7.8.2.3.3.6.4,1s0,.7,0,1.1Z"/>
  </g>
</svg>